if (_typeface_js && _typeface_js.loadFace) _typeface_js.loadFace({"glyphs":{"ợ":{"x_min":53,"x_max":731,"ha":731,"o":"m 528 308 q 510 410 528 362 q 466 496 493 459 q 404 554 438 533 q 336 576 369 576 q 251 556 285 576 q 195 502 216 537 q 165 421 174 468 q 156 320 156 375 q 174 218 156 267 q 221 133 193 170 q 283 75 249 97 q 347 54 317 54 q 429 72 395 54 q 484 123 462 90 q 517 203 506 156 q 528 308 528 250 m 731 706 q 723 669 731 690 q 699 625 716 648 q 652 576 681 602 q 578 526 622 551 q 617 436 604 486 q 631 329 631 386 q 619 240 631 283 q 588 158 608 196 q 540 86 568 119 q 479 30 512 53 q 407 -6 445 6 q 329 -20 369 -20 q 215 4 266 -20 q 128 71 164 28 q 72 173 92 114 q 53 301 53 232 q 63 389 53 346 q 94 471 74 432 q 141 543 114 510 q 202 600 169 576 q 275 637 236 623 q 355 651 314 651 q 465 628 415 651 q 550 564 514 605 q 601 611 585 588 q 617 651 617 634 q 606 688 617 671 q 578 722 596 706 l 696 776 q 721 743 711 761 q 731 706 731 726 m 422 -189 q 416 -225 422 -208 q 399 -254 410 -242 q 375 -274 389 -267 q 344 -282 361 -282 q 301 -265 314 -282 q 289 -217 289 -248 q 294 -181 289 -198 q 311 -151 300 -164 q 335 -132 322 -139 q 365 -125 349 -125 q 422 -189 422 -125 "},"Ẩ":{"x_min":0,"x_max":796,"ha":810,"o":"m 504 363 l 386 711 l 272 363 l 504 363 m 252 302 l 179 75 q 197 45 172 54 q 276 29 221 35 l 276 0 l 0 0 l 0 29 q 71 46 45 37 q 104 75 98 55 l 351 839 q 390 869 367 856 q 430 893 412 883 l 709 75 q 718 58 712 66 q 734 45 724 51 q 759 36 744 40 q 796 29 774 32 l 796 0 l 516 0 l 516 31 q 587 41 567 31 q 600 75 607 52 l 524 302 l 252 302 m 608 957 q 595 938 600 944 q 579 927 590 932 l 397 1068 l 216 927 q 208 932 211 929 q 201 938 204 935 q 195 946 198 942 q 187 957 191 951 l 362 1167 l 434 1167 l 608 957 m 510 1392 q 497 1358 510 1373 q 469 1330 485 1344 q 436 1305 452 1317 q 413 1281 421 1293 q 412 1255 406 1268 q 447 1224 419 1241 q 427 1216 437 1218 q 406 1213 416 1215 q 361 1241 375 1228 q 344 1264 347 1253 q 347 1285 341 1275 q 365 1303 353 1294 q 390 1321 376 1312 q 417 1339 404 1330 q 437 1359 429 1349 q 446 1382 446 1370 q 433 1421 446 1408 q 400 1434 420 1434 q 382 1430 390 1434 q 367 1420 373 1426 q 358 1406 361 1414 q 355 1392 355 1399 q 356 1384 355 1388 q 360 1377 358 1381 q 346 1373 355 1375 q 328 1369 338 1371 q 310 1365 319 1366 q 294 1362 300 1363 l 287 1370 l 287 1379 q 299 1411 287 1395 q 331 1439 312 1426 q 375 1459 351 1451 q 422 1467 399 1467 q 487 1446 464 1467 q 510 1392 510 1426 "},"ǻ":{"x_min":53,"x_max":615.6875,"ha":625,"o":"m 233 68 q 318 88 273 68 q 414 154 363 109 l 414 329 q 321 311 358 320 q 262 293 285 302 q 225 273 239 284 q 200 252 211 263 q 172 210 183 234 q 162 155 162 187 q 169 111 162 128 q 189 84 177 94 q 212 71 200 74 q 233 68 225 68 m 615 55 q 522 -2 559 15 q 466 -21 485 -21 q 429 10 444 -21 q 415 97 415 41 q 354 44 384 66 q 295 7 324 21 q 241 -14 267 -7 q 194 -21 216 -21 q 145 -12 170 -21 q 99 12 120 -4 q 66 58 79 30 q 53 125 53 86 q 70 211 53 177 q 112 271 88 246 q 149 302 128 288 q 202 330 169 317 q 287 356 236 344 q 414 380 337 368 l 414 475 q 408 518 414 498 q 390 552 403 538 q 356 575 378 567 q 302 583 334 583 q 260 576 280 583 q 224 557 239 569 q 200 527 209 544 q 193 490 191 511 q 180 476 194 484 q 146 463 165 469 q 107 453 126 456 q 80 452 88 450 l 71 478 q 118 543 86 512 q 189 598 149 575 q 274 636 229 622 q 361 651 319 651 q 474 611 434 651 q 514 503 514 572 l 514 120 q 521 80 514 92 q 540 68 528 68 q 564 71 549 68 q 605 86 579 74 l 615 55 m 383 843 q 379 874 383 859 q 367 900 375 889 q 349 918 360 911 q 325 925 339 925 q 299 919 311 925 q 276 903 286 913 q 261 877 267 892 q 255 844 255 862 q 259 814 255 828 q 270 788 263 799 q 288 770 277 777 q 312 764 299 764 q 338 769 325 764 q 361 784 351 774 q 377 808 371 794 q 383 843 383 823 m 443 870 q 430 807 443 836 q 396 757 417 778 q 349 723 375 735 q 298 712 323 712 q 256 720 275 712 q 224 742 237 728 q 202 775 210 756 q 195 816 195 794 q 208 880 195 851 q 241 931 221 910 q 287 965 262 953 q 339 977 313 977 q 380 968 361 977 q 413 945 399 960 q 435 911 427 930 q 443 870 443 892 m 290 1008 q 268 1016 278 1010 q 252 1027 259 1021 l 408 1308 q 429 1306 416 1307 q 456 1302 442 1304 q 484 1297 470 1300 q 504 1293 497 1295 l 519 1266 l 290 1008 "},"ʉ":{"x_min":27.265625,"x_max":710.359375,"ha":721,"o":"m 314 61 q 357 67 335 61 q 403 87 380 73 q 452 123 427 101 q 508 177 478 145 l 508 281 l 213 281 l 213 226 q 219 146 213 178 q 239 96 226 115 q 271 69 252 77 q 314 61 290 61 m 678 281 l 608 281 l 608 172 q 610 103 608 130 q 623 70 613 77 q 650 68 631 65 q 703 86 669 71 l 710 55 q 662 25 685 39 q 620 0 639 11 q 585 -15 600 -9 q 563 -21 571 -21 q 524 10 539 -21 q 510 112 510 42 q 432 44 466 70 q 369 3 398 18 q 316 -15 340 -10 q 270 -20 292 -20 q 211 -11 239 -20 q 160 20 182 -3 q 125 84 138 43 q 113 188 113 125 l 113 281 l 42 281 l 27 295 q 33 318 30 306 q 42 342 37 331 l 113 342 l 113 481 q 111 532 113 514 q 100 559 109 550 q 75 571 92 568 q 27 578 57 575 l 27 605 q 72 612 51 608 q 112 622 93 616 q 152 634 132 627 q 194 650 172 641 l 213 624 l 213 342 l 508 342 l 508 482 q 505 531 508 512 q 492 559 502 549 q 463 573 482 569 q 414 578 445 578 l 414 605 q 506 624 462 611 q 588 650 550 637 l 608 624 l 608 342 l 678 342 l 693 325 l 678 281 "},"Ổ":{"x_min":47,"x_max":757,"ha":817,"o":"m 653 426 q 645 519 653 473 q 622 606 637 565 q 584 682 606 647 q 534 742 562 716 q 473 782 506 767 q 402 797 439 797 q 295 771 342 797 q 216 698 249 746 q 167 584 184 651 q 150 434 150 517 q 170 290 150 358 q 224 171 190 223 q 304 90 259 120 q 402 61 350 61 q 503 84 457 61 q 583 153 549 107 q 635 268 616 200 q 653 426 653 337 m 757 439 q 727 263 757 346 q 645 117 697 180 q 526 17 594 54 q 382 -20 458 -20 q 240 15 302 -20 q 135 112 177 51 q 69 251 92 172 q 47 415 47 329 q 76 590 47 507 q 156 737 105 674 q 274 837 206 800 q 421 875 342 875 q 566 838 503 875 q 671 740 628 801 q 735 600 713 679 q 757 439 757 521 m 619 957 q 606 938 611 944 q 590 927 602 932 l 408 1068 l 228 927 q 219 932 223 929 q 212 938 215 935 q 206 946 209 942 q 198 957 203 951 l 373 1167 l 445 1167 l 619 957 m 521 1392 q 508 1358 521 1373 q 480 1330 496 1344 q 447 1305 463 1317 q 424 1281 432 1293 q 423 1255 417 1268 q 458 1224 430 1241 q 438 1216 448 1218 q 417 1213 427 1215 q 372 1241 386 1228 q 355 1264 358 1253 q 358 1285 352 1275 q 376 1303 364 1294 q 401 1321 387 1312 q 428 1339 415 1330 q 448 1359 440 1349 q 457 1382 457 1370 q 444 1421 457 1408 q 411 1434 431 1434 q 393 1430 401 1434 q 378 1420 384 1426 q 369 1406 372 1414 q 366 1392 366 1399 q 367 1384 366 1388 q 371 1377 369 1381 q 357 1373 366 1375 q 339 1369 349 1371 q 321 1365 330 1366 q 305 1362 311 1363 l 298 1370 l 298 1379 q 310 1411 298 1395 q 342 1439 323 1426 q 386 1459 362 1451 q 433 1467 410 1467 q 498 1446 475 1467 q 521 1392 521 1426 "},"Ừ":{"x_min":33,"x_max":930,"ha":930,"o":"m 930 944 q 921 904 930 927 q 892 856 913 882 q 837 803 872 830 q 751 749 803 775 l 751 355 q 729 197 751 266 q 668 79 708 127 q 571 5 628 30 q 442 -20 514 -20 q 316 0 374 -20 q 218 58 259 18 q 153 158 176 98 q 130 301 130 218 l 130 783 q 105 804 130 791 q 33 825 81 816 l 33 855 l 332 855 l 332 825 q 261 804 286 816 q 236 783 236 793 l 236 335 q 250 218 236 270 q 295 131 265 167 q 368 76 325 95 q 468 58 411 58 q 552 81 516 58 q 614 142 589 104 q 652 229 639 180 q 665 327 665 277 l 665 783 q 640 804 665 791 q 568 825 616 816 l 568 855 l 804 855 q 816 889 816 873 q 806 926 816 909 q 777 960 796 944 l 895 1014 q 920 981 910 999 q 930 944 930 964 m 567 958 q 553 938 558 945 q 537 927 548 932 l 226 1092 l 231 1122 q 246 1135 236 1128 q 268 1148 256 1141 q 291 1162 280 1156 q 310 1173 302 1168 l 567 958 "},"̂":{"x_min":-552.28125,"x_max":-131.59375,"ha":0,"o":"m -131 740 q -144 722 -139 728 q -160 710 -148 715 l -342 892 l -522 710 q -531 715 -527 713 q -538 722 -535 718 q -544 730 -540 725 q -552 740 -547 734 l -376 998 l -305 998 l -131 740 "},"Á":{"x_min":0,"x_max":796,"ha":810,"o":"m 504 363 l 386 711 l 272 363 l 504 363 m 252 302 l 179 75 q 197 45 172 54 q 276 29 221 35 l 276 0 l 0 0 l 0 29 q 71 46 45 37 q 104 75 98 55 l 352 839 q 390 869 367 855 q 430 893 412 883 l 709 75 q 718 58 712 66 q 734 45 724 51 q 759 36 744 40 q 796 29 774 32 l 796 0 l 516 0 l 516 31 q 587 41 567 31 q 600 75 607 52 l 524 302 l 252 302 m 310 927 q 293 938 298 931 q 280 957 288 944 l 537 1172 q 555 1162 544 1168 q 579 1148 567 1155 q 600 1134 590 1141 q 616 1122 610 1127 l 622 1091 l 310 927 "},"ṑ":{"x_min":53,"x_max":631.015625,"ha":684,"o":"m 528 309 q 510 411 528 362 q 466 496 493 459 q 404 555 438 533 q 336 577 369 577 q 251 557 285 577 q 195 503 216 537 q 165 422 174 469 q 156 321 156 375 q 174 219 156 267 q 221 133 193 170 q 283 75 249 97 q 347 54 317 54 q 429 72 395 54 q 484 123 462 90 q 517 203 506 157 q 528 309 528 250 m 631 329 q 619 240 631 283 q 588 158 608 197 q 540 86 568 119 q 479 30 512 53 q 407 -6 445 6 q 329 -20 369 -20 q 215 4 266 -20 q 128 71 164 28 q 72 173 92 114 q 53 301 53 232 q 63 389 53 346 q 94 472 74 433 q 141 544 114 511 q 202 600 169 576 q 275 638 236 624 q 355 651 314 651 q 468 627 417 651 q 555 559 519 602 q 611 457 591 516 q 631 329 631 398 m 586 868 q 581 851 585 861 q 574 831 578 841 q 566 812 570 822 q 560 797 563 803 l 152 797 l 137 813 q 142 830 138 821 q 149 850 145 840 q 157 869 153 859 q 164 885 161 878 l 571 885 l 586 868 m 431 975 q 413 962 422 967 q 393 954 405 957 l 160 1209 l 174 1237 q 194 1242 181 1239 q 221 1247 207 1244 q 249 1251 235 1249 q 271 1253 263 1253 l 431 975 "},"Ȯ":{"x_min":47,"x_max":757,"ha":817,"o":"m 653 426 q 645 519 653 473 q 622 606 637 565 q 584 682 606 647 q 534 742 562 716 q 473 782 506 767 q 402 797 439 797 q 295 771 342 797 q 216 698 249 746 q 167 584 184 651 q 150 434 150 517 q 170 290 150 358 q 224 171 190 223 q 304 90 259 120 q 402 61 350 61 q 503 84 457 61 q 583 153 549 107 q 635 268 616 200 q 653 426 653 337 m 757 439 q 727 263 757 346 q 645 117 697 180 q 526 17 594 54 q 382 -20 458 -20 q 240 15 302 -20 q 135 112 177 51 q 69 251 92 172 q 47 415 47 329 q 76 590 47 507 q 156 737 105 674 q 274 837 206 800 q 421 875 342 875 q 566 838 503 875 q 671 740 628 801 q 735 600 713 679 q 757 439 757 521 m 476 1045 q 470 1009 476 1026 q 453 980 464 992 q 429 960 443 967 q 398 953 415 953 q 355 969 368 953 q 343 1017 343 986 q 348 1053 343 1036 q 365 1083 354 1070 q 389 1102 376 1095 q 419 1110 403 1110 q 476 1045 476 1110 "},"ĥ":{"x_min":37,"x_max":732,"ha":752,"o":"m 446 0 l 446 29 q 516 51 493 42 q 539 70 539 61 l 539 429 q 534 496 539 470 q 518 537 529 522 q 491 557 507 552 q 453 563 475 563 q 403 550 430 563 q 347 514 376 538 q 288 455 318 491 q 230 372 258 419 l 230 70 q 254 49 230 60 q 323 29 279 38 l 323 0 l 37 0 l 37 29 q 105 50 80 40 q 130 70 130 59 l 130 880 q 127 924 130 908 q 115 949 125 940 q 87 962 106 958 q 37 969 68 965 l 37 997 q 87 1007 64 1002 q 130 1019 110 1013 q 168 1033 150 1026 q 205 1051 186 1041 l 230 1028 l 230 464 q 293 541 258 507 q 363 600 328 576 q 432 638 398 625 q 492 651 466 651 q 547 642 520 651 q 594 615 573 633 q 626 568 614 596 q 639 502 639 540 l 639 70 q 659 52 639 61 q 732 29 679 42 l 732 0 l 446 0 m 594 1127 q 581 1108 586 1114 q 565 1096 577 1102 l 383 1237 l 203 1096 q 194 1102 198 1099 q 187 1108 190 1104 q 181 1116 184 1111 q 173 1127 178 1121 l 348 1337 l 420 1337 l 594 1127 "},"»":{"x_min":93.171875,"x_max":607,"ha":661,"o":"m 607 291 l 367 11 l 339 31 l 492 316 l 339 598 l 367 619 l 607 341 l 607 291 m 361 291 l 121 11 l 93 31 l 246 316 l 93 598 l 121 619 l 361 341 l 361 291 "},"Ḻ":{"x_min":33,"x_max":627.09375,"ha":648,"o":"m 627 165 q 613 63 621 106 q 599 0 605 19 l 33 0 l 33 29 q 104 49 78 38 q 130 70 130 61 l 130 783 q 105 803 130 791 q 33 825 81 815 l 33 854 l 332 854 l 332 825 q 261 804 286 815 q 236 783 236 792 l 236 111 q 241 89 236 98 q 261 74 247 80 q 299 64 275 67 q 359 61 322 61 l 454 61 q 505 64 484 61 q 542 79 526 67 q 571 114 558 91 q 598 177 584 137 l 627 165 m 554 -155 q 549 -172 553 -162 q 542 -192 546 -182 q 535 -211 538 -201 q 528 -227 531 -220 l 120 -227 l 105 -210 q 110 -193 107 -202 q 117 -173 113 -183 q 125 -154 121 -164 q 133 -139 129 -145 l 540 -139 l 554 -155 "},"∆":{"x_min":39.21875,"x_max":727.078125,"ha":780,"o":"m 585 112 q 501 335 542 226 q 465 432 484 382 q 429 531 447 482 q 394 627 410 581 q 363 711 377 673 q 330 620 348 668 q 295 520 313 571 q 260 421 277 470 q 225 326 242 371 q 148 112 187 218 q 142 92 143 99 q 148 82 141 85 q 171 79 154 79 q 220 79 188 79 l 511 79 q 561 79 544 79 q 585 82 578 79 q 591 92 592 85 q 585 112 590 99 m 713 0 l 49 0 l 39 34 q 154 348 99 197 q 202 480 177 412 q 249 613 226 548 q 293 736 273 678 q 329 839 314 795 q 367 870 344 856 q 406 893 389 883 q 446 779 424 843 q 495 646 469 716 q 548 504 521 576 q 601 364 575 432 q 727 34 661 205 l 713 0 "},"ṟ":{"x_min":-44.734375,"x_max":517.765625,"ha":540,"o":"m 512 626 q 517 602 517 621 q 512 557 517 582 q 499 504 507 531 q 483 459 491 477 l 455 459 q 443 504 451 485 q 426 534 436 523 q 405 550 417 545 q 381 556 394 556 q 347 543 366 556 q 307 504 327 530 q 266 435 286 477 q 230 336 245 394 l 230 70 q 254 49 230 60 q 342 29 279 38 l 342 0 l 37 0 l 37 29 q 105 49 80 39 q 130 70 130 59 l 130 465 q 128 502 130 487 q 125 527 127 518 q 120 542 123 537 q 114 551 117 547 q 104 560 110 556 q 89 565 98 563 q 68 568 80 568 q 37 568 55 568 l 37 597 q 121 620 80 608 q 196 651 163 632 l 224 627 l 224 473 q 267 543 246 510 q 312 599 288 575 q 362 637 336 623 q 417 651 388 651 q 463 645 438 651 q 512 626 487 640 m 404 -155 q 399 -172 403 -162 q 392 -192 396 -182 q 384 -211 388 -201 q 378 -227 381 -220 l -30 -227 l -44 -210 q -40 -193 -43 -202 q -32 -173 -36 -183 q -24 -154 -28 -164 q -17 -139 -20 -145 l 389 -139 l 404 -155 "},"ỹ":{"x_min":-31,"x_max":658,"ha":672,"o":"m 658 601 q 625 592 638 596 q 604 583 612 588 q 592 571 596 578 q 584 555 588 565 l 362 -55 q 300 -184 334 -130 q 229 -272 266 -237 q 155 -322 192 -306 q 84 -339 117 -339 q 38 -335 59 -339 q 1 -327 16 -332 q -22 -315 -13 -322 q -31 -303 -31 -309 q -22 -286 -31 -299 q -2 -260 -14 -274 q 22 -231 9 -245 q 47 -211 36 -218 q 110 -232 79 -232 q 167 -223 142 -232 q 195 -204 179 -219 q 227 -168 211 -189 q 259 -119 243 -146 q 286 -62 274 -91 l 306 -15 l 87 555 q 64 584 81 574 q 14 601 47 593 l 14 630 l 271 630 l 271 601 q 228 594 245 598 q 203 586 212 591 q 193 573 194 581 q 195 555 191 566 l 359 123 l 512 555 q 513 572 515 565 q 502 584 511 579 q 476 593 493 589 q 436 601 460 597 l 436 631 l 658 631 l 658 601 m 579 913 q 551 858 567 885 q 514 809 534 830 q 470 773 493 787 q 420 760 446 760 q 376 771 396 760 q 335 798 355 783 q 295 825 315 813 q 256 837 276 837 q 208 814 230 837 q 161 754 186 792 l 126 768 q 154 823 138 796 q 191 872 171 851 q 235 908 212 894 q 285 922 259 922 q 333 910 310 922 q 375 883 355 898 q 413 856 395 868 q 447 845 431 845 q 496 866 472 845 q 543 928 521 888 l 579 913 "},"«":{"x_min":53,"x_max":567.5,"ha":661,"o":"m 53 291 l 53 315 q 53 332 53 325 q 54 341 53 340 l 293 619 l 320 599 l 314 586 q 297 554 307 574 q 272 509 286 534 q 243 457 258 483 q 215 405 229 430 q 191 360 201 380 q 174 328 180 340 q 168 317 167 317 l 321 32 l 293 11 l 53 291 m 299 291 l 299 315 q 299 332 299 325 q 300 341 299 340 l 538 619 l 566 599 l 560 586 q 542 554 553 574 q 518 509 532 534 q 489 457 504 483 q 461 405 475 430 q 437 360 447 380 q 419 328 426 340 q 413 317 413 317 l 567 32 l 538 11 l 299 291 "},"ử":{"x_min":27.265625,"x_max":834,"ha":834,"o":"m 834 706 q 823 662 834 687 q 787 607 813 636 q 718 548 762 579 q 608 490 674 518 l 608 172 q 611 103 608 130 q 623 70 614 77 q 650 68 631 65 q 704 86 670 71 l 710 55 q 662 25 685 39 q 620 1 639 11 q 586 -14 600 -8 q 563 -20 571 -20 q 524 11 539 -20 q 510 112 510 42 q 433 44 467 70 q 369 4 398 18 q 316 -14 341 -9 q 271 -20 292 -20 q 211 -11 239 -20 q 160 20 182 -2 q 125 84 138 44 q 113 189 113 125 l 113 482 q 111 532 113 514 q 100 559 109 550 q 75 572 92 568 q 27 579 57 575 l 27 606 q 72 613 51 608 q 112 622 93 617 q 152 635 132 627 q 194 651 172 642 l 213 624 l 213 226 q 219 147 213 179 q 239 96 226 115 q 271 69 252 77 q 314 61 290 61 q 357 67 335 61 q 403 87 380 73 q 452 123 427 101 q 508 177 478 145 l 508 482 q 505 531 508 513 q 492 560 502 549 q 464 574 482 570 q 415 578 445 578 l 415 606 q 506 625 463 612 q 588 651 550 638 l 608 624 l 608 538 q 659 568 638 552 q 693 598 680 583 q 713 627 707 613 q 720 651 720 640 q 710 689 720 671 q 681 722 700 706 l 799 776 q 824 743 814 761 q 834 706 834 726 m 474 904 q 461 870 474 885 q 432 842 449 855 q 400 817 415 829 q 377 793 385 805 q 376 766 370 780 q 411 736 383 753 q 391 728 401 729 q 370 725 380 726 q 325 753 339 740 q 308 776 311 765 q 311 796 305 787 q 329 815 317 806 q 354 833 340 824 q 381 851 368 842 q 401 871 393 861 q 410 894 410 882 q 397 933 410 920 q 364 946 384 946 q 346 942 354 946 q 331 932 337 938 q 322 918 325 926 q 319 903 319 911 q 320 896 319 900 q 324 889 322 893 q 310 885 319 887 q 292 880 302 882 q 274 877 283 878 q 258 874 264 875 l 251 882 l 251 891 q 263 923 251 907 q 295 951 276 938 q 339 971 315 963 q 386 979 363 979 q 451 958 428 979 q 474 904 474 938 "},"í":{"x_min":47,"x_max":390.828125,"ha":370,"o":"m 47 0 l 47 29 q 115 49 92 38 q 139 70 139 61 l 139 454 q 139 510 139 488 q 130 543 139 531 q 101 560 121 555 q 47 569 82 566 l 47 596 q 90 606 67 600 q 136 619 113 612 q 179 634 158 626 q 217 651 200 642 l 240 651 l 240 70 q 262 50 240 62 q 333 29 284 38 l 333 0 l 47 0 m 161 709 q 140 717 149 712 q 123 728 131 722 l 279 1009 q 300 1007 287 1009 q 327 1003 313 1005 q 354 998 341 1001 q 375 994 368 996 l 390 967 l 161 709 "},"ʠ":{"x_min":53,"x_max":859,"ha":702,"o":"m 495 495 q 433 555 473 533 q 345 576 393 576 q 273 560 308 576 q 212 512 239 544 q 169 433 185 480 q 153 322 153 385 q 169 217 153 264 q 210 137 185 170 q 266 85 236 103 q 323 68 296 68 q 368 77 346 68 q 411 102 390 86 q 453 137 432 117 q 495 177 474 156 l 495 495 m 859 965 q 849 949 859 959 q 826 927 839 938 q 798 906 813 916 q 774 891 784 896 q 746 929 760 915 q 720 953 733 944 q 695 964 707 961 q 675 968 684 968 q 639 957 654 968 q 614 920 624 946 q 599 853 604 895 q 595 750 595 812 l 595 -254 q 615 -275 595 -265 q 687 -296 636 -286 l 687 -325 l 382 -325 l 382 -296 q 469 -276 444 -286 q 495 -254 495 -265 l 495 112 q 445 57 469 81 q 394 15 420 32 q 339 -10 368 -1 q 276 -20 310 -20 q 199 2 239 -20 q 127 65 160 24 q 73 166 94 106 q 53 301 53 226 q 71 411 53 360 q 117 500 90 461 q 174 566 144 539 q 228 606 205 593 q 303 639 266 627 q 366 651 340 651 q 428 643 397 651 q 495 608 459 635 l 495 712 q 500 812 495 770 q 518 885 506 853 q 549 941 530 916 q 593 988 567 965 q 664 1035 627 1019 q 727 1051 701 1051 q 780 1039 755 1051 q 822 1014 804 1028 q 849 985 839 999 q 859 965 859 971 "},"ǜ":{"x_min":27.265625,"x_max":710.359375,"ha":721,"o":"m 710 55 q 662 25 685 39 q 620 1 639 11 q 585 -14 600 -8 q 563 -20 571 -20 q 524 11 539 -20 q 510 112 510 42 q 432 44 467 70 q 369 3 398 18 q 316 -15 340 -10 q 271 -20 292 -20 q 211 -11 239 -20 q 160 20 182 -2 q 125 84 138 43 q 113 189 113 125 l 113 481 q 111 532 113 514 q 100 559 109 550 q 75 571 92 568 q 27 578 57 575 l 27 605 q 72 612 51 608 q 112 622 93 616 q 152 634 132 627 q 194 650 172 641 l 213 624 l 213 226 q 219 147 213 178 q 239 96 226 115 q 271 69 252 77 q 314 61 290 61 q 357 67 335 61 q 403 87 380 73 q 452 123 427 101 q 508 177 478 145 l 508 482 q 505 531 508 512 q 492 559 502 549 q 464 573 482 569 q 414 578 446 578 l 414 605 q 507 624 463 611 q 588 650 551 637 l 608 624 l 608 172 q 610 103 608 130 q 623 70 613 77 q 650 68 631 65 q 703 86 669 71 l 710 55 m 562 854 q 556 818 562 835 q 539 789 550 801 q 515 769 529 776 q 484 762 501 762 q 441 778 454 762 q 429 826 429 795 q 434 862 429 845 q 451 892 440 879 q 475 911 462 904 q 505 919 489 919 q 562 854 562 919 m 296 854 q 290 818 296 835 q 273 789 284 801 q 249 769 263 776 q 218 762 235 762 q 175 778 188 762 q 163 826 163 795 q 168 862 163 845 q 185 892 174 879 q 209 911 196 904 q 239 919 223 919 q 296 854 296 919 m 438 974 q 420 961 429 966 q 400 953 411 956 l 167 1209 l 181 1237 q 201 1241 188 1239 q 228 1246 214 1243 q 256 1250 242 1249 q 278 1253 270 1252 l 438 974 "},"ṥ":{"x_min":63,"x_max":465,"ha":525,"o":"m 465 192 q 451 109 465 144 q 417 51 438 75 q 369 13 395 28 q 318 -7 343 0 q 271 -17 293 -15 q 236 -20 248 -20 q 159 -7 204 -20 q 70 29 114 4 q 64 51 65 31 q 63 97 63 71 q 66 150 63 123 q 74 192 69 176 l 104 184 q 117 131 104 156 q 153 87 130 106 q 205 58 175 69 q 269 48 234 48 q 313 55 293 48 q 348 77 333 63 q 370 111 362 91 q 379 154 379 130 q 364 202 379 181 q 326 240 350 223 q 273 273 303 258 q 213 304 244 288 q 159 335 185 319 q 113 371 133 351 q 81 417 93 392 q 69 474 69 442 q 85 549 69 516 q 129 604 102 582 q 192 639 157 627 q 266 651 228 651 q 311 647 287 651 q 361 636 336 643 q 406 620 385 629 q 441 598 427 611 q 442 580 445 594 q 432 549 439 566 q 419 517 426 532 q 408 497 412 502 l 382 502 q 315 570 350 551 q 248 590 281 590 q 209 582 226 590 q 179 563 192 575 q 161 537 167 551 q 155 508 155 522 q 167 469 155 487 q 200 437 180 452 q 247 408 221 421 q 302 379 274 394 q 359 347 330 364 q 412 308 389 330 q 450 258 435 286 q 465 192 465 230 m 234 710 q 213 717 222 712 q 197 729 204 723 l 352 1010 q 373 1008 360 1009 q 400 1004 386 1006 q 428 999 415 1002 q 449 994 441 996 l 464 968 l 234 710 m 330 1099 q 324 1063 330 1080 q 307 1034 318 1046 q 283 1014 297 1021 q 252 1007 269 1007 q 209 1023 222 1007 q 197 1071 197 1040 q 202 1107 197 1090 q 219 1137 208 1124 q 243 1156 230 1149 q 273 1164 257 1164 q 330 1099 330 1164 "},"µ":{"x_min":40.265625,"x_max":720.34375,"ha":734,"o":"m 720 55 q 679 29 700 42 q 637 4 657 15 q 600 -13 617 -6 q 572 -21 583 -21 q 548 -9 558 -21 q 531 21 538 2 q 521 67 525 41 q 518 122 518 93 q 413 14 464 50 q 325 -21 363 -21 q 247 6 285 -21 q 180 82 209 33 l 180 78 q 187 -55 180 3 q 208 -160 195 -114 q 238 -237 221 -205 q 272 -290 255 -269 q 245 -300 262 -294 q 210 -314 228 -307 q 175 -328 192 -321 q 151 -339 159 -334 l 126 -319 l 126 495 q 124 537 126 522 q 114 560 122 552 q 88 572 106 568 q 40 579 71 575 l 40 606 q 87 615 66 611 q 128 624 109 619 q 165 635 147 629 q 199 651 182 641 l 202 647 q 209 639 205 644 q 218 630 213 635 q 225 622 222 625 l 225 248 q 233 196 225 224 q 258 145 242 169 q 296 105 273 121 q 347 89 319 89 q 384 92 365 89 q 424 106 403 95 q 468 138 445 118 q 518 194 491 159 l 518 507 q 516 533 518 518 q 509 563 513 548 q 501 591 506 578 q 492 610 497 604 q 552 629 522 618 q 609 651 582 639 l 627 624 q 621 582 625 607 q 618 514 618 557 l 618 181 q 623 92 618 118 q 643 67 629 67 q 674 72 658 67 q 713 86 691 77 l 720 55 "},"ỳ":{"x_min":-31,"x_max":658,"ha":672,"o":"m 658 601 q 625 592 638 596 q 604 583 612 588 q 592 571 596 578 q 584 555 588 565 l 362 -55 q 300 -184 334 -130 q 229 -272 266 -237 q 155 -322 192 -306 q 84 -339 117 -339 q 38 -335 59 -339 q 1 -327 16 -332 q -22 -315 -13 -322 q -31 -303 -31 -309 q -22 -286 -31 -299 q -2 -260 -14 -274 q 22 -231 9 -245 q 47 -211 36 -218 q 110 -232 79 -232 q 167 -223 142 -232 q 195 -204 179 -219 q 227 -168 211 -189 q 259 -119 243 -146 q 286 -62 274 -91 l 306 -15 l 87 555 q 64 584 81 574 q 14 601 47 593 l 14 630 l 271 630 l 271 601 q 228 594 245 598 q 203 586 212 591 q 193 573 194 581 q 195 555 191 566 l 359 123 l 512 555 q 513 572 515 565 q 502 584 511 579 q 476 593 493 589 q 436 601 460 597 l 436 631 l 658 631 l 658 601 m 428 731 q 411 718 420 723 q 391 710 402 713 l 157 965 l 172 993 q 192 998 179 995 q 219 1003 205 1000 q 247 1007 233 1006 q 269 1010 261 1009 l 428 731 "},"Ḟ":{"x_min":33,"x_max":595,"ha":650,"o":"m 33 0 l 33 28 q 104 49 78 38 q 130 70 130 60 l 130 782 q 105 803 130 790 q 33 824 81 815 l 33 854 l 575 854 l 595 837 q 592 798 595 819 q 586 756 589 777 q 578 716 582 735 q 569 684 573 697 l 538 684 q 534 736 538 715 q 523 770 530 757 q 507 787 516 782 q 484 793 497 793 l 236 793 l 236 498 l 484 498 l 503 479 q 489 458 497 469 q 473 437 481 447 q 456 417 464 426 q 441 403 447 409 q 420 420 431 413 q 393 432 408 427 q 358 438 378 436 q 310 441 338 441 l 236 441 l 236 70 q 261 51 236 61 q 352 28 287 41 l 352 0 l 33 0 m 381 1044 q 375 1008 381 1025 q 358 979 369 991 q 334 959 348 966 q 303 952 320 952 q 260 968 273 952 q 248 1016 248 985 q 253 1052 248 1035 q 270 1082 259 1069 q 294 1101 281 1094 q 324 1109 308 1109 q 381 1044 381 1109 "},"M":{"x_min":40,"x_max":1043,"ha":1097,"o":"m 1030 825 q 988 818 1010 825 q 944 800 966 812 l 944 70 q 969 50 944 62 q 1043 29 995 38 l 1043 0 l 741 0 l 741 29 q 813 49 786 38 q 840 70 840 61 l 840 705 l 546 0 l 514 0 l 216 700 l 216 70 q 238 50 216 62 q 309 29 261 38 l 309 0 l 40 0 l 40 29 q 112 49 85 38 q 140 70 140 61 l 140 797 q 90 818 115 812 q 46 825 66 825 l 46 854 l 236 854 q 248 851 243 854 q 257 843 252 849 q 266 826 261 837 q 279 797 271 815 l 543 185 l 797 797 q 811 828 806 817 q 821 845 816 840 q 829 852 825 851 q 840 854 834 854 l 1030 854 l 1030 825 "},"Ḏ":{"x_min":27.015625,"x_max":746,"ha":806,"o":"m 300 817 q 235 817 266 817 l 235 104 q 241 80 235 89 q 277 62 250 68 q 356 57 304 57 q 450 79 402 57 q 540 148 499 102 q 607 265 581 195 q 633 431 633 336 q 611 593 633 521 q 546 714 589 664 q 442 790 504 764 q 300 817 380 817 m 746 456 q 729 305 746 372 q 683 188 712 239 q 617 101 654 137 q 538 43 579 66 q 453 10 496 20 q 371 0 410 0 l 33 0 l 33 29 q 103 49 78 38 q 129 70 129 61 l 129 806 q 78 799 102 802 q 33 792 54 795 l 27 834 q 94 851 56 843 q 175 865 132 859 q 261 872 217 872 q 343 872 304 872 q 510 843 436 872 q 637 762 585 815 q 717 632 689 709 q 746 456 746 554 m 589 -155 q 585 -172 588 -162 q 577 -192 581 -182 q 570 -211 573 -201 q 563 -227 566 -220 l 154 -227 l 140 -210 q 144 -193 141 -202 q 152 -173 148 -183 q 160 -154 156 -164 q 167 -139 164 -145 l 575 -139 l 589 -155 "},"ũ":{"x_min":27.265625,"x_max":710.359375,"ha":721,"o":"m 710 55 q 662 25 685 39 q 620 0 639 11 q 585 -15 600 -9 q 563 -21 571 -21 q 524 10 539 -21 q 510 112 510 42 q 432 44 466 70 q 369 3 398 17 q 316 -15 340 -10 q 270 -21 292 -21 q 211 -12 239 -21 q 160 20 182 -3 q 125 84 138 43 q 113 189 113 125 l 113 482 q 111 532 113 514 q 100 559 109 550 q 75 572 92 568 q 27 578 57 575 l 27 606 q 72 612 51 608 q 112 622 93 616 q 152 634 132 627 q 194 650 172 642 l 213 624 l 213 226 q 219 147 213 178 q 239 96 226 115 q 271 69 252 77 q 314 61 290 61 q 357 67 335 61 q 403 87 380 73 q 452 123 427 101 q 508 177 478 145 l 508 482 q 505 531 508 513 q 492 559 502 549 q 463 574 482 570 q 414 578 445 578 l 414 606 q 506 625 462 612 q 588 650 550 637 l 608 624 l 608 172 q 610 103 608 130 q 623 70 613 77 q 650 68 631 65 q 703 86 669 71 l 710 55 m 588 912 q 560 857 576 884 q 523 808 543 830 q 478 773 502 787 q 429 760 455 760 q 384 771 405 760 q 344 798 363 783 q 304 824 324 812 q 265 836 285 836 q 217 814 239 836 q 171 754 195 792 l 135 768 q 163 823 147 795 q 200 872 180 850 q 244 907 221 893 q 294 921 268 921 q 342 909 319 921 q 384 883 364 897 q 422 856 404 868 q 456 845 440 845 q 505 866 481 845 q 552 927 530 888 l 588 912 "},"ŭ":{"x_min":27.265625,"x_max":710.359375,"ha":721,"o":"m 710 55 q 662 25 685 39 q 620 1 639 11 q 585 -14 600 -8 q 563 -20 571 -20 q 524 11 539 -20 q 510 112 510 42 q 432 44 466 70 q 369 4 398 18 q 316 -14 340 -9 q 270 -20 292 -20 q 211 -11 239 -20 q 160 20 182 -2 q 125 84 138 44 q 113 189 113 125 l 113 482 q 111 533 113 515 q 100 560 109 551 q 75 572 92 569 q 27 579 57 576 l 27 606 q 72 613 51 609 q 112 623 93 617 q 152 635 132 628 q 194 651 172 642 l 213 625 l 213 226 q 219 147 213 179 q 239 96 226 115 q 271 69 252 77 q 314 61 290 61 q 357 67 335 61 q 403 87 380 73 q 452 123 427 101 q 508 177 478 145 l 508 483 q 505 532 508 513 q 492 560 502 550 q 463 574 482 570 q 414 579 445 579 l 414 606 q 506 625 462 612 q 588 651 550 638 l 608 625 l 608 172 q 610 103 608 130 q 623 70 613 77 q 650 68 631 65 q 703 86 669 71 l 710 55 m 578 923 q 533 830 558 868 q 480 769 508 793 q 423 736 453 746 q 363 726 393 726 q 300 736 330 726 q 242 769 269 746 q 190 830 214 793 q 146 923 166 868 q 162 941 154 935 q 181 953 170 948 q 219 888 198 915 q 265 846 241 862 q 314 823 289 830 q 360 816 338 816 q 409 823 384 816 q 459 846 435 830 q 505 888 483 862 q 542 953 526 915 q 562 941 554 948 q 578 923 570 935 "},"{":{"x_min":68.078125,"x_max":431.03125,"ha":457,"o":"m 431 1052 q 382 1015 405 1036 q 344 968 360 994 q 318 913 327 943 q 309 848 309 883 q 313 784 309 809 q 322 737 317 759 q 331 689 327 715 q 336 625 336 664 q 327 569 336 597 q 304 518 319 542 q 266 474 288 493 q 216 442 244 454 q 272 421 249 436 q 309 382 295 405 q 329 328 323 359 q 336 260 336 298 q 331 191 336 220 q 322 137 327 163 q 313 87 317 112 q 309 28 309 62 q 313 -37 309 -8 q 331 -89 318 -66 q 366 -132 344 -112 q 424 -172 389 -152 l 409 -213 q 313 -165 353 -190 q 248 -108 273 -140 q 210 -39 222 -77 q 199 48 199 0 q 203 114 199 88 q 212 164 207 140 q 221 216 217 188 q 226 285 226 243 q 199 368 226 340 q 122 397 172 397 l 108 397 q 101 396 104 397 q 93 395 97 396 q 79 392 89 394 l 68 428 q 186 491 146 449 q 226 584 226 533 q 224 631 226 611 q 219 667 222 651 q 212 697 216 683 q 205 726 208 710 q 200 762 202 742 q 199 809 199 782 q 213 895 199 855 q 256 970 228 936 q 324 1033 284 1004 q 413 1084 364 1061 l 431 1052 "},"¼":{"x_min":52.703125,"x_max":743.984375,"ha":797,"o":"m 631 332 l 497 153 l 631 153 l 631 332 m 743 142 q 729 124 735 132 q 713 111 722 116 l 693 111 l 693 39 q 694 34 693 36 q 700 29 695 32 q 715 24 705 27 q 740 19 724 22 l 740 0 l 558 0 l 558 19 q 596 25 581 22 q 618 31 611 28 q 628 37 626 34 q 631 42 631 39 l 631 111 l 446 111 l 433 121 l 619 381 q 651 393 634 387 q 679 405 668 400 l 693 393 l 693 153 l 733 153 l 743 142 m 64 432 l 64 455 q 111 461 93 457 q 140 468 130 465 q 155 476 151 472 q 159 484 159 480 l 159 732 q 158 752 159 745 q 152 763 157 759 q 144 766 150 765 q 128 768 139 768 q 101 765 118 768 q 60 759 85 763 l 52 781 q 90 792 67 785 q 135 806 112 799 q 179 822 158 814 q 211 837 199 831 l 225 825 l 225 484 q 228 477 225 480 q 240 469 231 473 q 267 461 250 465 q 313 455 285 457 l 313 432 l 64 432 m 209 1 q 179 -10 193 -5 q 147 -20 165 -15 l 131 0 l 637 815 q 666 827 650 820 q 696 837 681 833 l 713 818 l 209 1 "},"Ḿ":{"x_min":40,"x_max":1043,"ha":1097,"o":"m 1030 825 q 988 818 1010 825 q 944 800 966 812 l 944 70 q 969 50 944 62 q 1043 29 995 38 l 1043 0 l 741 0 l 741 29 q 813 49 786 38 q 840 70 840 61 l 840 705 l 546 0 l 514 0 l 216 700 l 216 70 q 238 50 216 62 q 309 29 261 38 l 309 0 l 40 0 l 40 29 q 112 49 85 38 q 140 70 140 61 l 140 797 q 90 818 115 812 q 46 825 66 825 l 46 854 l 236 854 q 248 851 243 854 q 257 843 252 849 q 266 826 261 837 q 279 797 271 815 l 543 185 l 797 797 q 811 828 806 817 q 821 845 816 840 q 829 852 825 851 q 840 854 834 854 l 1030 854 l 1030 825 m 453 926 q 437 937 442 931 q 423 957 432 944 l 681 1172 q 699 1161 687 1167 q 722 1147 710 1155 q 744 1134 734 1140 q 759 1121 754 1127 l 765 1091 l 453 926 "},"Ĳ":{"x_min":47,"x_max":775,"ha":822,"o":"m 47 0 l 47 29 q 118 49 92 38 q 144 70 144 61 l 144 782 q 119 803 144 790 q 47 824 95 815 l 47 854 l 346 854 l 346 824 q 275 803 301 815 q 250 782 250 792 l 250 70 q 274 50 250 62 q 346 29 298 38 l 346 0 l 47 0 m 775 824 q 703 803 729 815 q 678 782 678 792 l 678 138 q 667 4 678 58 q 637 -86 656 -49 q 595 -149 619 -124 q 546 -195 571 -173 q 506 -222 528 -210 q 463 -241 484 -233 q 421 -253 441 -249 q 389 -258 402 -258 q 349 -251 369 -258 q 314 -236 329 -245 q 289 -218 299 -228 q 280 -203 280 -209 q 288 -187 280 -198 q 309 -167 297 -177 q 334 -148 321 -157 q 356 -135 347 -138 q 389 -155 375 -147 q 415 -167 403 -163 q 438 -172 427 -171 q 461 -174 449 -174 q 498 -162 479 -174 q 534 -121 518 -150 q 561 -40 550 -92 q 572 90 572 11 l 572 782 q 566 791 572 786 q 547 801 561 796 q 507 812 532 807 q 443 824 482 818 l 443 854 l 775 854 l 775 824 "},"Ê":{"x_min":33,"x_max":633.859375,"ha":675,"o":"m 633 165 q 620 63 628 107 q 606 0 611 19 l 33 0 l 33 29 q 104 49 78 38 q 130 70 130 61 l 130 782 q 105 803 130 790 q 33 824 81 815 l 33 854 l 568 854 l 590 837 q 587 798 590 819 q 580 756 584 777 q 571 716 576 735 q 563 684 567 697 l 533 684 q 528 736 533 715 q 517 770 524 757 q 501 787 511 782 q 479 793 491 793 l 236 793 l 236 498 l 505 498 l 522 479 q 509 458 517 469 q 493 437 501 447 q 476 417 485 426 q 461 403 468 409 q 439 420 451 413 q 413 432 428 427 q 377 438 398 436 q 329 441 357 441 l 236 441 l 236 104 q 240 86 236 94 q 259 72 245 78 q 301 64 274 67 q 371 61 327 61 l 457 61 q 509 64 487 61 q 547 79 530 67 q 577 114 564 91 q 605 177 591 137 l 633 165 m 543 957 q 531 938 535 944 q 515 926 526 932 l 333 1067 l 153 926 q 144 931 147 929 q 137 938 140 934 q 131 946 134 941 q 123 957 128 950 l 298 1166 l 369 1166 l 543 957 "},")":{"x_min":26.984375,"x_max":352,"ha":431,"o":"m 352 450 q 330 234 352 338 q 268 42 308 130 q 172 -110 228 -44 q 47 -213 116 -176 l 26 -183 q 108 -86 69 -146 q 175 51 146 -27 q 222 225 205 130 q 239 430 239 321 q 225 622 239 528 q 184 798 211 716 q 117 946 157 880 q 26 1054 78 1012 l 47 1085 q 179 987 122 1050 q 274 840 236 923 q 332 657 313 756 q 352 450 352 558 "},"Ṽ":{"x_min":13,"x_max":857,"ha":884,"o":"m 857 825 q 786 807 811 816 q 754 780 760 799 l 499 39 q 481 14 494 24 q 453 -3 468 3 q 423 -14 437 -10 q 399 -20 408 -18 l 107 780 q 77 808 100 797 q 13 825 54 819 l 13 854 l 302 854 l 302 823 q 229 813 248 823 q 216 783 209 803 l 451 137 l 675 780 q 659 809 682 799 q 581 825 635 818 l 581 854 l 857 854 l 857 825 m 668 1102 q 639 1047 656 1074 q 603 998 623 1020 q 558 963 582 977 q 509 950 534 950 q 464 961 485 950 q 423 988 443 973 q 384 1014 403 1002 q 345 1026 364 1026 q 296 1004 318 1026 q 250 944 274 982 l 214 958 q 243 1013 226 985 q 280 1062 259 1040 q 324 1097 300 1083 q 373 1111 348 1111 q 421 1099 399 1111 q 464 1073 444 1087 q 502 1046 484 1058 q 536 1035 520 1035 q 585 1056 561 1035 q 632 1117 610 1078 l 668 1102 "},"a":{"x_min":53,"x_max":615.6875,"ha":625,"o":"m 233 68 q 318 88 273 68 q 414 154 363 109 l 414 329 q 321 311 358 320 q 262 293 285 302 q 225 273 239 284 q 200 252 211 263 q 172 210 183 234 q 162 155 162 187 q 169 111 162 128 q 189 84 177 94 q 212 71 200 74 q 233 68 225 68 m 615 55 q 522 -2 559 15 q 466 -21 485 -21 q 429 10 444 -21 q 415 97 415 41 q 354 44 384 66 q 295 7 324 21 q 241 -14 267 -7 q 194 -21 215 -21 q 145 -12 170 -21 q 99 12 120 -4 q 66 58 79 30 q 53 125 53 86 q 70 211 53 177 q 112 271 88 246 q 149 302 128 288 q 202 330 169 317 q 287 356 236 344 q 414 380 337 368 l 414 475 q 408 518 414 498 q 390 552 403 538 q 356 575 378 567 q 302 583 334 583 q 260 576 281 583 q 224 557 239 569 q 200 527 209 544 q 193 490 191 511 q 180 476 194 484 q 146 463 166 469 q 107 453 126 456 q 80 452 88 450 l 71 478 q 118 543 86 512 q 189 598 149 575 q 274 636 229 622 q 361 651 319 651 q 474 611 434 651 q 514 503 514 572 l 514 120 q 521 80 514 92 q 540 68 528 68 q 564 71 549 68 q 605 86 579 74 l 615 55 "},"Ɲ":{"x_min":-163,"x_max":850,"ha":883,"o":"m 754 -21 q 701 -7 720 -16 q 674 13 682 2 l 209 672 l 209 138 q 202 3 209 57 q 181 -87 195 -50 q 148 -149 168 -124 q 102 -195 128 -174 q 63 -221 85 -210 q 19 -241 41 -233 q -21 -253 -1 -249 q -53 -258 -40 -258 q -93 -251 -73 -258 q -128 -236 -113 -245 q -153 -219 -143 -228 q -163 -203 -163 -210 q -154 -188 -163 -198 q -133 -168 -145 -178 q -108 -148 -122 -157 q -86 -136 -95 -139 q -53 -156 -67 -148 q -27 -168 -39 -164 q -4 -173 -15 -172 q 18 -175 6 -175 q 55 -163 35 -175 q 91 -122 75 -151 q 118 -41 107 -92 q 129 89 129 10 l 129 778 q 82 809 106 799 q 32 824 58 820 l 32 854 l 173 854 q 189 852 183 854 q 202 845 196 850 q 216 829 208 839 q 237 801 224 818 l 674 186 l 674 782 q 652 804 674 790 q 577 824 630 817 l 577 854 l 850 854 l 850 824 q 778 805 802 818 q 754 782 754 792 l 754 -21 "},"Z":{"x_min":39.578125,"x_max":655,"ha":712,"o":"m 655 198 q 655 150 655 177 q 655 97 655 124 q 655 45 655 70 q 655 0 655 19 l 58 0 l 39 30 l 512 787 l 207 787 q 183 779 196 787 q 159 755 171 772 q 136 714 147 739 q 118 653 125 688 l 80 661 l 100 865 q 132 858 118 861 q 162 855 147 855 q 191 855 176 855 l 635 855 l 652 825 l 183 68 l 531 68 q 556 74 545 68 q 578 96 567 80 q 599 139 588 112 q 622 208 609 166 l 655 198 "},"":{"x_min":53,"x_max":866.8125,"ha":701,"o":"m 323 68 q 368 77 346 68 q 411 102 390 86 q 453 137 432 117 q 495 177 474 156 l 495 495 q 433 555 473 533 q 345 576 393 576 q 273 560 308 576 q 212 512 239 544 q 169 433 185 480 q 153 322 153 385 q 169 217 153 264 q 210 137 185 170 q 266 85 236 103 q 323 68 296 68 m 495 112 q 445 57 469 81 q 394 15 420 32 q 339 -10 368 -1 q 276 -20 310 -20 q 199 2 239 -20 q 127 65 160 24 q 73 166 94 106 q 53 301 53 226 q 71 411 53 360 q 117 500 90 461 q 174 566 144 539 q 228 606 205 593 q 303 639 266 628 q 366 651 340 651 q 401 648 384 651 q 438 639 419 646 q 477 620 457 632 q 519 587 497 608 q 540 602 529 594 q 561 619 551 610 q 580 636 571 627 q 595 651 589 644 l 615 630 q 604 589 609 611 q 597 543 600 569 q 595 486 595 516 l 595 -112 q 613 -232 595 -190 q 679 -275 631 -275 q 707 -268 694 -275 q 729 -252 720 -262 q 744 -230 739 -243 q 750 -205 750 -218 q 742 -177 750 -190 q 762 -162 748 -171 q 793 -147 776 -154 q 827 -137 810 -141 q 853 -133 844 -133 l 866 -160 q 847 -219 866 -188 q 796 -277 828 -250 q 720 -321 763 -303 q 630 -339 677 -339 q 563 -323 589 -339 q 522 -283 537 -308 q 500 -224 506 -257 q 495 -154 495 -190 l 495 112 "},"k":{"x_min":37,"x_max":681.265625,"ha":681,"o":"m 37 1 l 37 29 q 105 49 80 41 q 130 70 130 58 l 130 879 q 126 927 130 910 q 112 952 122 944 q 83 963 102 961 q 37 970 65 966 l 37 997 q 127 1019 82 1006 q 205 1051 171 1031 l 230 1028 l 230 359 l 434 542 q 461 573 456 561 q 459 591 465 585 q 438 599 453 597 q 406 602 423 602 l 406 631 l 658 631 l 658 602 q 604 590 628 598 q 551 559 579 583 l 324 374 l 574 75 q 594 56 584 64 q 616 45 604 49 q 643 41 628 41 q 677 41 658 41 l 681 13 q 643 4 661 8 q 607 -1 624 1 q 578 -4 591 -3 q 558 -6 565 -6 q 514 2 531 -6 q 482 29 497 10 l 230 354 l 230 70 q 232 61 230 65 q 241 52 234 57 q 263 43 249 48 q 303 29 278 37 l 303 1 l 37 1 "},"Ù":{"x_min":33,"x_max":847,"ha":890,"o":"m 847 825 q 776 804 801 816 q 751 783 751 793 l 751 355 q 729 197 751 266 q 668 79 708 127 q 571 5 628 30 q 442 -20 514 -20 q 316 0 374 -20 q 218 58 259 18 q 153 158 176 98 q 130 301 130 218 l 130 783 q 105 804 130 791 q 33 825 81 816 l 33 855 l 332 855 l 332 825 q 261 804 286 816 q 236 783 236 793 l 236 335 q 250 218 236 270 q 295 131 265 167 q 368 76 325 95 q 468 58 411 58 q 552 81 516 58 q 614 142 589 104 q 652 229 639 180 q 665 327 665 277 l 665 783 q 640 804 665 791 q 568 825 616 816 l 568 855 l 847 855 l 847 825 m 567 958 q 553 938 558 945 q 537 927 548 932 l 226 1092 l 231 1122 q 246 1135 236 1128 q 268 1148 256 1141 q 291 1162 280 1156 q 310 1173 302 1168 l 567 958 "},"Ů":{"x_min":33,"x_max":847,"ha":890,"o":"m 847 825 q 776 804 801 816 q 751 783 751 793 l 751 355 q 729 197 751 266 q 668 79 708 127 q 571 5 628 30 q 442 -20 514 -20 q 316 0 374 -20 q 218 58 259 18 q 153 158 176 98 q 130 301 130 218 l 130 783 q 105 804 130 791 q 33 825 81 816 l 33 855 l 332 855 l 332 825 q 261 804 286 816 q 236 783 236 793 l 236 335 q 250 218 236 270 q 295 131 265 167 q 368 76 325 95 q 468 58 411 58 q 552 81 516 58 q 614 142 589 104 q 652 229 639 180 q 665 327 665 277 l 665 783 q 640 804 665 791 q 568 825 615 816 l 568 855 l 847 855 l 847 825 m 513 1060 q 509 1091 513 1076 q 497 1117 505 1106 q 479 1135 490 1128 q 456 1142 469 1142 q 429 1136 442 1142 q 407 1120 417 1130 q 391 1094 397 1109 q 386 1061 386 1079 q 389 1031 386 1045 q 401 1005 393 1016 q 419 987 408 994 q 442 981 429 981 q 468 986 456 981 q 491 1001 481 991 q 507 1025 501 1011 q 513 1060 513 1040 m 573 1088 q 560 1024 573 1053 q 526 974 547 995 q 479 940 505 952 q 428 929 454 929 q 387 937 406 929 q 354 959 368 945 q 333 992 341 973 q 326 1033 326 1011 q 338 1097 326 1068 q 372 1148 351 1127 q 418 1182 393 1170 q 470 1194 444 1194 q 510 1185 491 1194 q 543 1162 529 1177 q 565 1128 557 1147 q 573 1088 573 1109 "},"¢":{"x_min":69,"x_max":573.71875,"ha":638,"o":"m 170 417 q 181 331 170 370 q 212 264 192 293 q 258 215 231 234 q 315 186 284 196 l 315 655 q 259 632 285 649 q 213 585 232 615 q 181 515 193 556 q 170 417 170 473 m 375 -5 q 364 -14 369 -11 q 355 -19 359 -17 q 345 -23 351 -21 q 331 -27 339 -25 l 315 -11 l 315 88 q 223 109 267 88 q 145 169 179 130 q 89 265 110 208 q 69 396 69 322 q 87 509 69 456 q 137 604 105 562 q 215 675 170 646 q 315 719 261 705 l 315 823 q 328 832 324 829 q 335 837 332 835 q 343 840 338 838 q 357 844 347 841 l 375 829 l 375 730 q 390 731 382 731 q 407 731 398 731 q 452 727 429 731 q 496 716 475 723 q 535 699 517 709 q 564 677 553 690 q 562 655 565 670 q 553 623 559 640 q 539 592 547 607 q 526 568 532 577 l 503 575 q 486 598 497 585 q 461 623 476 611 q 424 643 445 634 q 375 656 402 653 l 375 178 q 408 179 392 178 q 443 189 424 181 q 487 215 462 198 q 547 265 511 233 l 573 237 q 512 169 539 196 q 461 125 485 142 q 417 100 438 109 q 375 90 396 92 l 375 -5 "},"Ɂ":{"x_min":27,"x_max":592,"ha":632,"o":"m 153 0 l 153 29 q 237 49 211 39 q 263 70 263 59 l 263 268 q 279 354 263 317 q 320 421 296 391 q 374 475 345 450 q 427 525 403 500 q 469 576 452 549 q 486 637 486 603 q 435 764 486 721 q 295 807 385 807 q 233 794 261 807 q 185 760 205 781 q 154 714 165 740 q 143 661 143 688 q 145 633 143 646 q 153 608 147 621 q 105 592 132 597 q 49 583 79 586 l 31 603 q 28 619 30 608 q 27 639 27 629 q 52 730 27 687 q 121 805 78 773 q 223 855 165 836 q 347 875 281 875 q 451 860 405 875 q 528 819 497 845 q 575 753 559 792 q 592 668 592 715 q 575 582 592 617 q 534 520 558 547 q 480 472 509 494 q 427 427 451 450 q 385 376 402 404 q 369 308 369 348 l 369 70 q 396 49 369 60 q 479 29 424 38 l 479 0 l 153 0 "},"ē":{"x_min":53,"x_max":575,"ha":628,"o":"m 329 580 q 266 566 294 580 q 215 528 237 552 q 177 469 192 503 q 156 394 162 435 l 440 394 q 461 399 456 394 q 466 418 466 404 q 461 464 466 436 q 441 517 456 491 q 399 561 426 543 q 329 580 372 580 m 575 378 q 543 353 563 364 q 501 333 523 341 l 153 333 q 166 232 153 280 q 205 147 180 184 q 267 89 231 111 q 349 68 303 68 q 389 70 369 68 q 431 82 408 73 q 481 110 454 92 q 546 160 509 129 q 561 146 555 155 q 571 132 567 137 q 492 52 526 83 q 429 6 459 22 q 371 -14 400 -9 q 308 -20 342 -20 q 211 2 257 -20 q 130 65 165 24 q 73 164 94 106 q 53 294 53 222 q 62 384 53 339 q 91 467 72 428 q 138 539 110 506 q 200 597 165 573 q 232 617 214 607 q 271 634 251 627 q 310 646 290 642 q 348 651 330 651 q 425 638 391 651 q 484 606 458 626 q 526 557 509 585 q 554 500 543 530 q 570 438 565 469 q 575 378 575 406 m 569 868 q 565 851 568 861 q 557 831 561 841 q 550 812 553 822 q 543 797 546 803 l 135 797 l 121 813 q 125 830 122 821 q 133 850 129 840 q 141 869 137 859 q 148 885 145 878 l 555 885 l 569 868 "},"Ẹ":{"x_min":33,"x_max":633.859375,"ha":675,"o":"m 633 165 q 620 63 628 107 q 606 0 611 19 l 33 0 l 33 29 q 104 49 78 38 q 130 70 130 61 l 130 783 q 105 804 130 791 q 33 825 81 816 l 33 855 l 568 855 l 590 838 q 587 799 590 820 q 580 757 584 778 q 571 717 576 736 q 563 685 567 698 l 533 685 q 528 737 533 716 q 517 771 524 758 q 501 788 511 783 q 479 794 491 794 l 236 794 l 236 499 l 505 499 l 522 480 q 509 459 517 470 q 493 438 501 448 q 476 418 485 427 q 461 404 468 410 q 439 421 451 414 q 413 433 427 428 q 377 439 398 437 q 329 442 357 442 l 236 442 l 236 104 q 240 86 236 94 q 259 72 245 78 q 301 64 274 67 q 371 61 327 61 l 457 61 q 509 64 487 61 q 547 79 530 67 q 577 114 564 91 q 605 177 591 137 l 633 165 m 400 -189 q 394 -225 400 -208 q 377 -254 388 -242 q 353 -274 367 -267 q 322 -282 339 -282 q 279 -265 292 -282 q 267 -217 267 -248 q 272 -181 267 -198 q 289 -151 278 -164 q 313 -132 300 -139 q 343 -125 327 -125 q 400 -189 400 -125 "},"≠":{"x_min":40.546875,"x_max":556.9375,"ha":597,"o":"m 433 519 l 540 519 l 556 502 q 547 472 553 488 q 537 444 541 455 l 387 444 l 307 315 l 540 315 l 556 298 q 547 269 553 284 q 537 241 541 253 l 261 241 l 176 101 q 158 92 170 97 q 133 82 146 87 q 107 74 120 78 q 86 67 94 70 l 70 91 l 162 241 l 57 241 l 40 259 q 49 287 43 272 q 61 315 55 302 l 208 315 l 287 444 l 57 444 l 40 461 q 49 490 43 474 q 61 519 55 506 l 332 519 l 419 659 q 462 679 437 670 q 507 692 487 687 l 527 670 l 433 519 "},"¥":{"x_min":-44.375,"x_max":663,"ha":638,"o":"m 157 0 l 157 29 q 241 55 217 42 q 266 78 266 68 l 266 296 l 85 296 l 70 313 q 77 335 73 323 q 85 358 81 347 l 266 358 l 266 393 q 217 493 242 443 q 166 588 192 542 q 115 673 140 634 q 67 742 89 713 q 53 756 61 750 q 34 768 46 763 q 4 776 22 773 q -41 780 -13 780 l -44 809 q 34 819 -5 814 q 101 823 73 823 q 153 797 131 823 q 200 730 177 764 q 243 657 222 695 q 286 577 265 619 q 331 486 308 534 l 474 742 q 467 770 484 760 q 400 787 451 780 l 400 817 l 663 817 l 663 787 q 593 769 618 778 q 559 742 569 760 l 372 392 l 372 358 l 552 358 l 569 342 l 552 296 l 372 296 l 372 78 q 377 68 372 74 q 396 55 383 62 q 430 42 409 49 q 483 29 451 35 l 483 0 l 157 0 "},"Ƚ":{"x_min":29.015625,"x_max":627.09375,"ha":648,"o":"m 627 165 q 613 63 621 106 q 599 0 605 19 l 33 0 l 33 29 q 104 49 78 38 q 130 70 130 61 l 130 364 l 43 364 l 29 380 q 36 402 32 391 q 43 425 39 414 l 130 425 l 130 783 q 105 803 130 791 q 33 825 81 815 l 33 854 l 332 854 l 332 825 q 261 804 286 815 q 236 783 236 792 l 236 425 l 395 425 l 411 409 l 395 364 l 236 364 l 236 111 q 241 89 236 98 q 261 74 247 80 q 299 64 275 67 q 359 61 322 61 l 454 61 q 505 64 484 61 q 542 79 526 67 q 571 114 558 91 q 598 177 584 137 l 627 165 "},"Ĥ":{"x_min":33,"x_max":844,"ha":890,"o":"m 33 0 l 33 29 q 104 49 78 38 q 130 70 130 60 l 130 783 q 105 803 130 791 q 33 825 81 815 l 33 854 l 332 854 l 332 825 q 261 804 286 815 q 236 783 236 792 l 236 478 l 641 478 l 641 783 q 617 803 641 791 q 545 825 592 815 l 545 854 l 844 854 l 844 825 q 772 804 798 815 q 747 783 747 792 l 747 70 q 771 50 747 62 q 844 29 795 38 l 844 0 l 545 0 l 545 29 q 615 49 590 38 q 641 70 641 60 l 641 417 l 236 417 l 236 70 q 259 50 236 62 q 332 29 283 38 l 332 0 l 33 0 m 648 957 q 636 938 640 944 q 620 926 631 932 l 437 1067 l 257 926 q 248 932 252 929 q 242 938 245 935 q 236 946 239 941 q 228 957 232 951 l 403 1166 l 474 1166 l 648 957 "},"U":{"x_min":33,"x_max":847,"ha":890,"o":"m 847 825 q 776 804 801 816 q 751 783 751 793 l 751 355 q 729 197 751 266 q 668 79 708 127 q 571 5 628 30 q 442 -20 514 -20 q 316 0 374 -20 q 218 58 259 18 q 153 158 176 98 q 130 301 130 218 l 130 783 q 105 804 130 791 q 33 825 81 816 l 33 855 l 332 855 l 332 825 q 261 804 286 816 q 236 783 236 793 l 236 335 q 250 218 236 270 q 295 131 265 167 q 368 76 325 95 q 468 58 411 58 q 552 81 516 58 q 614 142 589 104 q 652 229 639 180 q 665 327 665 277 l 665 783 q 640 804 665 791 q 568 825 616 816 l 568 855 l 847 855 l 847 825 "},"Ñ":{"x_min":33,"x_max":851,"ha":884,"o":"m 33 0 l 33 29 q 105 48 82 35 q 129 70 129 61 l 129 778 q 83 810 107 799 q 33 824 58 820 l 33 854 l 173 854 q 190 852 183 854 q 203 845 196 850 q 217 829 209 839 q 237 801 224 818 l 674 187 l 674 782 q 652 804 674 790 q 578 824 630 817 l 578 854 l 851 854 l 851 824 q 778 805 802 818 q 754 782 754 792 l 754 -20 q 701 -6 720 -16 q 674 14 682 2 l 209 673 l 209 70 q 231 49 209 62 q 305 29 253 36 l 305 0 l 33 0 m 668 1103 q 639 1048 656 1075 q 602 999 622 1020 q 558 963 582 977 q 508 950 534 950 q 464 961 485 950 q 423 988 443 973 q 383 1015 403 1003 q 345 1027 364 1027 q 296 1004 318 1027 q 250 944 274 982 l 214 958 q 243 1013 226 986 q 280 1062 259 1041 q 324 1098 300 1084 q 373 1112 347 1112 q 421 1100 398 1112 q 464 1073 444 1088 q 502 1046 484 1058 q 535 1035 520 1035 q 585 1056 561 1035 q 632 1118 609 1078 l 668 1103 "},"F":{"x_min":33,"x_max":595,"ha":650,"o":"m 33 0 l 33 28 q 104 49 78 38 q 130 70 130 60 l 130 782 q 105 803 130 790 q 33 824 81 815 l 33 854 l 575 854 l 595 837 q 592 798 595 819 q 586 756 589 777 q 578 716 582 735 q 569 684 573 697 l 538 684 q 534 736 538 715 q 523 770 530 757 q 507 787 516 782 q 484 793 497 793 l 236 793 l 236 498 l 484 498 l 503 479 q 489 458 497 469 q 472 437 481 447 q 455 417 464 426 q 441 403 447 409 q 419 420 431 413 q 393 432 408 427 q 358 438 378 436 q 310 441 338 441 l 236 441 l 236 70 q 261 51 236 61 q 352 28 287 41 l 352 0 l 33 0 "},"ả":{"x_min":53,"x_max":615.6875,"ha":625,"o":"m 233 68 q 318 88 273 68 q 414 154 363 109 l 414 329 q 321 311 358 320 q 262 293 285 302 q 225 273 239 284 q 200 252 211 263 q 172 210 183 234 q 162 155 162 187 q 169 111 162 128 q 189 84 177 94 q 212 71 200 74 q 233 68 225 68 m 615 55 q 522 -2 559 15 q 466 -21 485 -21 q 429 10 444 -21 q 415 97 415 41 q 354 44 384 66 q 295 7 324 21 q 241 -14 267 -7 q 194 -21 215 -21 q 145 -12 170 -21 q 99 12 120 -4 q 66 58 79 30 q 53 125 53 86 q 70 211 53 177 q 112 271 88 246 q 148 302 128 288 q 202 330 169 317 q 286 356 236 344 q 414 380 337 368 l 414 475 q 408 518 414 498 q 390 552 403 538 q 356 575 378 567 q 302 583 334 583 q 260 576 281 583 q 224 557 239 569 q 200 527 209 544 q 194 490 192 511 q 180 476 194 484 q 146 463 166 469 q 107 453 126 456 q 80 452 88 450 l 71 478 q 118 543 86 512 q 189 598 149 575 q 274 636 229 622 q 361 651 319 651 q 474 611 434 651 q 514 503 514 572 l 514 120 q 521 80 514 92 q 540 68 528 68 q 564 71 549 68 q 605 86 579 74 l 615 55 m 430 904 q 417 870 430 885 q 389 842 405 855 q 357 817 372 829 q 334 793 341 805 q 333 766 326 780 q 367 736 339 753 q 347 728 357 729 q 326 725 336 726 q 282 753 296 740 q 265 776 268 765 q 268 796 262 787 q 286 815 274 806 q 311 833 297 824 q 337 851 325 842 q 357 871 349 861 q 366 894 366 882 q 353 933 366 920 q 321 946 340 946 q 303 942 311 946 q 288 932 294 938 q 279 918 282 926 q 276 903 276 911 q 277 896 276 900 q 281 889 279 893 q 267 885 276 887 q 249 880 259 882 q 231 877 240 878 q 215 874 221 875 l 208 882 l 208 891 q 220 923 208 907 q 252 951 233 938 q 296 971 272 963 q 343 979 320 979 q 407 958 384 979 q 430 904 430 938 "},"ʔ":{"x_min":40,"x_max":565,"ha":592,"o":"m 133 0 l 133 29 q 246 70 246 49 l 246 336 q 262 432 246 388 q 302 513 278 475 q 355 585 327 551 q 408 652 384 619 q 448 720 432 685 q 465 793 465 755 q 451 870 465 835 q 413 932 437 906 q 357 972 389 957 q 288 987 325 987 q 236 973 261 987 q 192 939 212 960 q 160 891 172 917 q 149 838 149 864 q 151 818 149 829 q 156 799 153 808 q 112 782 135 787 q 59 773 89 776 l 41 793 q 40 804 40 799 l 40 816 q 65 906 40 863 q 132 981 90 949 q 228 1032 174 1013 q 340 1051 282 1051 q 433 1033 391 1051 q 503 984 474 1015 q 549 912 533 954 q 565 824 565 871 q 548 733 565 773 q 508 660 532 693 q 455 595 483 626 q 402 530 427 563 q 362 460 378 498 q 346 376 346 423 l 346 70 q 375 49 346 60 q 459 29 404 38 l 459 0 l 133 0 "},"ờ":{"x_min":53,"x_max":731,"ha":731,"o":"m 528 309 q 510 411 528 362 q 466 496 493 459 q 404 555 438 533 q 336 577 369 577 q 251 557 285 577 q 195 503 216 537 q 165 422 174 469 q 156 321 156 375 q 174 219 156 267 q 221 133 193 170 q 283 75 249 97 q 347 54 317 54 q 429 72 395 54 q 484 123 462 90 q 517 203 506 157 q 528 309 528 250 m 731 707 q 723 670 731 690 q 699 626 716 649 q 652 577 681 602 q 578 527 622 551 q 617 436 604 486 q 631 329 631 387 q 619 240 631 283 q 588 158 608 197 q 540 86 568 119 q 479 30 512 53 q 407 -6 445 6 q 329 -20 369 -20 q 215 4 266 -20 q 128 71 164 28 q 72 173 92 114 q 53 301 53 232 q 63 389 53 346 q 94 472 74 433 q 141 544 114 511 q 202 600 169 576 q 275 638 236 624 q 355 651 314 651 q 465 628 415 651 q 550 565 514 606 q 601 612 585 589 q 617 652 617 635 q 606 689 617 671 q 578 722 596 707 l 696 777 q 721 744 711 762 q 731 707 731 726 m 431 731 q 413 718 422 723 q 393 710 405 713 l 160 966 l 174 994 q 194 998 181 996 q 221 1003 207 1000 q 249 1007 235 1006 q 271 1010 263 1009 l 431 731 "},"̿":{"x_min":-683.21875,"x_max":42.53125,"ha":0,"o":"m 42 1051 q 37 1034 41 1044 q 30 1014 34 1024 q 22 995 26 1005 q 16 980 19 986 l -668 980 l -683 996 q -678 1013 -681 1004 q -671 1033 -675 1023 q -663 1052 -667 1042 q -655 1068 -659 1061 l 27 1068 l 42 1051 m 42 868 q 37 851 41 861 q 30 831 34 841 q 22 812 26 822 q 16 797 19 803 l -668 797 l -683 813 q -678 830 -681 821 q -671 850 -675 840 q -663 869 -667 859 q -655 885 -659 878 l 27 885 l 42 868 "},"å":{"x_min":53,"x_max":615.6875,"ha":625,"o":"m 233 68 q 318 88 273 68 q 414 154 363 109 l 414 329 q 321 311 358 320 q 262 293 285 302 q 225 273 239 284 q 200 252 211 263 q 172 210 183 234 q 162 155 162 187 q 169 111 162 128 q 189 84 177 94 q 212 71 200 74 q 233 68 225 68 m 615 55 q 522 -2 559 15 q 466 -21 485 -21 q 429 10 444 -21 q 415 97 415 41 q 354 44 384 66 q 295 7 324 21 q 241 -14 267 -7 q 194 -21 216 -21 q 145 -12 170 -21 q 99 12 120 -4 q 66 58 79 30 q 53 125 53 86 q 70 211 53 177 q 112 271 88 246 q 149 302 128 288 q 202 330 169 317 q 287 356 236 344 q 414 380 337 368 l 414 475 q 408 518 414 498 q 390 552 403 538 q 356 575 378 567 q 302 583 334 583 q 260 576 280 583 q 224 557 239 569 q 200 527 209 544 q 193 490 191 511 q 180 476 194 484 q 146 463 165 469 q 107 453 126 456 q 80 452 88 450 l 71 478 q 118 543 86 512 q 189 598 149 575 q 274 636 229 622 q 361 651 319 651 q 474 611 434 651 q 514 503 514 572 l 514 120 q 521 80 514 92 q 540 68 528 68 q 564 71 549 68 q 605 86 579 74 l 615 55 m 383 843 q 379 874 383 859 q 367 900 375 889 q 349 918 360 911 q 325 925 339 925 q 299 919 311 925 q 276 903 286 913 q 261 877 267 892 q 255 844 255 862 q 259 814 255 828 q 270 788 263 799 q 288 770 277 777 q 312 764 299 764 q 338 769 325 764 q 361 784 351 774 q 377 808 371 794 q 383 843 383 823 m 443 870 q 430 807 443 836 q 396 757 417 778 q 349 723 375 735 q 298 712 323 712 q 256 720 275 712 q 224 742 237 728 q 202 775 210 756 q 195 816 195 794 q 208 880 195 851 q 241 931 221 910 q 287 965 262 953 q 339 977 313 977 q 380 968 361 977 q 413 945 399 960 q 435 911 427 930 q 443 870 443 892 "},"0":{"x_min":51,"x_max":589,"ha":640,"o":"m 480 383 q 465 547 480 476 q 427 664 451 617 q 372 735 403 711 q 307 760 340 760 q 245 741 273 760 q 199 683 218 722 q 170 583 180 644 q 160 437 160 522 q 173 273 160 344 q 209 154 186 202 q 264 82 232 106 q 332 58 295 58 q 394 76 367 58 q 441 134 422 95 q 470 236 460 174 q 480 383 480 297 m 589 408 q 568 243 589 321 q 511 106 548 165 q 422 14 474 48 q 307 -20 370 -20 q 195 14 243 -20 q 115 106 148 48 q 67 243 83 165 q 51 408 51 321 q 71 574 51 496 q 129 710 92 652 q 217 803 166 769 q 332 838 269 838 q 444 804 396 838 q 524 711 491 770 q 572 575 556 653 q 589 408 589 496 "},"ɋ":{"x_min":53,"x_max":866.8125,"ha":701,"o":"m 323 68 q 368 77 346 68 q 411 102 390 86 q 453 137 432 117 q 495 177 474 156 l 495 495 q 433 555 473 533 q 345 576 393 576 q 273 560 308 576 q 212 512 239 544 q 169 433 185 480 q 153 322 153 385 q 169 217 153 264 q 210 137 185 170 q 266 85 236 103 q 323 68 296 68 m 495 112 q 445 57 469 81 q 394 15 420 32 q 339 -10 368 -1 q 276 -20 310 -20 q 199 2 239 -20 q 127 65 160 24 q 73 166 94 106 q 53 301 53 226 q 71 411 53 360 q 117 500 90 461 q 174 566 144 539 q 228 606 205 593 q 303 639 266 628 q 366 651 340 651 q 401 648 384 651 q 438 639 419 646 q 477 620 457 632 q 519 587 497 608 q 540 602 529 594 q 561 619 551 610 q 580 636 571 627 q 595 651 589 644 l 615 630 q 604 589 609 611 q 597 543 600 569 q 595 486 595 516 l 595 -112 q 613 -232 595 -190 q 679 -275 631 -275 q 707 -268 694 -275 q 729 -252 720 -262 q 744 -230 739 -243 q 750 -205 750 -218 q 742 -177 750 -190 q 762 -162 748 -171 q 793 -147 776 -154 q 827 -137 810 -141 q 853 -133 844 -133 l 866 -160 q 847 -219 866 -188 q 796 -277 828 -250 q 720 -321 763 -303 q 630 -339 677 -339 q 563 -323 589 -339 q 522 -283 537 -308 q 500 -224 506 -257 q 495 -154 495 -190 l 495 112 "},"ō":{"x_min":53,"x_max":631.015625,"ha":684,"o":"m 528 309 q 510 411 528 362 q 466 496 493 459 q 404 555 438 533 q 336 577 369 577 q 251 557 285 577 q 195 503 216 537 q 165 422 174 469 q 156 321 156 375 q 174 219 156 267 q 221 133 193 170 q 283 75 249 97 q 347 54 317 54 q 429 72 395 54 q 484 123 462 90 q 517 203 506 157 q 528 309 528 250 m 631 329 q 619 240 631 283 q 588 158 608 197 q 540 86 568 119 q 479 30 512 53 q 407 -6 445 6 q 329 -20 369 -20 q 215 4 266 -20 q 128 71 164 28 q 72 173 92 114 q 53 301 53 232 q 63 389 53 346 q 94 472 74 433 q 141 544 114 511 q 202 600 169 576 q 275 638 236 624 q 355 651 314 651 q 468 627 417 651 q 555 559 519 602 q 611 457 591 516 q 631 329 631 398 m 586 868 q 581 851 585 861 q 574 831 578 841 q 566 812 570 822 q 560 797 563 803 l 152 797 l 137 813 q 142 830 138 821 q 149 850 145 840 q 157 869 153 859 q 164 885 161 878 l 571 885 l 586 868 "},"”":{"x_min":58.59375,"x_max":531,"ha":593,"o":"m 251 878 q 242 821 251 852 q 215 760 233 790 q 173 701 198 729 q 117 652 149 673 l 87 676 q 111 709 101 690 q 129 748 122 729 q 139 785 136 767 q 143 816 143 803 q 125 870 143 847 q 69 893 107 893 l 58 924 q 83 943 64 932 q 126 963 103 953 q 171 979 149 973 q 205 986 193 986 q 239 941 227 964 q 251 878 251 917 m 531 878 q 522 821 531 852 q 495 760 513 790 q 454 701 478 729 q 397 652 429 673 l 369 676 q 393 709 383 690 q 410 748 403 729 q 421 785 417 767 q 425 816 425 803 q 406 870 425 847 q 349 893 387 893 l 339 924 q 363 943 344 932 q 406 963 383 953 q 451 979 429 973 q 485 986 474 986 q 519 941 507 964 q 531 878 531 917 "},"ḕ":{"x_min":53,"x_max":575,"ha":628,"o":"m 329 580 q 266 566 294 580 q 215 528 237 552 q 177 469 192 503 q 156 394 162 435 l 440 394 q 461 399 456 394 q 466 418 466 404 q 461 464 466 436 q 441 517 456 491 q 399 561 426 543 q 329 580 372 580 m 575 378 q 543 353 563 364 q 501 333 523 341 l 153 333 q 166 232 153 280 q 205 147 180 184 q 267 89 231 111 q 349 68 303 68 q 389 70 369 68 q 431 82 408 73 q 481 110 454 92 q 546 160 509 129 q 561 146 555 155 q 571 132 567 137 q 492 52 526 83 q 429 6 459 22 q 371 -14 400 -9 q 308 -20 342 -20 q 211 2 257 -20 q 130 65 165 24 q 73 164 94 106 q 53 294 53 222 q 62 384 53 339 q 91 467 72 428 q 138 539 110 506 q 200 597 165 573 q 232 617 214 607 q 271 634 251 627 q 310 646 290 642 q 348 651 330 651 q 425 638 391 651 q 484 606 458 626 q 526 557 509 585 q 554 500 543 530 q 570 438 565 469 q 575 378 575 406 m 569 868 q 565 851 568 861 q 557 831 561 841 q 550 812 553 822 q 543 797 546 803 l 135 797 l 121 813 q 125 830 122 821 q 133 850 129 840 q 141 869 137 859 q 148 885 145 878 l 555 885 l 569 868 m 414 975 q 397 962 405 967 q 377 954 388 957 l 143 1209 l 158 1237 q 177 1242 164 1239 q 205 1247 190 1244 q 233 1251 219 1249 q 255 1253 247 1253 l 414 975 "},"ö":{"x_min":53,"x_max":631.015625,"ha":684,"o":"m 528 309 q 510 411 528 362 q 466 496 493 459 q 404 555 438 533 q 336 577 369 577 q 251 557 285 577 q 195 503 216 537 q 165 422 174 469 q 156 321 156 375 q 174 219 156 267 q 221 133 193 170 q 283 75 249 97 q 347 54 317 54 q 429 72 395 54 q 484 123 462 90 q 517 203 506 157 q 528 309 528 250 m 631 329 q 619 240 631 283 q 588 158 608 197 q 540 86 568 119 q 479 30 512 53 q 407 -6 445 6 q 329 -20 369 -20 q 215 4 266 -20 q 128 71 164 28 q 72 173 92 114 q 53 301 53 232 q 63 389 53 346 q 94 472 74 433 q 141 544 114 511 q 202 600 169 576 q 275 638 236 624 q 355 651 314 651 q 468 627 417 651 q 555 559 519 602 q 611 457 591 516 q 631 329 631 398 m 555 855 q 549 819 555 836 q 532 790 543 802 q 508 770 522 777 q 477 763 494 763 q 434 779 447 763 q 422 827 422 796 q 427 863 422 846 q 444 893 433 880 q 468 912 455 905 q 498 920 482 920 q 555 855 555 920 m 289 855 q 283 819 289 836 q 266 790 277 802 q 242 770 256 777 q 211 763 228 763 q 168 779 181 763 q 156 827 156 796 q 161 863 156 846 q 178 893 167 880 q 202 912 189 905 q 232 920 216 920 q 289 855 289 920 "},"ẉ":{"x_min":13,"x_max":947,"ha":961,"o":"m 947 601 q 914 592 926 597 q 895 583 902 588 q 885 573 888 579 q 880 559 882 567 l 733 39 q 718 14 729 24 q 692 -3 706 3 q 664 -14 678 -10 q 642 -20 651 -18 l 483 439 l 347 39 q 331 13 342 24 q 307 -3 320 3 q 281 -14 294 -10 q 259 -20 268 -18 l 85 559 q 13 601 79 586 l 13 631 l 270 631 l 270 601 q 218 594 237 598 q 192 583 200 589 q 184 571 184 578 q 186 559 184 565 l 311 128 l 474 631 l 520 631 l 693 128 l 808 559 q 794 584 812 575 q 731 601 776 594 l 731 631 l 947 631 l 947 601 m 551 -189 q 545 -225 551 -208 q 528 -254 539 -242 q 504 -274 518 -267 q 473 -282 490 -282 q 430 -265 443 -282 q 418 -217 418 -248 q 423 -181 418 -198 q 440 -151 429 -164 q 464 -132 451 -139 q 494 -125 478 -125 q 551 -189 551 -125 "},"Ȧ":{"x_min":0,"x_max":796,"ha":810,"o":"m 504 363 l 387 711 l 272 363 l 504 363 m 252 302 l 179 75 q 197 45 172 54 q 276 29 221 35 l 276 0 l 0 0 l 0 29 q 71 46 45 37 q 104 75 98 55 l 352 838 q 390 869 367 855 q 430 893 413 883 l 709 75 q 718 58 712 66 q 734 45 724 51 q 759 36 744 40 q 796 29 774 32 l 796 0 l 516 0 l 516 31 q 587 41 567 31 q 600 75 607 52 l 524 302 l 252 302 m 465 1044 q 459 1008 465 1025 q 442 979 453 991 q 418 959 432 966 q 387 952 404 952 q 344 968 357 952 q 332 1016 332 985 q 337 1052 332 1035 q 354 1082 343 1069 q 378 1101 365 1094 q 408 1109 392 1109 q 465 1044 465 1109 "},"ć":{"x_min":53,"x_max":558.40625,"ha":595,"o":"m 558 129 q 482 47 515 76 q 421 2 449 17 q 366 -16 393 -12 q 309 -20 340 -20 q 214 2 260 -20 q 132 65 168 24 q 74 166 96 106 q 53 301 53 226 q 79 438 53 374 q 151 549 105 502 q 258 624 196 596 q 392 651 320 651 q 437 647 414 651 q 480 637 459 644 q 519 620 501 629 q 548 598 537 610 q 546 574 549 589 q 537 543 543 560 q 523 511 531 526 q 510 486 516 496 l 485 493 q 468 519 480 505 q 437 547 456 534 q 392 568 418 560 q 332 577 366 577 q 264 561 297 577 q 207 513 232 545 q 167 433 182 481 q 153 322 153 386 q 169 217 153 264 q 215 137 186 170 q 280 85 243 103 q 357 68 317 68 q 391 69 375 68 q 426 80 407 71 q 470 106 445 89 q 532 156 495 124 l 558 129 m 297 710 q 275 718 285 712 q 259 729 266 723 l 414 1010 q 435 1007 422 1009 q 463 1004 448 1006 q 490 999 477 1002 q 511 994 503 996 l 526 968 l 297 710 "},"þ":{"x_min":37,"x_max":669,"ha":722,"o":"m 579 276 q 565 397 579 343 q 529 488 551 450 q 476 546 506 526 q 414 566 446 566 q 383 558 402 566 q 339 533 364 551 q 287 486 315 515 q 230 413 259 456 l 230 144 q 327 82 281 103 q 420 61 374 61 q 487 79 458 61 q 537 128 516 97 q 568 197 557 158 q 579 276 579 235 m 669 333 q 658 253 669 294 q 629 172 648 211 q 585 97 611 133 q 527 36 559 62 q 458 -4 495 10 q 381 -20 421 -20 q 354 -16 371 -20 q 318 -4 338 -12 q 275 17 298 4 q 230 50 253 30 l 230 -253 q 255 -275 230 -264 q 343 -295 280 -286 l 343 -325 l 37 -325 l 37 -295 q 105 -275 80 -285 q 130 -253 130 -265 l 130 878 q 126 926 130 909 q 111 951 122 943 q 83 963 101 960 q 37 969 64 966 l 37 996 q 125 1017 84 1006 q 205 1051 165 1029 l 230 1028 l 230 496 q 297 567 263 538 q 360 615 330 596 q 414 642 389 634 q 459 651 440 651 q 543 629 504 651 q 609 566 581 607 q 653 466 637 525 q 669 333 669 407 "},"]":{"x_min":27.640625,"x_max":326,"ha":420,"o":"m 50 -227 l 28 -207 q 35 -174 30 -191 q 45 -149 40 -157 l 233 -149 l 233 1007 l 50 1007 l 27 1024 q 35 1056 29 1039 q 45 1085 40 1073 l 326 1085 l 326 -227 l 50 -227 "},"Ǒ":{"x_min":47,"x_max":757,"ha":817,"o":"m 653 426 q 645 519 653 473 q 622 606 637 565 q 584 682 606 647 q 534 742 562 716 q 473 782 506 767 q 402 797 439 797 q 295 771 342 797 q 216 698 249 746 q 167 584 184 651 q 150 434 150 517 q 170 290 150 358 q 224 171 190 223 q 304 90 259 120 q 402 61 350 61 q 503 84 457 61 q 583 153 549 107 q 635 268 616 200 q 653 426 653 337 m 757 439 q 727 263 757 346 q 645 117 697 180 q 526 17 594 54 q 382 -20 458 -20 q 240 15 302 -20 q 135 112 177 51 q 69 251 92 172 q 47 415 47 329 q 76 590 47 507 q 156 737 105 674 q 274 837 206 800 q 421 875 342 875 q 566 838 503 875 q 671 740 628 801 q 735 600 713 679 q 757 439 757 521 m 445 944 l 374 944 l 198 1186 q 206 1197 203 1192 q 212 1205 209 1202 q 219 1211 215 1209 q 228 1217 223 1214 l 411 1047 l 590 1217 q 606 1205 602 1211 q 619 1186 611 1199 l 445 944 "},"ẁ":{"x_min":13,"x_max":947,"ha":961,"o":"m 947 601 q 914 592 926 597 q 895 583 902 588 q 885 573 888 579 q 880 559 882 567 l 733 40 q 718 14 729 25 q 692 -2 706 4 q 664 -13 678 -9 q 642 -20 651 -17 l 484 439 l 348 40 q 332 14 343 24 q 307 -3 321 3 q 281 -14 294 -10 q 259 -20 268 -17 l 85 559 q 13 601 79 586 l 13 631 l 270 631 l 270 601 q 218 594 237 598 q 192 583 200 589 q 184 572 184 578 q 186 559 184 565 l 311 129 l 475 631 l 521 631 l 693 129 l 808 559 q 794 584 812 575 q 731 601 776 594 l 731 631 l 947 631 l 947 601 m 574 731 q 556 718 565 723 q 537 710 548 713 l 303 965 l 317 993 q 337 998 324 995 q 364 1003 350 1000 q 392 1007 378 1006 q 414 1010 406 1009 l 574 731 "},"Ȟ":{"x_min":33,"x_max":844,"ha":890,"o":"m 33 0 l 33 29 q 104 49 78 38 q 130 70 130 60 l 130 783 q 105 803 130 791 q 33 825 81 815 l 33 854 l 332 854 l 332 825 q 261 804 286 815 q 236 783 236 792 l 236 478 l 641 478 l 641 783 q 617 803 641 791 q 545 825 592 815 l 545 854 l 844 854 l 844 825 q 772 804 798 815 q 747 783 747 792 l 747 70 q 771 50 747 62 q 844 29 795 38 l 844 0 l 545 0 l 545 29 q 615 49 590 38 q 641 70 641 60 l 641 417 l 236 417 l 236 70 q 259 50 236 62 q 332 29 283 38 l 332 0 l 33 0 m 474 943 l 403 943 l 228 1151 q 236 1162 232 1157 q 242 1170 239 1167 q 248 1176 245 1174 q 257 1183 252 1179 l 440 1039 l 620 1183 q 636 1170 631 1176 q 648 1151 640 1164 l 474 943 "},"ệ":{"x_min":53,"x_max":575,"ha":628,"o":"m 329 580 q 266 566 294 580 q 215 527 237 552 q 177 468 192 503 q 156 393 162 434 l 440 393 q 461 398 456 393 q 466 417 466 403 q 461 463 466 435 q 441 517 456 490 q 399 561 426 543 q 329 580 372 580 m 575 377 q 543 352 563 363 q 501 332 523 340 l 153 332 q 166 231 153 279 q 205 147 180 183 q 267 89 231 111 q 349 68 303 68 q 389 70 369 68 q 431 82 408 73 q 481 110 454 92 q 546 160 509 128 q 561 146 555 155 q 571 132 567 137 q 492 52 526 82 q 429 6 459 22 q 371 -14 400 -9 q 308 -20 342 -20 q 211 2 257 -20 q 130 65 165 24 q 73 164 94 106 q 53 294 53 222 q 62 384 53 339 q 91 467 72 428 q 138 539 110 506 q 200 597 165 573 q 233 617 214 607 q 271 634 251 627 q 310 646 291 642 q 348 651 330 651 q 425 638 391 651 q 484 605 458 626 q 526 557 509 585 q 554 499 543 530 q 570 437 565 469 q 575 377 575 405 m 399 -189 q 393 -225 399 -208 q 376 -254 387 -242 q 352 -274 366 -267 q 321 -282 338 -282 q 278 -265 291 -282 q 266 -217 266 -248 q 271 -181 266 -198 q 288 -151 277 -164 q 312 -132 299 -139 q 342 -125 326 -125 q 399 -189 399 -125 m 548 740 q 535 721 540 727 q 519 710 531 715 l 338 891 l 158 710 q 149 715 152 712 q 142 721 145 718 q 136 729 139 724 q 128 740 133 734 l 303 997 l 375 997 l 548 740 "},"ĭ":{"x_min":-26.09375,"x_max":406.109375,"ha":370,"o":"m 47 0 l 47 29 q 115 49 92 38 q 139 70 139 61 l 139 454 q 139 510 139 488 q 130 543 139 531 q 101 560 121 555 q 47 569 82 566 l 47 596 q 90 606 67 600 q 136 619 113 612 q 179 634 158 626 q 217 651 200 642 l 240 651 l 240 70 q 262 50 240 62 q 333 29 284 38 l 333 0 l 47 0 m 406 922 q 361 829 386 867 q 308 768 336 792 q 251 735 281 745 q 191 725 221 725 q 128 735 158 725 q 69 768 97 745 q 18 829 42 792 q -26 922 -6 867 q -10 940 -18 934 q 9 952 -2 947 q 47 887 25 914 q 92 845 68 861 q 141 822 116 829 q 188 815 166 815 q 237 822 211 815 q 287 845 263 829 q 333 887 311 861 q 370 952 354 914 q 390 940 382 947 q 406 922 398 934 "},"8":{"x_min":62,"x_max":576,"ha":638,"o":"m 182 644 q 196 592 182 614 q 234 553 210 570 q 289 521 258 536 q 353 492 320 506 q 422 563 402 527 q 443 636 443 599 q 432 697 443 671 q 403 740 422 723 q 358 765 385 757 q 299 774 331 774 q 247 762 269 774 q 210 732 225 750 q 189 690 196 713 q 182 644 182 667 m 470 210 q 454 286 470 254 q 413 341 438 318 q 355 381 387 364 q 287 414 322 398 q 233 367 255 390 q 196 321 210 344 q 174 271 181 297 q 168 214 168 244 q 179 148 168 178 q 212 95 190 117 q 263 60 233 73 q 332 48 294 48 q 395 62 368 48 q 438 99 421 76 q 462 151 454 122 q 470 210 470 180 m 576 239 q 554 139 576 186 q 494 56 532 92 q 406 0 456 21 q 299 -20 355 -20 q 198 -2 242 -20 q 123 45 154 15 q 77 113 93 74 q 62 193 62 151 q 74 264 62 230 q 109 329 86 298 q 164 387 132 360 q 236 437 196 414 q 182 466 207 450 q 137 504 156 483 q 107 554 118 526 q 96 620 96 582 q 114 707 96 667 q 164 776 132 747 q 240 821 196 805 q 333 838 283 838 q 422 824 383 838 q 488 787 461 810 q 529 730 515 763 q 543 657 543 696 q 532 603 543 629 q 504 554 522 578 q 461 509 486 531 q 407 466 436 487 q 470 430 440 450 q 524 383 501 410 q 562 321 548 356 q 576 239 576 285 "},"Ữ":{"x_min":33,"x_max":930,"ha":930,"o":"m 930 944 q 921 904 930 927 q 892 856 913 881 q 837 803 872 830 q 751 749 803 775 l 751 355 q 729 197 751 266 q 668 79 708 127 q 571 5 628 30 q 442 -20 514 -20 q 316 0 374 -20 q 218 58 259 18 q 153 158 176 98 q 130 301 130 218 l 130 783 q 105 804 130 791 q 33 825 81 816 l 33 855 l 332 855 l 332 825 q 261 804 286 816 q 236 783 236 793 l 236 335 q 250 218 236 270 q 295 131 265 167 q 368 76 325 95 q 468 58 411 58 q 552 81 516 58 q 614 142 589 104 q 652 229 639 180 q 665 327 665 277 l 665 783 q 640 804 665 791 q 568 825 616 816 l 568 855 l 804 855 q 816 889 816 873 q 806 926 816 908 q 777 959 796 943 l 895 1014 q 920 981 910 999 q 930 944 930 963 m 676 1103 q 648 1048 664 1075 q 611 999 631 1020 q 566 963 590 977 q 516 950 542 950 q 472 961 493 950 q 431 988 451 973 q 392 1015 411 1003 q 353 1027 372 1027 q 304 1004 326 1027 q 258 944 283 982 l 223 958 q 251 1013 235 986 q 288 1062 267 1041 q 332 1098 309 1084 q 382 1112 356 1112 q 429 1100 407 1112 q 472 1073 452 1088 q 510 1046 492 1058 q 544 1035 528 1035 q 593 1056 569 1035 q 640 1118 618 1078 l 676 1103 "},"R":{"x_min":27.015625,"x_max":756.890625,"ha":764,"o":"m 33 0 l 33 29 q 104 49 78 38 q 130 70 130 60 l 130 806 q 82 799 106 803 q 33 792 57 795 l 27 834 q 90 849 58 842 q 156 862 122 856 q 229 871 191 868 q 311 875 267 875 q 445 859 388 875 q 540 816 502 843 q 597 750 578 788 q 616 669 616 712 q 602 581 616 620 q 563 510 588 541 q 504 458 538 480 q 428 424 469 437 l 629 94 q 651 69 639 78 q 677 56 663 60 q 709 52 691 52 q 749 54 726 52 l 756 25 q 673 0 713 10 q 608 -9 633 -9 q 570 1 588 -9 q 542 27 552 12 l 341 408 q 324 407 332 407 l 306 407 q 271 408 288 407 q 236 414 254 410 l 236 70 q 259 50 236 62 q 332 29 283 38 l 332 0 l 33 0 m 287 817 q 236 817 261 817 l 236 469 q 267 465 253 465 q 295 465 280 465 q 456 511 400 465 q 512 648 512 558 q 500 716 512 685 q 459 769 487 747 q 389 804 431 792 q 287 817 346 817 "},"Ḇ":{"x_min":27.015625,"x_max":675,"ha":748,"o":"m 273 817 q 254 817 264 817 q 235 817 244 817 l 235 492 l 257 492 q 380 507 333 492 q 453 546 427 522 q 488 599 479 569 q 497 658 497 629 q 486 721 497 692 q 450 771 476 750 q 381 804 424 792 q 273 817 338 817 m 344 441 q 285 437 312 441 q 235 430 258 434 l 235 70 q 240 60 235 64 q 266 53 252 55 q 296 49 281 50 q 327 48 312 48 q 356 48 342 48 q 442 60 404 48 q 509 95 481 73 q 551 149 536 117 q 566 218 566 180 q 553 295 566 256 q 513 367 540 334 q 444 420 486 399 q 344 441 402 441 m 675 243 q 652 140 675 186 q 590 62 630 94 q 493 12 549 29 q 370 -5 438 -5 q 335 -5 356 -5 q 292 -5 315 -5 q 244 -5 269 -5 q 196 -5 219 -5 q 81 -5 141 -5 l 33 -5 l 33 28 q 103 49 78 38 q 129 70 129 60 l 129 806 q 79 799 103 803 q 33 791 55 796 l 27 834 q 87 848 52 841 q 159 861 121 855 q 236 871 197 867 q 311 875 275 875 q 431 862 377 875 q 522 826 485 849 q 580 768 560 802 q 601 691 601 734 q 567 566 601 618 q 474 490 533 513 q 553 460 517 482 q 617 405 590 438 q 659 331 644 372 q 675 243 675 290 m 575 -155 q 570 -172 573 -162 q 563 -192 567 -182 q 555 -211 559 -201 q 549 -227 551 -220 l 140 -227 l 125 -210 q 130 -193 127 -202 q 137 -173 133 -183 q 145 -154 141 -164 q 152 -139 149 -145 l 560 -139 l 575 -155 "},"Ż":{"x_min":38.828125,"x_max":654,"ha":711,"o":"m 654 198 q 654 150 654 177 q 654 97 654 124 q 654 45 654 70 q 654 0 654 19 l 58 0 l 38 30 l 511 787 l 206 787 q 183 779 195 787 q 158 755 170 772 q 135 714 146 739 q 117 653 125 688 l 80 661 l 99 865 q 132 858 117 861 q 161 855 147 855 q 191 855 175 855 l 634 855 l 651 825 l 183 68 l 530 68 q 555 74 544 68 q 577 96 567 80 q 598 139 587 112 q 621 208 608 166 l 654 198 m 435 1044 q 429 1008 435 1025 q 412 979 423 991 q 388 959 402 966 q 357 952 374 952 q 314 968 327 952 q 302 1016 302 985 q 307 1052 302 1035 q 324 1082 313 1069 q 348 1101 335 1094 q 378 1109 362 1109 q 435 1044 435 1109 "},"ḝ":{"x_min":53,"x_max":575,"ha":628,"o":"m 442 -154 q 430 -203 442 -180 q 394 -245 418 -226 q 330 -278 369 -264 q 237 -300 291 -292 l 222 -267 q 281 -252 257 -261 q 320 -232 305 -243 q 343 -209 336 -221 q 350 -186 350 -197 q 332 -154 350 -163 q 274 -141 315 -145 q 281 -122 275 -139 q 294 -77 285 -108 q 313 -20 302 -55 l 308 -20 q 211 2 257 -20 q 130 65 165 24 q 73 164 94 106 q 53 294 53 222 q 62 384 53 339 q 91 467 72 428 q 138 539 110 506 q 200 597 165 573 q 232 617 214 607 q 271 634 251 627 q 310 646 291 642 q 348 651 330 651 q 425 638 391 651 q 484 606 458 626 q 526 557 509 585 q 554 500 543 530 q 570 438 565 469 q 575 378 575 406 q 543 353 563 364 q 501 333 523 341 l 153 333 q 166 232 153 280 q 205 147 180 184 q 267 89 231 111 q 349 68 303 68 q 389 70 369 68 q 431 82 408 73 q 481 110 454 92 q 546 160 509 129 q 561 146 555 155 q 571 132 567 137 q 493 52 526 83 q 430 6 459 22 q 371 -14 400 -9 q 366 -15 368 -15 l 348 -70 q 383 -80 366 -74 q 413 -97 400 -87 q 434 -121 426 -107 q 442 -154 442 -135 m 329 580 q 266 566 294 580 q 215 528 237 552 q 177 469 192 503 q 156 394 162 435 l 440 394 q 461 399 456 394 q 466 418 466 404 q 461 464 466 436 q 441 517 456 491 q 399 561 426 543 q 329 580 372 580 m 554 923 q 509 830 534 868 q 457 769 484 793 q 399 736 429 746 q 340 726 369 726 q 276 736 307 726 q 218 769 246 746 q 167 830 191 793 q 123 923 142 868 q 138 941 130 935 q 158 953 146 948 q 196 888 174 915 q 241 846 218 862 q 290 823 265 830 q 337 816 315 816 q 386 823 360 816 q 435 846 411 830 q 481 888 460 862 q 519 953 503 915 q 538 941 530 948 q 554 923 546 935 "},"õ":{"x_min":53,"x_max":631.015625,"ha":684,"o":"m 528 309 q 510 411 528 362 q 466 496 493 459 q 404 555 438 533 q 336 577 369 577 q 251 557 285 577 q 195 503 216 537 q 165 422 174 469 q 156 321 156 375 q 174 219 156 267 q 221 133 193 170 q 283 75 249 97 q 347 54 317 54 q 429 72 395 54 q 484 123 462 90 q 517 203 506 157 q 528 309 528 250 m 631 329 q 619 240 631 283 q 588 158 608 197 q 540 86 568 119 q 479 30 512 53 q 407 -6 445 6 q 329 -20 369 -20 q 215 4 266 -20 q 128 71 164 28 q 72 173 92 114 q 53 301 53 232 q 63 389 53 346 q 94 472 74 433 q 141 544 114 511 q 202 600 169 576 q 275 638 236 624 q 355 651 314 651 q 468 627 417 651 q 555 559 519 602 q 611 457 591 516 q 631 329 631 398 m 581 913 q 553 858 569 885 q 516 809 536 830 q 472 773 496 787 q 422 760 448 760 q 378 771 399 760 q 337 798 357 783 q 297 825 317 813 q 258 837 278 837 q 210 814 232 837 q 163 754 188 792 l 128 768 q 157 823 140 796 q 193 872 173 851 q 238 908 214 894 q 287 922 261 922 q 335 910 312 922 q 377 883 357 898 q 415 856 397 868 q 449 845 433 845 q 499 866 474 845 q 545 928 523 888 l 581 913 "},"ẘ":{"x_min":13,"x_max":947,"ha":961,"o":"m 947 601 q 914 592 926 597 q 895 583 902 588 q 885 573 888 579 q 880 559 882 567 l 733 40 q 718 14 729 25 q 692 -2 706 4 q 664 -13 678 -9 q 642 -20 651 -17 l 484 439 l 347 40 q 331 14 342 24 q 307 -3 320 3 q 281 -14 294 -10 q 259 -20 268 -17 l 85 559 q 13 601 79 586 l 13 631 l 270 631 l 270 601 q 218 594 237 598 q 192 583 200 589 q 184 572 184 578 q 186 559 184 565 l 311 129 l 474 631 l 520 631 l 693 129 l 808 559 q 794 584 812 575 q 731 601 776 594 l 731 631 l 947 631 l 947 601 m 562 843 q 558 874 562 859 q 546 900 554 889 q 528 918 539 911 q 504 925 518 925 q 478 919 490 925 q 455 903 465 913 q 439 877 445 892 q 434 844 434 862 q 438 814 434 828 q 449 788 442 799 q 467 770 456 777 q 491 764 478 764 q 517 769 504 764 q 540 784 530 774 q 556 808 550 794 q 562 843 562 823 m 622 870 q 609 807 622 836 q 575 757 596 778 q 528 723 554 735 q 477 712 502 712 q 435 720 454 712 q 402 742 416 728 q 381 775 389 756 q 374 816 374 794 q 386 880 374 851 q 420 931 399 910 q 466 965 441 953 q 518 977 492 977 q 558 968 540 977 q 591 945 577 960 q 614 911 606 930 q 622 870 622 892 "},"ẫ":{"x_min":53,"x_max":615.6875,"ha":625,"o":"m 233 68 q 318 88 273 68 q 414 154 363 109 l 414 329 q 321 311 358 320 q 262 293 285 302 q 225 273 239 284 q 200 252 211 263 q 172 210 183 234 q 162 155 162 187 q 169 111 162 128 q 189 84 177 94 q 212 71 200 74 q 233 68 225 68 m 615 55 q 522 -2 559 15 q 466 -21 485 -21 q 429 10 444 -21 q 415 97 415 41 q 354 44 384 66 q 295 7 324 21 q 241 -14 267 -7 q 194 -21 215 -21 q 145 -12 170 -21 q 99 12 120 -4 q 66 58 79 30 q 53 125 53 86 q 70 211 53 177 q 112 271 88 246 q 149 302 128 288 q 202 330 169 317 q 287 356 236 344 q 414 380 337 368 l 414 475 q 408 518 414 498 q 390 552 403 538 q 356 575 378 567 q 302 583 334 583 q 260 576 281 583 q 224 557 239 569 q 200 527 209 544 q 193 490 191 511 q 180 476 194 484 q 146 463 166 469 q 107 453 126 456 q 80 452 88 450 l 71 478 q 118 543 86 512 q 189 598 149 575 q 274 636 229 622 q 361 651 319 651 q 474 611 434 651 q 514 503 514 572 l 514 120 q 521 80 514 92 q 540 68 528 68 q 564 71 549 68 q 605 86 579 74 l 615 55 m 529 740 q 516 721 521 727 q 500 710 512 715 l 318 891 l 138 710 q 129 715 132 712 q 122 721 125 718 q 116 729 119 724 q 108 740 112 734 l 283 997 l 354 997 l 529 740 m 545 1218 q 517 1163 533 1190 q 480 1114 500 1135 q 436 1078 460 1092 q 386 1065 412 1065 q 341 1076 362 1065 q 300 1103 320 1088 q 261 1130 281 1118 q 222 1142 241 1142 q 173 1119 195 1142 q 127 1059 152 1097 l 92 1073 q 120 1128 104 1101 q 157 1177 136 1156 q 201 1213 177 1199 q 251 1227 225 1227 q 298 1215 276 1227 q 341 1188 321 1203 q 379 1161 361 1173 q 413 1150 397 1150 q 463 1171 438 1150 q 510 1233 487 1193 l 545 1218 "},"Ṡ":{"x_min":80,"x_max":589,"ha":649,"o":"m 589 255 q 581 193 589 225 q 556 130 573 161 q 516 72 540 99 q 458 24 491 45 q 384 -7 426 4 q 293 -20 342 -20 q 245 -15 271 -20 q 191 -2 219 -10 q 137 18 164 6 q 87 46 110 30 q 81 69 82 48 q 80 116 80 89 q 80 172 80 144 q 87 219 80 201 l 114 216 q 152 147 129 176 q 203 98 175 117 q 263 70 231 79 q 330 61 296 61 q 390 73 360 61 q 444 107 420 86 q 483 158 468 129 q 499 219 499 187 q 481 290 499 261 q 434 343 463 320 q 367 385 405 366 q 291 421 330 403 q 215 460 252 440 q 149 507 178 480 q 102 570 120 535 q 85 655 85 606 q 90 701 85 676 q 110 750 96 725 q 144 797 123 774 q 195 837 165 820 q 263 864 224 854 q 350 875 301 875 q 410 870 380 875 q 466 857 440 865 q 514 837 493 849 q 547 812 535 826 q 547 796 552 808 q 534 770 543 784 q 514 743 525 756 q 495 722 503 729 l 471 726 q 432 763 453 748 q 391 789 412 779 q 349 802 370 798 q 310 807 329 807 q 247 795 273 807 q 203 766 220 783 q 178 727 186 749 q 171 687 171 706 q 188 631 171 655 q 236 585 206 606 q 302 546 265 564 q 379 508 340 528 q 456 465 419 488 q 523 412 494 442 q 571 344 553 382 q 589 255 589 305 m 399 1045 q 393 1009 399 1026 q 376 980 387 992 q 352 960 366 967 q 321 953 338 953 q 278 969 291 953 q 266 1017 266 986 q 271 1053 266 1036 q 288 1083 277 1070 q 312 1102 299 1095 q 342 1110 326 1110 q 399 1045 399 1110 "},"ǝ":{"x_min":47,"x_max":565,"ha":618,"o":"m 295 51 q 412 103 370 51 q 463 258 454 156 l 197 258 q 164 242 176 258 q 153 199 153 226 q 165 140 153 167 q 198 93 178 113 q 244 62 218 73 q 295 51 269 51 m 565 329 q 538 180 565 249 q 466 61 512 111 q 382 0 428 19 q 276 -20 336 -20 q 187 -4 228 -20 q 114 40 145 11 q 64 106 82 68 q 47 189 47 144 q 53 239 47 216 q 70 276 59 261 q 113 298 90 287 q 159 319 136 309 l 464 319 q 447 419 464 374 q 404 495 431 464 q 341 543 377 526 q 264 560 304 560 q 227 557 246 560 q 187 546 209 554 q 138 523 165 538 q 78 482 111 507 q 62 496 69 486 q 52 511 56 506 q 127 582 92 555 q 192 625 161 610 q 252 646 222 641 q 311 652 281 652 q 405 629 360 652 q 486 566 451 607 q 543 464 522 525 q 565 329 565 404 "},"˙":{"x_min":66,"x_max":199,"ha":265,"o":"m 199 854 q 193 818 199 835 q 176 789 187 801 q 152 769 166 776 q 121 762 138 762 q 78 778 91 762 q 66 826 66 795 q 71 862 66 845 q 88 892 77 879 q 112 911 99 904 q 142 919 126 919 q 199 854 199 919 "},"ê":{"x_min":53,"x_max":575,"ha":628,"o":"m 329 580 q 266 566 294 580 q 215 528 237 552 q 177 469 192 503 q 156 394 162 435 l 440 394 q 461 399 456 394 q 466 418 466 404 q 461 464 466 436 q 441 517 456 491 q 399 561 426 543 q 329 580 372 580 m 575 378 q 543 353 563 364 q 501 333 523 341 l 153 333 q 166 232 153 280 q 205 147 180 184 q 267 89 231 111 q 349 68 303 68 q 389 70 369 68 q 431 82 408 73 q 481 110 454 92 q 546 160 509 129 q 561 146 555 155 q 571 132 567 137 q 492 52 526 83 q 429 6 459 22 q 371 -14 400 -9 q 308 -20 342 -20 q 211 2 257 -20 q 130 65 165 24 q 73 164 94 106 q 53 294 53 222 q 62 384 53 339 q 91 467 72 428 q 138 539 110 506 q 200 597 165 573 q 232 617 214 607 q 271 634 251 627 q 310 646 290 642 q 348 651 330 651 q 425 638 391 651 q 484 606 458 626 q 526 557 509 585 q 554 500 543 530 q 570 438 565 469 q 575 378 575 406 m 548 740 q 535 721 540 727 q 519 710 531 715 l 338 891 l 158 710 q 149 715 152 712 q 142 721 145 718 q 136 729 139 724 q 128 740 133 734 l 303 997 l 374 997 l 548 740 "},"„":{"x_min":58.59375,"x_max":531,"ha":611,"o":"m 251 41 q 242 -15 251 15 q 215 -76 233 -46 q 173 -135 198 -107 q 117 -184 149 -163 l 87 -161 q 111 -127 101 -146 q 129 -88 122 -107 q 139 -51 136 -69 q 143 -20 143 -33 q 125 33 143 10 q 69 56 107 56 l 58 87 q 83 106 64 95 q 126 126 103 116 q 171 142 149 136 q 205 149 193 149 q 239 104 227 127 q 251 41 251 80 m 531 41 q 522 -15 531 15 q 495 -76 513 -46 q 454 -135 478 -107 q 397 -184 429 -163 l 369 -161 q 393 -127 383 -146 q 410 -88 403 -107 q 421 -51 417 -69 q 425 -20 425 -33 q 406 33 425 10 q 349 56 387 56 l 339 87 q 363 106 344 95 q 406 126 383 116 q 451 142 429 136 q 485 149 474 149 q 519 104 507 127 q 531 41 531 80 "},"Â":{"x_min":0,"x_max":796,"ha":810,"o":"m 504 363 l 386 711 l 272 363 l 504 363 m 252 302 l 179 75 q 197 45 172 54 q 276 29 221 35 l 276 0 l 0 0 l 0 29 q 71 46 45 37 q 104 75 98 55 l 352 839 q 390 869 367 856 q 430 893 412 883 l 709 75 q 718 58 712 66 q 734 45 724 51 q 759 36 744 40 q 796 29 774 32 l 796 0 l 516 0 l 516 31 q 587 41 567 31 q 600 75 607 52 l 524 302 l 252 302 m 608 957 q 595 938 600 944 q 579 927 590 932 l 397 1068 l 216 927 q 208 932 211 929 q 201 938 204 935 q 195 946 198 942 q 187 957 191 951 l 362 1167 l 434 1167 l 608 957 "},"´":{"x_min":144.21875,"x_max":411.390625,"ha":434,"o":"m 182 709 q 161 717 170 712 q 144 728 152 722 l 299 1009 q 321 1007 307 1009 q 348 1003 334 1005 q 375 998 362 1000 q 396 994 388 996 l 411 967 l 182 709 "},"Ɛ":{"x_min":53,"x_max":639.65625,"ha":692,"o":"m 639 145 q 560 67 599 98 q 481 16 522 35 q 397 -11 441 -3 q 303 -20 353 -20 q 195 0 242 -20 q 117 52 148 20 q 69 121 85 83 q 53 192 53 158 q 65 268 53 231 q 100 337 78 305 q 151 392 122 368 q 210 431 179 416 q 110 500 146 454 q 75 614 75 547 q 106 725 75 673 q 198 815 138 778 q 289 858 241 842 q 390 875 336 875 q 523 858 462 875 q 627 804 583 841 q 600 761 615 781 q 567 722 584 742 l 538 727 q 497 759 517 746 q 455 782 477 773 q 409 796 433 791 q 355 800 384 800 q 284 787 318 800 q 225 753 251 775 q 183 701 199 731 q 168 635 168 670 q 178 580 168 607 q 217 531 189 553 q 294 494 245 509 q 419 480 343 480 l 419 425 q 301 405 350 425 q 220 358 252 386 q 173 298 188 330 q 159 234 159 265 q 174 166 159 197 q 217 113 190 135 q 281 77 244 90 q 360 65 317 65 q 420 68 393 65 q 475 84 447 72 q 535 117 503 96 q 611 175 567 139 l 639 145 "},"ỏ":{"x_min":53,"x_max":631.015625,"ha":684,"o":"m 528 309 q 510 411 528 362 q 466 496 493 459 q 404 555 438 533 q 336 577 369 577 q 251 557 285 577 q 195 503 216 537 q 165 422 174 469 q 156 321 156 375 q 174 219 156 267 q 221 133 193 170 q 283 75 249 97 q 347 54 317 54 q 429 72 395 54 q 484 123 462 90 q 517 203 506 157 q 528 309 528 250 m 631 329 q 619 240 631 283 q 588 158 608 197 q 540 86 568 119 q 479 30 512 53 q 407 -6 445 6 q 329 -20 369 -20 q 215 4 266 -20 q 128 71 164 28 q 72 173 92 114 q 53 301 53 232 q 63 389 53 346 q 94 472 74 433 q 141 544 114 511 q 202 600 169 576 q 275 638 236 624 q 355 651 314 651 q 468 627 417 651 q 555 559 519 602 q 611 457 591 516 q 631 329 631 398 m 467 904 q 454 871 467 885 q 426 842 442 856 q 393 817 409 829 q 371 793 378 805 q 370 767 363 780 q 404 736 376 753 q 384 728 394 730 q 363 726 373 727 q 319 753 333 740 q 302 776 305 765 q 305 797 299 787 q 323 815 311 806 q 348 833 334 824 q 374 851 362 842 q 394 871 386 861 q 403 894 403 882 q 390 933 403 920 q 358 946 377 946 q 340 942 348 946 q 325 932 331 938 q 316 918 319 926 q 313 904 313 911 q 314 896 313 900 q 318 889 316 893 q 304 885 313 887 q 286 881 296 883 q 268 877 277 879 q 252 874 258 875 l 245 882 l 245 891 q 257 923 245 907 q 289 951 270 938 q 333 971 309 963 q 380 979 356 979 q 444 958 421 979 q 467 904 467 938 "},"ʃ":{"x_min":-173,"x_max":474,"ha":335,"o":"m 259 44 q 248 -70 259 -21 q 219 -157 237 -119 q 177 -222 201 -194 q 127 -271 153 -249 q 87 -297 109 -285 q 42 -319 66 -310 q -4 -333 19 -328 q -48 -339 -27 -339 q -90 -331 -68 -339 q -130 -315 -112 -324 q -161 -296 -149 -305 q -173 -280 -173 -286 q -163 -264 -173 -274 q -140 -242 -153 -253 q -112 -220 -127 -230 q -88 -205 -98 -210 q -64 -223 -77 -215 q -36 -236 -51 -231 q -8 -244 -22 -241 q 17 -248 5 -248 q 71 -234 47 -248 q 114 -194 96 -221 q 142 -127 132 -167 q 153 -34 153 -87 q 147 83 153 19 q 134 215 142 147 q 117 352 126 283 q 99 485 107 422 q 86 604 91 549 q 81 698 81 659 q 89 805 81 761 q 112 883 97 850 q 148 941 127 917 q 196 988 170 966 q 235 1014 214 1003 q 277 1034 256 1026 q 317 1046 298 1042 q 349 1051 336 1051 q 391 1042 369 1051 q 431 1024 413 1034 q 462 1002 450 1013 q 474 985 474 991 q 464 969 474 980 q 441 947 454 958 q 413 925 428 935 q 389 910 399 915 q 357 935 373 924 q 326 952 341 945 q 298 962 311 959 q 276 966 285 966 q 243 953 259 966 q 214 917 226 940 q 194 857 202 893 q 187 776 187 822 q 192 661 187 724 q 205 529 197 597 q 223 391 213 461 q 240 258 232 322 q 253 139 248 194 q 259 44 259 83 "},"Ĉ":{"x_min":47,"x_max":677.046875,"ha":730,"o":"m 677 143 q 595 65 634 97 q 520 15 556 34 q 449 -11 484 -3 q 379 -20 414 -20 q 258 8 318 -20 q 152 90 199 36 q 75 221 104 144 q 47 397 47 299 q 79 594 47 506 q 166 744 111 682 q 294 841 221 807 q 449 875 368 875 q 575 855 521 875 q 664 807 629 835 q 662 793 668 803 q 646 770 656 783 q 624 744 635 757 q 604 723 612 731 l 581 727 q 500 780 547 759 q 393 800 454 800 q 344 791 371 800 q 290 765 317 783 q 237 717 263 746 q 192 645 212 687 q 161 548 173 603 q 150 422 150 493 q 175 264 150 332 q 241 151 201 196 q 331 83 281 106 q 427 61 380 61 q 521 86 463 61 q 652 173 579 111 q 659 167 655 172 q 666 158 663 163 q 672 149 669 153 q 677 143 675 145 m 618 957 q 605 938 610 944 q 589 927 601 932 l 407 1068 l 227 927 q 218 932 222 929 q 212 938 215 935 q 205 946 209 942 q 197 957 202 951 l 373 1167 l 444 1167 l 618 957 "},"Ɋ":{"x_min":44,"x_max":965,"ha":817,"o":"m 361 71 q 417 84 388 71 q 477 119 447 98 q 537 169 508 141 q 594 224 567 197 l 594 671 q 523 753 568 724 q 421 783 478 783 q 359 772 391 783 q 296 742 327 762 q 238 693 266 722 q 189 624 210 663 q 156 537 168 585 q 144 432 144 489 q 162 288 144 355 q 212 174 181 222 q 282 98 243 125 q 361 71 321 71 m 594 152 q 532 79 562 111 q 469 24 501 47 q 401 -9 436 2 q 325 -21 365 -21 q 263 -8 295 -21 q 200 28 231 4 q 140 89 168 53 q 90 173 112 126 q 56 278 69 221 q 44 404 44 336 q 55 505 44 457 q 87 595 67 553 q 131 672 106 637 q 181 735 155 707 q 231 783 206 763 q 274 815 255 803 q 321 840 297 830 q 367 859 345 851 q 410 871 390 867 q 445 875 430 875 q 486 872 466 875 q 527 861 507 869 q 570 836 548 852 q 617 795 592 821 q 639 812 628 803 q 660 833 650 822 q 679 854 670 843 q 696 873 688 864 l 724 847 q 712 792 717 822 q 705 730 708 766 q 702 653 702 695 l 702 -72 q 702 -162 702 -124 q 710 -226 702 -201 q 733 -263 718 -251 q 777 -275 749 -275 q 805 -269 792 -275 q 828 -254 818 -264 q 844 -233 838 -245 q 850 -207 850 -221 q 842 -179 850 -194 q 853 -165 842 -173 q 883 -150 865 -158 q 919 -138 900 -143 q 952 -133 938 -133 l 965 -159 q 943 -224 965 -192 q 888 -281 922 -256 q 813 -323 855 -307 q 728 -339 770 -339 q 659 -323 685 -339 q 618 -278 633 -307 q 598 -207 603 -249 q 594 -114 594 -166 l 594 152 "},"Ờ":{"x_min":47,"x_max":811,"ha":817,"o":"m 653 426 q 645 519 653 473 q 622 606 637 565 q 584 682 606 647 q 534 742 562 716 q 473 782 506 767 q 402 797 439 797 q 295 771 342 797 q 216 698 249 746 q 167 584 184 651 q 150 434 150 517 q 170 290 150 358 q 224 171 190 223 q 304 90 259 120 q 402 61 350 61 q 503 84 457 61 q 583 153 549 107 q 635 268 616 200 q 653 426 653 337 m 811 944 q 803 906 811 927 q 778 861 796 885 q 730 812 760 837 q 654 761 700 786 q 731 614 705 698 q 757 438 757 529 q 727 263 757 346 q 645 117 697 180 q 526 17 594 54 q 382 -20 458 -20 q 240 15 302 -20 q 135 112 177 51 q 69 251 92 172 q 47 415 47 329 q 76 590 47 507 q 156 737 105 674 q 274 837 206 800 q 421 875 342 875 q 532 853 482 875 q 622 796 582 832 q 679 846 661 821 q 697 889 697 871 q 687 926 697 908 q 658 959 677 944 l 776 1014 q 801 981 791 999 q 811 944 811 963 m 527 957 q 512 938 517 944 q 497 927 507 931 l 185 1092 l 190 1122 q 205 1134 195 1127 q 227 1148 215 1141 q 251 1162 239 1155 q 269 1172 262 1168 l 527 957 "},"Ω":{"x_min":54,"x_max":780,"ha":860,"o":"m 73 0 l 54 18 q 54 55 54 34 q 57 99 54 76 q 64 145 60 122 q 73 189 68 168 l 103 189 q 114 139 108 161 q 126 103 119 118 q 143 81 133 88 q 167 74 153 74 l 313 74 q 195 185 242 132 q 122 290 149 238 q 83 394 94 342 q 73 501 73 446 q 83 590 73 545 q 116 677 94 635 q 169 754 138 718 q 242 817 201 790 q 335 859 284 844 q 445 875 385 875 q 579 849 518 875 q 684 778 640 824 q 752 665 727 731 q 777 516 777 599 q 761 402 777 456 q 713 295 745 347 q 633 188 681 242 q 523 74 586 134 l 676 74 q 699 81 690 74 q 715 101 708 87 q 731 137 723 115 q 751 192 739 160 l 780 179 q 777 135 780 160 q 772 87 775 111 q 765 40 769 63 q 759 0 762 17 l 465 0 l 465 74 q 534 166 503 126 q 587 242 564 207 q 626 307 610 276 q 652 367 642 337 q 666 430 662 398 q 671 501 671 462 q 655 619 671 563 q 608 719 639 675 q 531 788 577 762 q 425 814 485 814 q 344 798 380 814 q 281 757 308 782 q 235 699 254 731 q 205 632 217 666 q 187 566 193 598 q 182 508 182 533 q 182 434 182 468 q 190 370 182 400 q 212 308 198 339 q 249 242 226 277 q 304 166 272 207 q 382 74 337 126 l 382 0 l 73 0 "},"ȧ":{"x_min":53,"x_max":615.6875,"ha":625,"o":"m 233 68 q 318 88 273 68 q 414 154 363 109 l 414 329 q 321 311 358 320 q 262 293 285 302 q 225 273 239 284 q 200 252 211 263 q 172 210 183 234 q 162 155 162 187 q 169 111 162 128 q 189 84 177 94 q 212 71 200 74 q 233 68 225 68 m 615 55 q 522 -2 559 15 q 466 -21 485 -21 q 429 10 444 -21 q 415 97 415 41 q 353 44 383 66 q 295 7 323 21 q 241 -14 266 -7 q 194 -21 215 -21 q 145 -12 170 -21 q 99 12 120 -4 q 66 58 79 30 q 53 125 53 86 q 70 211 53 177 q 112 271 88 246 q 148 302 128 288 q 202 330 169 317 q 286 356 236 344 q 414 380 337 368 l 414 475 q 408 518 414 498 q 390 552 403 538 q 356 575 378 567 q 302 583 334 583 q 260 576 280 583 q 224 557 239 569 q 200 527 209 544 q 193 490 191 511 q 180 476 194 484 q 146 463 165 469 q 107 453 126 456 q 80 452 88 450 l 71 478 q 118 543 86 512 q 189 598 149 575 q 274 636 229 622 q 361 651 319 651 q 474 611 434 651 q 514 503 514 572 l 514 120 q 521 80 514 92 q 540 68 528 68 q 564 71 549 68 q 605 86 579 74 l 615 55 m 385 854 q 379 818 385 835 q 362 789 373 801 q 338 769 352 776 q 307 762 324 762 q 264 778 277 762 q 252 826 252 795 q 257 862 252 845 q 274 892 263 879 q 298 911 285 904 q 328 919 312 919 q 385 854 385 919 "},"Ö":{"x_min":47,"x_max":757,"ha":817,"o":"m 653 426 q 645 519 653 473 q 622 606 637 565 q 584 682 606 647 q 534 742 562 716 q 473 782 506 767 q 402 797 439 797 q 295 771 342 797 q 216 698 249 746 q 167 584 184 651 q 150 434 150 517 q 170 290 150 358 q 224 171 190 223 q 304 90 259 120 q 402 61 350 61 q 503 84 457 61 q 583 153 549 107 q 635 268 616 200 q 653 426 653 337 m 757 439 q 727 263 757 346 q 645 117 697 180 q 526 17 594 54 q 382 -20 458 -20 q 240 15 302 -20 q 135 112 177 51 q 69 251 92 172 q 47 415 47 329 q 76 590 47 507 q 156 737 105 674 q 274 837 206 800 q 421 875 342 875 q 566 838 503 875 q 671 740 628 801 q 735 600 713 679 q 757 439 757 521 m 609 1045 q 603 1009 609 1026 q 586 980 597 992 q 562 960 576 967 q 531 953 548 953 q 488 969 501 953 q 476 1017 476 986 q 481 1053 476 1036 q 498 1083 487 1070 q 522 1102 509 1095 q 552 1110 536 1110 q 609 1045 609 1110 m 343 1045 q 337 1009 343 1026 q 320 980 331 992 q 296 960 310 967 q 265 953 282 953 q 222 969 235 953 q 210 1017 210 986 q 215 1053 210 1036 q 232 1083 221 1070 q 256 1102 243 1095 q 286 1110 270 1110 q 343 1045 343 1110 "},"ḏ":{"x_min":53,"x_max":698.015625,"ha":707,"o":"m 698 57 q 643 21 667 36 q 601 -2 619 7 q 570 -15 583 -11 q 548 -20 557 -20 q 512 10 526 -20 q 498 114 498 40 q 446 58 471 83 q 394 16 421 33 q 339 -10 368 -1 q 276 -20 310 -20 q 199 2 239 -20 q 127 65 160 24 q 73 166 94 106 q 53 301 53 226 q 63 381 53 339 q 92 461 73 422 q 140 534 112 499 q 202 595 167 568 q 278 636 237 621 q 366 651 319 651 q 428 643 397 651 q 495 608 459 635 l 495 864 q 493 924 495 902 q 481 958 491 946 q 453 974 472 970 q 398 979 433 979 l 398 1006 q 496 1026 453 1014 q 573 1050 539 1039 l 595 1030 l 595 172 q 595 131 595 148 q 597 103 595 114 q 601 84 599 91 q 608 72 604 76 q 632 67 614 64 q 689 86 649 70 l 698 57 m 495 177 l 495 495 q 433 555 473 533 q 345 576 393 576 q 267 560 303 576 q 207 512 232 544 q 167 433 181 480 q 153 322 153 385 q 169 217 153 264 q 210 137 185 170 q 266 85 236 103 q 323 68 296 68 q 368 77 346 68 q 411 102 390 86 q 453 137 432 117 q 495 177 474 156 m 573 -155 q 568 -172 571 -162 q 561 -192 565 -182 q 553 -211 557 -201 q 547 -227 549 -220 l 139 -227 l 124 -210 q 128 -193 125 -202 q 136 -173 132 -183 q 144 -154 140 -164 q 151 -139 148 -145 l 558 -139 l 573 -155 "},"z":{"x_min":50.453125,"x_max":549.984375,"ha":602,"o":"m 548 168 q 548 121 548 146 q 548 74 548 97 q 548 31 548 51 q 543 0 548 12 l 67 0 l 50 30 l 419 569 l 189 569 q 167 564 178 569 q 146 549 156 560 q 127 518 136 538 q 111 467 118 498 l 85 475 l 85 641 q 117 634 105 637 q 142 631 129 631 q 170 631 155 631 l 535 631 l 549 601 l 179 61 l 460 61 q 490 87 476 61 q 520 174 504 113 l 548 168 "},"Ḅ":{"x_min":27.015625,"x_max":675,"ha":748,"o":"m 273 817 q 254 817 264 817 q 235 817 244 817 l 235 492 l 257 492 q 380 507 333 492 q 453 546 427 522 q 488 599 479 569 q 497 658 497 629 q 486 721 497 692 q 450 771 476 750 q 381 804 424 792 q 273 817 338 817 m 344 441 q 285 437 312 441 q 235 430 258 434 l 235 70 q 241 60 235 64 q 267 53 252 55 q 296 49 281 50 q 327 48 312 48 q 356 48 342 48 q 442 60 404 48 q 509 95 481 73 q 551 149 536 117 q 566 218 566 180 q 553 295 566 256 q 513 367 540 334 q 444 420 486 399 q 344 441 402 441 m 675 243 q 652 140 675 186 q 590 62 630 94 q 493 12 549 29 q 370 -5 438 -5 q 335 -5 356 -5 q 292 -5 315 -5 q 244 -5 269 -5 q 196 -5 219 -5 q 81 -5 141 -5 l 33 -5 l 33 28 q 103 49 78 38 q 129 70 129 60 l 129 806 q 79 799 103 803 q 33 791 55 796 l 27 834 q 87 848 52 841 q 159 861 121 855 q 236 871 197 867 q 311 875 275 875 q 431 862 377 875 q 522 826 485 849 q 580 768 560 802 q 601 691 601 734 q 567 566 601 618 q 474 490 533 513 q 553 460 517 482 q 617 405 590 438 q 659 331 644 372 q 675 243 675 290 m 417 -189 q 411 -225 417 -208 q 394 -254 405 -242 q 370 -274 384 -267 q 339 -282 356 -282 q 296 -265 309 -282 q 284 -217 284 -248 q 289 -181 284 -198 q 306 -151 295 -164 q 330 -132 317 -139 q 360 -125 344 -125 q 417 -189 417 -125 "},"™":{"x_min":40.015625,"x_max":721,"ha":761,"o":"m 116 547 l 116 564 q 147 574 139 569 q 155 582 155 578 l 155 827 l 81 827 q 74 825 77 827 q 68 819 71 823 q 61 806 65 814 q 52 783 57 797 l 40 787 q 40 802 40 793 q 41 821 40 811 q 44 841 42 831 q 48 855 46 850 l 308 855 l 316 848 q 315 833 315 842 q 313 815 315 824 q 311 797 312 805 q 308 783 310 789 l 297 783 q 288 815 291 804 q 273 827 284 827 l 203 827 l 203 582 q 210 574 203 579 q 243 564 217 569 l 243 547 l 116 547 m 716 838 q 686 832 702 838 l 686 579 q 694 572 686 576 q 721 564 703 567 l 721 547 l 604 547 l 604 564 q 630 572 621 567 q 640 579 640 576 l 640 787 l 532 548 l 513 548 l 404 786 l 404 579 q 411 572 404 576 q 437 564 419 567 l 437 548 l 333 548 l 333 564 q 360 572 351 567 q 369 579 369 576 l 369 831 q 352 836 360 835 q 337 838 344 838 l 337 855 l 413 855 q 420 851 418 855 q 429 833 423 847 l 528 622 l 623 833 q 632 851 629 848 q 640 855 634 855 l 716 855 l 716 838 "},"ặ":{"x_min":53,"x_max":615.6875,"ha":625,"o":"m 233 67 q 318 88 273 67 q 414 154 363 109 l 414 329 q 321 311 358 320 q 262 293 285 302 q 225 273 239 284 q 200 252 211 263 q 172 210 183 233 q 162 155 162 187 q 169 111 162 128 q 189 84 177 94 q 212 70 200 74 q 233 67 225 67 m 615 55 q 522 -2 559 15 q 466 -20 485 -20 q 429 10 444 -20 q 415 97 415 41 q 354 44 384 66 q 295 7 324 21 q 241 -13 267 -6 q 194 -20 215 -20 q 145 -11 170 -20 q 99 13 120 -3 q 66 59 79 31 q 53 126 53 87 q 70 212 53 177 q 112 272 88 246 q 149 302 128 288 q 202 330 169 317 q 286 356 236 344 q 414 380 337 368 l 414 475 q 408 518 414 498 q 390 552 403 538 q 356 575 378 567 q 302 583 334 583 q 260 576 280 583 q 224 557 239 569 q 200 527 209 544 q 193 490 191 511 q 180 476 194 484 q 146 463 165 469 q 107 453 126 456 q 80 452 88 450 l 71 478 q 118 543 86 512 q 189 598 149 575 q 274 636 229 622 q 361 651 319 651 q 474 611 434 651 q 514 503 514 572 l 514 120 q 521 80 514 92 q 540 68 528 68 q 564 71 549 68 q 605 86 579 74 l 615 55 m 372 -189 q 366 -225 372 -208 q 349 -254 360 -242 q 325 -274 339 -267 q 294 -282 311 -282 q 251 -265 264 -282 q 239 -217 239 -248 q 244 -181 239 -198 q 261 -151 250 -164 q 285 -132 272 -139 q 315 -125 299 -125 q 372 -189 372 -125 m 535 922 q 490 829 515 867 q 437 768 465 792 q 380 735 410 745 q 320 725 350 725 q 257 735 287 725 q 198 768 226 745 q 147 829 171 792 q 102 922 122 867 q 118 940 110 934 q 138 952 126 947 q 176 887 154 914 q 221 845 197 861 q 270 822 245 829 q 317 815 295 815 q 366 822 341 815 q 416 845 392 829 q 462 887 440 861 q 500 952 484 914 q 519 940 511 947 q 535 922 527 934 "},"Ř":{"x_min":27.015625,"x_max":756.890625,"ha":764,"o":"m 33 0 l 33 29 q 104 49 78 38 q 130 70 130 60 l 130 806 q 82 799 106 803 q 33 792 57 795 l 27 834 q 90 849 58 842 q 156 862 122 856 q 229 871 191 868 q 311 875 267 875 q 445 859 388 875 q 540 816 502 843 q 597 750 578 788 q 616 669 616 712 q 602 581 616 620 q 563 510 588 541 q 504 458 538 480 q 428 424 469 437 l 629 94 q 651 69 639 78 q 677 56 663 60 q 709 52 691 52 q 749 54 726 52 l 756 25 q 673 0 713 10 q 608 -9 633 -9 q 570 1 588 -9 q 542 27 552 12 l 341 408 q 324 407 332 407 l 306 407 q 271 408 288 407 q 236 414 254 410 l 236 70 q 259 50 236 62 q 332 29 283 38 l 332 0 l 33 0 m 287 817 q 236 817 261 817 l 236 469 q 267 465 253 465 q 295 465 280 465 q 456 511 400 465 q 512 648 512 558 q 500 716 512 685 q 459 769 487 747 q 389 804 431 792 q 287 817 346 817 m 381 943 l 310 943 l 135 1151 q 143 1162 139 1157 q 149 1170 146 1167 q 156 1176 152 1174 q 165 1183 159 1179 l 347 1039 l 526 1183 q 542 1170 538 1176 q 555 1151 547 1164 l 381 943 "},"Ň":{"x_min":33,"x_max":851,"ha":884,"o":"m 33 0 l 33 29 q 105 48 82 35 q 129 70 129 61 l 129 778 q 83 810 107 799 q 33 824 58 820 l 33 854 l 173 854 q 190 852 183 854 q 203 845 196 850 q 217 829 209 839 q 237 801 224 818 l 674 187 l 674 782 q 652 804 674 790 q 578 824 630 817 l 578 854 l 851 854 l 851 824 q 778 805 802 818 q 754 782 754 792 l 754 -20 q 701 -6 720 -16 q 674 14 682 2 l 209 673 l 209 70 q 231 49 209 62 q 305 29 253 36 l 305 0 l 33 0 m 477 943 l 406 943 l 230 1151 q 238 1162 235 1157 q 245 1170 242 1167 q 251 1176 248 1174 q 260 1183 255 1179 l 443 1039 l 623 1183 q 638 1170 634 1176 q 651 1151 643 1164 l 477 943 "},"ừ":{"x_min":27.265625,"x_max":834,"ha":834,"o":"m 834 707 q 823 662 834 688 q 787 608 813 637 q 718 549 762 579 q 608 491 674 519 l 608 172 q 611 103 608 130 q 623 70 614 77 q 650 68 631 65 q 704 86 670 71 l 710 55 q 662 25 685 39 q 620 1 639 11 q 586 -14 600 -8 q 563 -20 571 -20 q 524 11 539 -20 q 510 112 510 42 q 432 44 466 70 q 369 4 398 18 q 316 -14 340 -9 q 270 -20 292 -20 q 211 -11 239 -20 q 160 20 182 -2 q 125 84 138 44 q 113 189 113 125 l 113 482 q 111 533 113 515 q 100 560 109 551 q 75 572 92 569 q 27 579 57 576 l 27 606 q 72 613 51 609 q 112 623 93 617 q 152 635 132 628 q 194 651 172 642 l 213 625 l 213 226 q 219 147 213 179 q 239 96 226 115 q 271 69 252 77 q 314 61 290 61 q 357 67 335 61 q 403 87 380 73 q 452 123 427 101 q 508 177 478 145 l 508 483 q 505 532 508 513 q 492 560 502 550 q 463 574 482 570 q 415 579 445 579 l 415 606 q 506 625 462 612 q 588 651 550 638 l 608 625 l 608 538 q 659 568 638 553 q 693 599 680 584 q 713 627 707 614 q 720 652 720 641 q 710 689 720 671 q 681 722 700 707 l 799 777 q 824 744 814 762 q 834 707 834 726 m 437 731 q 420 718 428 723 q 400 710 411 713 l 167 966 l 181 994 q 201 998 188 996 q 228 1003 214 1000 q 256 1007 242 1006 q 278 1010 270 1009 l 437 731 "},"Ợ":{"x_min":47,"x_max":811,"ha":817,"o":"m 653 426 q 645 519 653 473 q 622 606 637 565 q 584 682 606 647 q 534 742 562 716 q 473 782 506 767 q 402 797 439 797 q 295 771 342 797 q 216 698 249 746 q 167 584 184 651 q 150 434 150 517 q 170 290 150 358 q 224 171 190 223 q 304 90 259 120 q 402 61 350 61 q 503 84 457 61 q 583 153 549 107 q 635 268 616 200 q 653 426 653 337 m 811 944 q 803 906 811 927 q 778 861 796 885 q 730 812 760 837 q 654 761 700 786 q 731 614 705 698 q 757 438 757 529 q 727 263 757 346 q 645 117 697 180 q 526 17 594 54 q 382 -20 458 -20 q 240 15 302 -20 q 135 112 177 51 q 69 251 92 172 q 47 415 47 329 q 76 590 47 507 q 156 737 105 674 q 274 837 206 800 q 421 875 342 875 q 532 853 482 875 q 622 796 582 832 q 679 846 661 821 q 697 889 697 871 q 687 926 697 908 q 658 959 677 944 l 776 1014 q 801 981 791 999 q 811 944 811 963 m 476 -189 q 470 -225 476 -208 q 453 -254 464 -242 q 429 -274 443 -267 q 398 -282 415 -282 q 355 -265 368 -282 q 343 -217 343 -248 q 348 -181 343 -198 q 365 -151 354 -164 q 389 -132 376 -139 q 419 -125 403 -125 q 476 -189 476 -125 "},"ƴ":{"x_min":-31,"x_max":919,"ha":673,"o":"m 271 601 q 228 595 245 598 q 203 586 212 591 q 193 574 194 581 q 195 555 191 566 l 359 123 l 528 599 q 593 733 557 680 q 666 818 628 786 q 741 862 704 849 q 811 875 778 875 q 850 871 831 875 q 885 863 870 868 q 909 852 900 858 q 919 839 919 845 q 911 823 919 835 q 893 797 904 811 q 867 770 881 783 q 841 748 853 756 q 816 761 827 756 q 794 767 804 765 q 774 769 784 769 l 758 769 q 716 757 738 769 q 674 724 695 745 q 634 670 653 702 q 601 598 615 639 l 360 -63 q 295 -196 331 -143 q 222 -281 260 -250 q 146 -326 184 -313 q 76 -339 109 -339 q 37 -335 56 -339 q 2 -327 17 -332 q -21 -316 -12 -322 q -31 -303 -31 -309 q -23 -287 -31 -299 q -4 -261 -16 -275 q 20 -233 6 -247 q 47 -212 33 -220 q 94 -231 73 -229 q 129 -234 115 -234 q 172 -222 150 -234 q 216 -188 194 -210 q 256 -134 237 -166 q 291 -61 276 -102 l 306 -19 l 87 555 q 64 584 81 574 q 14 601 47 594 l 14 631 l 271 631 l 271 601 "},"É":{"x_min":33,"x_max":633.859375,"ha":675,"o":"m 633 165 q 620 63 628 107 q 606 0 611 19 l 33 0 l 33 29 q 104 49 78 38 q 130 70 130 61 l 130 782 q 105 803 130 790 q 33 824 81 815 l 33 854 l 568 854 l 590 837 q 587 798 590 819 q 580 756 584 777 q 571 716 576 735 q 563 684 567 697 l 533 684 q 528 736 533 715 q 517 770 524 757 q 501 787 511 782 q 479 793 491 793 l 236 793 l 236 498 l 505 498 l 522 479 q 509 458 517 469 q 493 437 501 447 q 476 417 485 426 q 461 403 468 409 q 439 420 451 413 q 413 432 428 427 q 377 438 398 436 q 329 441 357 441 l 236 441 l 236 104 q 240 86 236 94 q 259 72 245 78 q 301 64 274 67 q 371 61 327 61 l 457 61 q 509 64 487 61 q 547 79 530 67 q 577 114 564 91 q 605 177 591 137 l 633 165 m 245 926 q 229 937 234 931 q 216 957 224 944 l 473 1172 q 491 1161 479 1167 q 514 1147 502 1155 q 536 1134 526 1140 q 551 1121 546 1127 l 557 1091 l 245 926 "},"ṅ":{"x_min":37,"x_max":732,"ha":752,"o":"m 446 0 l 446 29 q 516 51 493 42 q 539 70 539 61 l 539 429 q 534 496 539 470 q 519 537 529 522 q 493 557 509 552 q 453 563 477 563 q 408 552 433 563 q 353 520 382 542 q 293 461 325 497 q 230 372 261 425 l 230 70 q 254 49 230 60 q 323 29 279 38 l 323 0 l 37 0 l 37 29 q 105 50 80 40 q 130 70 130 59 l 130 482 q 128 524 130 508 q 117 548 126 539 q 89 561 108 557 q 37 569 70 565 l 37 596 q 120 618 82 604 q 196 651 159 632 l 223 627 l 223 458 q 291 539 256 504 q 362 599 326 575 q 432 637 398 624 q 491 651 465 651 q 547 642 520 651 q 594 615 573 633 q 626 568 614 596 q 639 502 639 540 l 639 70 q 659 52 639 61 q 732 29 679 42 l 732 0 l 446 0 m 450 855 q 444 819 450 836 q 427 790 438 802 q 403 770 417 777 q 372 763 389 763 q 329 779 342 763 q 317 827 317 796 q 322 863 317 846 q 339 893 328 880 q 363 912 350 905 q 393 920 377 920 q 450 855 450 920 "},"³":{"x_min":24.78125,"x_max":390,"ha":447,"o":"m 390 575 q 376 510 390 540 q 338 457 363 480 q 276 421 312 434 q 195 408 240 408 q 109 423 153 408 q 24 475 66 439 l 40 502 q 79 480 61 489 q 114 465 97 470 q 148 458 131 460 q 182 456 165 456 q 270 482 237 456 q 303 561 303 509 q 292 613 303 592 q 265 646 282 633 q 229 665 249 659 q 190 670 209 670 l 180 670 q 174 670 177 670 q 169 669 172 669 q 158 667 165 668 l 152 699 q 218 722 193 709 q 255 748 242 734 q 272 776 268 762 q 276 802 276 790 q 271 830 276 817 q 258 854 267 843 q 233 871 248 865 q 197 878 218 878 q 144 861 162 878 q 131 816 126 844 q 95 804 116 808 q 54 801 73 801 l 41 813 q 56 849 41 830 q 96 885 71 868 q 154 912 121 901 q 223 923 187 923 q 285 913 259 923 q 328 887 311 903 q 353 851 345 871 q 362 810 362 830 q 355 779 362 794 q 336 749 348 763 q 305 723 323 735 q 264 704 287 711 q 314 690 291 701 q 354 662 337 679 q 380 622 370 644 q 390 575 390 599 "},"Ṧ":{"x_min":80,"x_max":589,"ha":649,"o":"m 589 255 q 581 193 589 225 q 556 130 573 161 q 516 72 540 99 q 458 24 491 45 q 384 -7 426 4 q 293 -20 342 -20 q 245 -15 271 -20 q 191 -2 219 -10 q 137 18 164 6 q 87 46 110 30 q 81 69 82 48 q 80 116 80 89 q 80 172 80 144 q 87 219 80 201 l 114 216 q 152 147 129 176 q 203 98 175 117 q 263 70 231 79 q 330 61 296 61 q 390 73 360 61 q 444 107 420 86 q 483 158 468 129 q 499 219 499 187 q 481 290 499 261 q 434 343 463 320 q 367 385 405 366 q 291 421 330 403 q 215 460 252 440 q 149 507 178 480 q 102 570 120 535 q 85 655 85 606 q 90 701 85 676 q 110 750 96 725 q 144 797 123 774 q 195 837 165 820 q 263 864 224 854 q 350 875 301 875 q 410 870 380 875 q 466 857 440 865 q 514 837 493 849 q 547 812 535 826 q 547 796 552 808 q 534 770 543 784 q 514 743 525 756 q 495 722 503 729 l 471 726 q 432 763 453 748 q 391 789 412 779 q 349 802 370 798 q 310 807 329 807 q 247 795 273 807 q 203 766 220 783 q 178 727 186 749 q 171 687 171 706 q 188 631 171 655 q 236 585 206 606 q 302 546 265 564 q 379 508 340 528 q 456 465 419 488 q 523 412 494 442 q 571 344 553 382 q 589 255 589 305 m 368 944 l 297 944 l 122 1152 q 129 1163 126 1159 q 136 1172 133 1168 q 142 1178 139 1175 q 151 1184 146 1180 l 334 1041 l 514 1184 q 530 1172 525 1178 q 543 1152 535 1165 l 368 944 m 399 1262 q 393 1226 399 1243 q 376 1197 387 1209 q 352 1177 366 1184 q 321 1170 338 1170 q 278 1186 291 1170 q 266 1234 266 1203 q 271 1270 266 1253 q 288 1300 277 1287 q 312 1319 299 1312 q 342 1327 326 1327 q 399 1262 399 1327 "},"ṗ":{"x_min":37,"x_max":669,"ha":722,"o":"m 579 288 q 565 398 579 347 q 529 486 551 449 q 476 544 506 523 q 414 566 446 566 q 383 558 402 566 q 339 533 364 551 q 287 486 315 515 q 230 413 259 456 l 230 144 q 285 106 259 121 q 333 83 311 91 q 375 71 355 74 q 413 68 395 68 q 479 82 449 68 q 531 124 509 96 q 566 193 553 152 q 579 288 579 234 m 669 333 q 659 253 669 294 q 631 172 649 211 q 590 97 614 133 q 538 36 566 62 q 478 -4 510 10 q 414 -20 447 -20 q 326 2 375 -20 q 230 66 277 24 l 230 -253 q 255 -275 230 -264 q 342 -295 280 -286 l 342 -325 l 37 -325 l 37 -295 q 105 -275 80 -285 q 130 -253 130 -265 l 130 482 q 127 524 130 507 q 115 550 124 540 q 87 564 105 560 q 37 569 68 569 l 37 596 q 80 607 59 601 q 120 619 100 613 q 158 633 139 625 q 196 651 177 641 l 222 627 l 222 492 q 292 563 259 533 q 357 612 326 593 q 413 641 387 631 q 459 651 440 651 q 543 629 504 651 q 609 566 581 607 q 653 466 637 525 q 669 333 669 407 m 419 855 q 413 819 419 836 q 396 790 407 802 q 372 770 386 777 q 341 763 358 763 q 298 779 311 763 q 286 827 286 796 q 291 863 286 846 q 308 893 297 880 q 332 912 319 905 q 362 920 346 920 q 419 855 419 920 "},"[":{"x_min":93,"x_max":392.03125,"ha":419,"o":"m 392 -168 q 383 -198 388 -182 q 372 -227 378 -215 l 93 -227 l 93 1085 l 368 1085 l 390 1067 q 382 1032 387 1050 q 372 1007 376 1015 l 186 1007 l 186 -149 l 368 -149 l 392 -168 "},"Ǹ":{"x_min":33,"x_max":851,"ha":884,"o":"m 33 0 l 33 29 q 105 48 82 35 q 129 70 129 61 l 129 778 q 83 810 107 799 q 33 824 58 820 l 33 854 l 173 854 q 190 852 183 854 q 203 845 196 850 q 217 829 209 839 q 237 801 224 818 l 674 187 l 674 782 q 652 804 674 790 q 578 824 630 817 l 578 854 l 851 854 l 851 824 q 778 805 802 818 q 754 782 754 792 l 754 -20 q 701 -6 720 -16 q 674 14 682 2 l 209 673 l 209 70 q 231 49 209 62 q 305 29 253 36 l 305 0 l 33 0 m 559 957 q 545 937 550 944 q 529 926 540 931 l 217 1091 l 222 1121 q 237 1134 227 1127 q 259 1147 248 1140 q 283 1161 271 1155 q 301 1172 294 1167 l 559 957 "},"Ḗ":{"x_min":33,"x_max":633.859375,"ha":675,"o":"m 633 165 q 620 63 628 107 q 606 0 611 19 l 33 0 l 33 29 q 104 49 78 38 q 130 70 130 61 l 130 782 q 105 803 130 790 q 33 824 81 815 l 33 854 l 568 854 l 590 837 q 587 798 590 819 q 580 756 584 777 q 571 716 576 735 q 563 684 567 697 l 533 684 q 528 736 533 715 q 517 770 524 757 q 501 787 511 782 q 479 793 491 793 l 236 793 l 236 498 l 505 498 l 522 479 q 509 458 517 469 q 493 437 501 447 q 476 417 485 426 q 461 403 468 409 q 439 420 451 413 q 413 432 428 427 q 377 438 398 436 q 329 441 357 441 l 236 441 l 236 104 q 240 86 236 94 q 259 72 245 78 q 301 64 274 67 q 371 61 327 61 l 457 61 q 509 64 487 61 q 547 79 530 67 q 577 114 564 91 q 605 177 591 137 l 633 165 m 564 1058 q 560 1041 563 1051 q 552 1021 556 1031 q 545 1002 548 1012 q 538 987 541 993 l 130 987 l 115 1003 q 120 1020 117 1011 q 127 1040 123 1030 q 135 1059 131 1049 q 143 1075 139 1068 l 550 1075 l 564 1058 m 245 1144 q 229 1155 234 1148 q 216 1174 224 1161 l 473 1389 q 491 1379 479 1385 q 514 1365 502 1372 q 536 1351 526 1358 q 551 1339 546 1344 l 557 1308 l 245 1144 "},"∏":{"x_min":33,"x_max":812,"ha":858,"o":"m 33 0 l 33 29 q 104 50 78 38 q 130 70 130 61 l 130 783 q 105 803 130 791 q 33 825 80 816 l 33 855 l 812 855 l 812 825 q 740 804 766 816 q 715 783 715 793 l 715 70 q 739 50 715 62 q 812 29 763 38 l 812 0 l 512 0 l 512 29 q 583 50 557 38 q 609 70 609 61 l 609 750 q 600 766 609 758 q 573 781 591 774 q 530 792 556 788 q 472 797 505 797 l 361 797 q 306 792 330 797 q 267 781 283 788 q 243 767 251 775 q 236 750 236 759 l 236 70 q 260 50 236 62 q 333 29 284 38 l 333 0 l 33 0 "},"Ḥ":{"x_min":33,"x_max":844,"ha":890,"o":"m 33 0 l 33 29 q 104 49 78 38 q 130 70 130 60 l 130 783 q 105 803 130 791 q 33 825 81 815 l 33 854 l 332 854 l 332 825 q 261 804 286 815 q 236 783 236 792 l 236 478 l 641 478 l 641 783 q 617 803 641 791 q 545 825 592 815 l 545 854 l 844 854 l 844 825 q 772 804 798 815 q 747 783 747 792 l 747 70 q 771 50 747 62 q 844 29 795 38 l 844 0 l 545 0 l 545 29 q 615 49 590 38 q 641 70 641 60 l 641 417 l 236 417 l 236 70 q 259 50 236 62 q 332 29 283 38 l 332 0 l 33 0 m 505 -189 q 499 -225 505 -208 q 482 -254 493 -242 q 458 -274 472 -267 q 427 -282 444 -282 q 384 -265 397 -282 q 372 -217 372 -248 q 377 -181 372 -198 q 394 -151 383 -164 q 418 -132 405 -139 q 448 -125 432 -125 q 505 -189 505 -125 "},"ḥ":{"x_min":37,"x_max":732,"ha":752,"o":"m 446 0 l 446 29 q 516 51 493 42 q 539 70 539 61 l 539 429 q 534 496 539 470 q 518 537 529 522 q 491 557 507 552 q 453 563 475 563 q 403 550 430 563 q 347 514 376 538 q 288 455 318 491 q 230 372 258 419 l 230 70 q 254 49 230 60 q 323 29 279 38 l 323 0 l 37 0 l 37 29 q 105 50 80 40 q 130 70 130 59 l 130 880 q 127 924 130 908 q 115 949 125 940 q 87 961 106 958 q 37 969 68 965 l 37 996 q 87 1007 64 1002 q 130 1019 110 1013 q 168 1033 150 1026 q 205 1051 186 1040 l 230 1028 l 230 464 q 293 541 258 507 q 363 600 328 576 q 432 638 398 625 q 491 651 465 651 q 547 642 520 651 q 594 615 573 633 q 626 568 614 596 q 639 502 639 540 l 639 70 q 659 52 639 61 q 732 29 679 42 l 732 0 l 446 0 m 450 -189 q 444 -225 450 -208 q 427 -254 438 -242 q 403 -274 417 -267 q 372 -282 389 -282 q 329 -265 342 -282 q 317 -217 317 -248 q 322 -181 317 -198 q 339 -151 328 -164 q 363 -132 350 -139 q 393 -125 377 -125 q 450 -189 450 -125 "},"ˋ":{"x_min":0,"x_max":271.15625,"ha":271,"o":"m 271 731 q 253 718 262 722 q 233 709 245 713 l 0 965 l 14 993 q 34 997 21 995 q 61 1002 47 1000 q 89 1007 75 1005 q 111 1009 103 1009 l 271 731 "},"ğ":{"x_min":20,"x_max":657.625,"ha":664,"o":"m 459 406 q 447 474 459 442 q 412 531 435 507 q 355 569 389 555 q 276 583 321 583 q 240 574 260 583 q 201 548 219 565 q 171 505 183 531 q 160 446 160 479 q 170 378 160 410 q 204 322 181 346 q 260 284 226 298 q 342 271 294 271 q 382 279 361 271 q 420 305 403 287 q 448 347 437 322 q 459 406 459 372 m 344 -2 q 297 3 319 0 q 257 10 276 6 q 182 -36 210 -15 q 141 -74 155 -57 q 123 -104 127 -90 q 120 -128 120 -118 q 138 -182 120 -157 q 188 -226 157 -208 q 260 -256 219 -245 q 347 -268 301 -268 q 428 -255 391 -268 q 490 -222 464 -243 q 530 -171 516 -200 q 545 -106 545 -141 q 536 -71 545 -87 q 505 -42 527 -55 q 443 -19 482 -29 q 344 -2 405 -9 m 552 434 q 529 339 552 382 q 468 265 506 296 q 384 217 431 234 q 288 200 337 200 l 285 200 q 241 154 253 172 q 230 132 230 136 q 236 116 230 124 q 262 101 243 109 q 315 87 281 94 q 400 74 348 80 q 520 50 472 66 q 595 12 567 33 q 634 -33 623 -8 q 645 -81 645 -57 q 631 -152 645 -118 q 593 -214 617 -185 q 536 -265 569 -242 q 466 -305 504 -288 q 389 -330 429 -321 q 310 -339 349 -339 q 246 -334 279 -339 q 180 -320 212 -330 q 118 -296 147 -311 q 67 -261 89 -282 q 32 -214 45 -240 q 20 -155 20 -188 q 26 -118 20 -137 q 51 -76 32 -99 q 105 -28 71 -54 q 197 28 140 -2 q 137 63 154 44 q 121 103 121 83 q 124 118 121 109 q 138 140 127 127 q 167 170 148 153 q 216 209 186 187 q 155 236 183 218 q 108 280 128 254 q 77 337 88 305 q 67 408 67 370 q 88 502 67 457 q 146 579 110 546 q 228 631 182 612 q 322 651 274 651 q 397 639 362 651 q 460 606 432 627 q 523 615 495 610 q 573 627 551 621 q 613 639 595 633 q 644 651 630 645 l 657 630 q 642 595 649 611 q 619 562 635 579 q 570 554 594 557 q 515 552 545 552 q 542 496 532 525 q 552 434 552 467 m 548 922 q 503 829 528 867 q 451 768 478 792 q 393 735 423 745 q 333 725 363 725 q 270 735 301 725 q 212 768 240 745 q 160 829 185 792 q 116 922 136 867 q 132 940 124 934 q 151 952 140 947 q 190 887 168 914 q 235 845 211 861 q 284 822 259 829 q 331 815 309 815 q 380 822 354 815 q 429 845 405 829 q 475 887 454 861 q 513 952 497 914 q 532 940 524 947 q 548 922 540 934 "},"Ở":{"x_min":47,"x_max":811,"ha":817,"o":"m 653 426 q 645 519 653 473 q 622 606 637 565 q 584 682 606 647 q 534 742 562 716 q 473 782 506 767 q 402 797 439 797 q 295 771 342 797 q 216 698 249 746 q 167 584 184 651 q 150 434 150 517 q 170 290 150 358 q 224 171 190 223 q 304 90 259 120 q 402 61 350 61 q 503 84 457 61 q 583 153 549 107 q 635 268 616 200 q 653 426 653 337 m 811 944 q 803 906 811 927 q 778 861 796 885 q 730 812 760 837 q 654 761 700 786 q 731 614 705 698 q 757 438 757 529 q 727 263 757 346 q 645 117 697 180 q 526 17 594 54 q 382 -20 458 -20 q 240 15 302 -20 q 135 112 177 51 q 69 251 92 172 q 47 415 47 329 q 76 590 47 507 q 156 737 105 674 q 274 837 206 800 q 421 875 342 875 q 532 853 482 875 q 622 796 582 832 q 679 846 661 821 q 697 889 697 871 q 687 926 697 908 q 658 959 677 944 l 776 1013 q 801 981 791 999 q 811 944 811 963 m 521 1121 q 508 1087 521 1102 q 480 1059 496 1072 q 447 1034 463 1046 q 424 1010 432 1022 q 423 984 417 997 q 458 953 430 970 q 438 945 448 946 q 417 942 427 944 q 372 970 386 957 q 355 993 358 982 q 358 1013 352 1004 q 376 1032 364 1023 q 401 1050 387 1041 q 428 1068 415 1059 q 448 1088 440 1078 q 457 1111 457 1099 q 444 1150 457 1137 q 411 1163 431 1163 q 393 1159 401 1163 q 378 1149 384 1155 q 369 1135 372 1143 q 366 1121 366 1128 q 367 1113 366 1117 q 371 1106 369 1110 q 357 1102 366 1104 q 339 1097 349 1099 q 321 1094 330 1095 q 305 1091 311 1092 l 298 1099 l 298 1108 q 310 1140 298 1124 q 342 1168 323 1155 q 386 1188 362 1180 q 433 1196 410 1196 q 498 1175 475 1196 q 521 1121 521 1155 "},"Ṙ":{"x_min":27.015625,"x_max":756.890625,"ha":764,"o":"m 33 0 l 33 29 q 104 49 78 38 q 130 70 130 60 l 130 806 q 82 799 106 803 q 33 792 57 795 l 27 834 q 90 849 58 842 q 156 862 122 856 q 229 871 191 868 q 311 875 267 875 q 445 859 388 875 q 540 816 502 843 q 597 750 578 788 q 616 669 616 712 q 602 581 616 620 q 563 510 588 541 q 504 458 538 480 q 428 424 469 437 l 629 94 q 651 69 639 78 q 677 56 663 60 q 709 52 691 52 q 749 54 726 52 l 756 25 q 673 0 713 10 q 608 -9 633 -9 q 570 1 588 -9 q 542 27 552 12 l 341 408 q 324 407 332 407 l 306 407 q 271 408 288 407 q 236 414 254 410 l 236 70 q 259 50 236 62 q 332 29 283 38 l 332 0 l 33 0 m 287 817 q 236 817 261 817 l 236 469 q 267 465 253 465 q 295 465 280 465 q 456 511 400 465 q 512 648 512 558 q 500 716 512 685 q 459 769 487 747 q 389 804 431 792 q 287 817 346 817 m 412 1044 q 406 1008 412 1025 q 389 979 400 991 q 365 959 379 966 q 334 952 351 952 q 291 968 304 952 q 279 1016 279 985 q 284 1052 279 1035 q 301 1082 290 1069 q 325 1101 312 1094 q 355 1109 339 1109 q 412 1044 412 1109 "},"ª":{"x_min":33,"x_max":342.28125,"ha":349,"o":"m 342 520 q 291 490 311 499 q 260 482 270 482 q 241 495 250 482 q 226 538 231 509 q 164 494 195 507 q 110 482 133 482 q 83 486 97 482 q 58 499 70 490 q 40 522 47 508 q 33 559 33 537 q 64 633 33 601 q 163 684 96 665 l 225 700 l 225 712 q 222 749 225 733 q 214 775 220 764 q 197 792 208 786 q 167 798 185 798 q 147 793 157 798 q 128 780 136 788 q 116 759 120 771 q 118 733 113 748 q 110 726 119 730 q 89 719 101 722 q 66 715 77 716 q 50 714 54 713 l 44 728 q 65 769 47 749 q 107 804 83 789 q 156 828 131 819 q 199 837 181 837 q 239 830 223 837 q 266 808 256 823 q 281 766 276 792 q 286 703 286 740 l 286 570 q 288 543 286 552 q 295 530 291 535 q 309 529 298 528 q 338 537 319 530 l 342 520 m 35 397 l 35 447 l 323 447 l 323 397 l 35 397 m 225 569 l 225 672 l 196 664 q 148 646 167 656 q 117 626 129 637 q 102 602 106 614 q 98 575 98 589 q 101 552 98 560 q 110 538 105 543 q 121 531 115 533 q 132 529 127 529 q 176 538 153 529 q 225 569 199 548 "},"T":{"x_min":6.609375,"x_max":719,"ha":750,"o":"m 204 0 l 204 28 q 255 41 234 34 q 289 54 276 48 q 307 67 301 61 q 313 77 313 72 l 313 793 l 114 793 q 96 789 104 793 q 79 773 87 785 q 60 737 71 761 q 35 674 49 713 l 6 687 q 15 772 9 727 q 28 854 21 818 l 699 854 l 719 837 q 713 761 719 802 q 699 677 707 720 l 669 677 q 658 730 663 708 q 646 766 653 752 q 630 786 639 780 q 607 793 621 793 l 419 793 l 419 77 q 442 55 419 68 q 528 28 466 41 l 528 0 l 204 0 "},"š":{"x_min":53.03125,"x_max":473.640625,"ha":525,"o":"m 465 192 q 451 109 465 144 q 417 51 438 75 q 369 13 395 28 q 318 -7 343 0 q 271 -17 293 -15 q 236 -20 248 -20 q 159 -7 204 -20 q 70 29 114 4 q 64 51 65 31 q 63 97 63 71 q 66 150 63 123 q 74 192 69 176 l 104 184 q 117 131 104 156 q 153 87 130 106 q 205 58 175 69 q 269 48 234 48 q 313 55 293 48 q 348 77 333 63 q 370 111 362 91 q 379 154 379 130 q 364 202 379 181 q 327 240 350 223 q 274 273 303 258 q 213 304 244 288 q 159 335 185 319 q 113 371 133 351 q 81 417 93 392 q 69 474 69 442 q 85 549 69 516 q 129 604 102 582 q 192 639 157 627 q 266 651 228 651 q 311 647 287 651 q 361 636 336 643 q 406 620 385 629 q 441 598 427 611 q 442 580 445 594 q 432 549 439 566 q 419 517 426 532 q 408 497 412 502 l 382 502 q 316 570 350 551 q 249 590 281 590 q 209 582 227 590 q 179 563 192 575 q 161 537 167 551 q 155 508 155 522 q 167 469 155 487 q 201 437 180 452 q 248 408 221 421 q 302 379 274 394 q 360 347 331 364 q 412 308 389 330 q 450 258 435 286 q 465 192 465 230 m 299 727 l 228 727 l 53 969 q 60 980 57 975 q 67 988 64 985 q 73 994 70 992 q 82 1000 77 997 l 265 830 l 445 1000 q 461 988 456 994 q 473 969 465 982 l 299 727 "},"":{"x_min":39.875,"x_max":410.0625,"ha":450,"o":"m 410 247 q 400 215 406 232 q 390 186 394 198 l 56 186 l 39 204 q 48 234 43 217 q 60 264 54 250 l 393 264 l 410 247 m 410 422 q 400 391 406 409 l 390 363 l 56 363 l 39 380 q 48 410 43 393 q 60 440 54 427 l 393 440 l 410 422 "},"Þ":{"x_min":33,"x_max":653.015625,"ha":712,"o":"m 33 0 l 33 29 q 104 50 78 38 q 130 70 130 61 l 130 783 q 105 803 130 791 q 33 825 80 816 l 33 854 l 353 854 l 353 825 q 296 814 318 819 q 260 803 273 808 q 241 793 246 798 q 236 783 236 788 l 236 687 q 339 692 278 692 q 468 676 411 692 q 567 630 526 660 q 630 555 608 599 q 653 451 653 510 q 640 366 653 405 q 605 297 627 327 q 555 245 583 267 q 497 208 528 223 q 437 187 467 194 q 381 180 407 180 q 323 185 350 180 q 274 202 296 190 l 258 250 q 312 234 286 237 q 361 231 338 231 q 425 243 391 231 q 486 279 458 255 q 532 339 514 303 q 550 423 550 375 q 530 519 550 479 q 476 584 510 559 q 397 622 442 610 q 301 634 352 634 q 236 634 267 634 l 236 70 q 241 62 236 66 q 259 51 246 57 q 295 40 272 46 q 353 29 318 35 l 353 0 l 33 0 "},"j":{"x_min":-146,"x_max":256,"ha":352,"o":"m 236 67 q 226 -65 236 -10 q 199 -158 216 -119 q 159 -223 182 -196 q 109 -271 136 -249 q 71 -297 91 -285 q 32 -319 51 -310 q -5 -333 12 -328 q -35 -339 -23 -339 q -75 -333 -56 -339 q -111 -321 -95 -328 q -136 -305 -126 -314 q -146 -292 -146 -297 q -136 -275 -146 -286 q -113 -253 -126 -265 q -85 -232 -100 -242 q -61 -217 -71 -222 q -18 -242 -40 -236 q 28 -248 4 -248 q 66 -235 48 -248 q 100 -191 85 -222 q 124 -106 115 -160 q 134 28 134 -53 l 134 454 q 134 509 134 488 q 125 542 134 530 q 96 560 116 554 q 42 569 77 565 l 42 596 q 92 607 70 601 q 133 620 114 613 q 171 634 153 626 q 211 651 190 642 l 236 651 l 236 67 m 256 854 q 250 818 256 835 q 233 789 244 801 q 209 769 223 776 q 179 762 195 762 q 136 778 149 762 q 123 826 123 795 q 128 862 123 845 q 145 892 134 879 q 169 911 155 904 q 199 919 183 919 q 256 854 256 919 "},"1":{"x_min":92.390625,"x_max":558,"ha":638,"o":"m 113 0 l 113 35 q 199 49 164 42 q 254 65 233 57 q 283 81 274 73 q 292 97 292 89 l 292 637 q 290 679 292 664 q 280 704 288 694 q 264 710 276 707 q 232 713 253 713 q 181 708 212 713 q 106 694 150 704 l 92 729 q 158 751 120 737 q 235 782 196 765 q 310 815 274 799 q 367 844 345 832 l 392 820 l 392 97 q 399 82 392 90 q 425 66 406 74 q 475 50 443 58 q 558 35 508 42 l 558 0 l 113 0 "},"ɣ":{"x_min":13,"x_max":657,"ha":671,"o":"m 327 28 q 290 -50 305 -17 q 267 -106 275 -83 q 255 -144 258 -128 q 252 -170 252 -159 q 259 -217 252 -198 q 277 -247 266 -236 q 302 -263 289 -259 q 329 -268 316 -268 q 354 -261 342 -268 q 377 -245 367 -255 q 393 -220 387 -234 q 400 -191 400 -206 q 397 -156 400 -172 q 389 -119 395 -139 q 371 -72 382 -99 q 343 -6 360 -46 l 327 28 m 657 601 q 624 592 637 597 q 604 583 612 588 q 592 571 597 578 q 583 555 588 565 l 386 149 l 421 72 q 453 0 440 31 q 475 -56 467 -30 q 488 -107 484 -82 q 492 -159 492 -131 q 482 -215 492 -184 q 451 -274 472 -246 q 397 -320 430 -301 q 321 -339 365 -339 q 265 -328 291 -339 q 219 -298 239 -317 q 189 -252 200 -279 q 178 -192 178 -225 q 180 -157 178 -175 q 190 -116 183 -139 q 210 -63 198 -93 q 242 6 222 -33 l 291 108 l 86 555 q 62 583 79 573 q 13 601 46 594 l 13 631 l 270 631 l 270 601 q 228 594 244 598 q 204 585 212 590 q 196 573 196 580 q 200 555 195 565 l 348 230 l 505 555 q 508 572 509 565 q 499 584 507 579 q 475 594 491 590 q 435 601 459 597 l 435 631 l 657 631 l 657 601 "},"ɩ":{"x_min":32.609375,"x_max":397.5,"ha":384,"o":"m 397 91 q 334 37 363 59 q 281 3 305 15 q 238 -14 257 -9 q 207 -20 219 -20 q 166 -10 181 -20 q 141 18 150 -1 q 128 67 131 37 q 125 137 125 97 l 125 454 q 125 510 125 488 q 116 543 125 531 q 88 560 107 555 q 32 569 68 566 l 32 596 q 76 606 53 600 q 122 619 99 612 q 165 634 144 626 q 202 651 186 642 l 228 651 l 228 205 q 228 133 228 159 q 233 93 228 106 q 248 75 239 79 q 274 72 258 72 q 312 83 281 72 q 386 126 343 95 l 397 91 "},"Ǜ":{"x_min":33,"x_max":847,"ha":890,"o":"m 847 825 q 776 804 801 816 q 751 783 751 793 l 751 355 q 729 197 751 266 q 668 79 708 127 q 571 5 628 30 q 442 -20 514 -20 q 316 0 374 -20 q 218 58 259 18 q 153 158 176 98 q 130 301 130 218 l 130 783 q 105 804 130 791 q 33 825 81 816 l 33 855 l 332 855 l 332 825 q 261 804 286 816 q 236 783 236 793 l 236 335 q 250 218 236 270 q 295 131 265 167 q 368 76 325 95 q 468 58 411 58 q 552 81 516 58 q 614 142 589 104 q 652 229 639 180 q 665 327 665 277 l 665 783 q 640 804 665 791 q 568 825 615 816 l 568 855 l 847 855 l 847 825 m 649 1045 q 643 1009 649 1026 q 626 980 637 992 q 602 960 616 967 q 571 953 588 953 q 528 969 541 953 q 516 1017 516 986 q 521 1053 516 1036 q 538 1083 527 1070 q 562 1102 549 1095 q 592 1110 576 1110 q 649 1045 649 1110 m 383 1045 q 377 1009 383 1026 q 360 980 371 992 q 336 960 350 967 q 305 953 322 953 q 262 969 275 953 q 250 1017 250 986 q 255 1053 250 1036 q 272 1083 261 1070 q 296 1102 283 1095 q 326 1110 310 1110 q 383 1045 383 1110 m 567 1175 q 552 1155 557 1162 q 537 1144 547 1149 l 226 1309 l 231 1339 q 246 1352 235 1345 q 268 1365 256 1358 q 291 1379 280 1373 q 310 1390 302 1386 l 567 1175 "},"ǒ":{"x_min":53,"x_max":631.015625,"ha":684,"o":"m 528 309 q 510 411 528 362 q 466 496 493 459 q 404 555 438 533 q 336 577 369 577 q 251 557 285 577 q 195 503 216 537 q 165 422 174 469 q 156 321 156 375 q 174 219 156 267 q 221 133 193 170 q 283 75 249 97 q 347 54 317 54 q 429 72 395 54 q 484 123 462 90 q 517 203 506 157 q 528 309 528 250 m 631 329 q 619 240 631 283 q 588 158 608 197 q 540 86 568 119 q 479 30 512 53 q 407 -6 445 6 q 329 -20 369 -20 q 215 4 266 -20 q 128 71 164 28 q 72 173 92 114 q 53 301 53 232 q 63 389 53 346 q 94 472 74 433 q 141 544 114 511 q 202 600 169 576 q 275 638 236 624 q 355 651 314 651 q 468 627 417 651 q 555 559 519 602 q 611 457 591 516 q 631 329 631 398 m 391 727 l 320 727 l 144 969 q 152 980 149 975 q 158 988 156 985 q 165 994 161 992 q 174 1000 169 997 l 357 830 l 536 1000 q 552 988 547 994 q 565 969 557 982 l 391 727 "},"ĉ":{"x_min":53,"x_max":558.40625,"ha":595,"o":"m 558 129 q 482 47 515 76 q 421 2 449 17 q 366 -16 393 -12 q 309 -20 340 -20 q 214 2 260 -20 q 132 65 168 24 q 74 166 96 106 q 53 301 53 226 q 79 438 53 374 q 151 549 105 502 q 258 624 196 596 q 392 651 320 651 q 437 647 414 651 q 480 637 459 644 q 519 620 501 629 q 548 598 537 610 q 546 574 549 589 q 537 543 543 560 q 523 511 531 526 q 510 486 516 496 l 485 493 q 468 519 480 505 q 437 547 456 534 q 392 568 418 560 q 332 577 366 577 q 264 561 297 577 q 207 513 232 545 q 167 433 182 481 q 153 322 153 386 q 169 217 153 264 q 215 137 186 170 q 280 85 243 103 q 357 68 317 68 q 391 69 375 68 q 426 80 407 71 q 470 106 445 89 q 532 156 495 124 l 558 129 m 535 741 q 523 722 527 728 q 507 710 518 716 l 325 892 l 145 710 q 135 716 139 713 q 129 722 132 718 q 123 730 126 725 q 115 741 119 735 l 290 998 l 361 998 l 535 741 "},"Ɔ":{"x_min":41,"x_max":677.015625,"ha":730,"o":"m 677 460 q 648 264 677 352 q 570 113 620 176 q 450 14 519 49 q 300 -20 381 -20 q 186 -1 235 -20 q 105 48 138 17 q 56 114 72 78 q 41 186 41 151 q 49 241 41 214 q 81 293 58 267 q 111 308 95 301 q 144 322 128 315 q 175 333 160 328 q 202 343 190 339 l 217 310 q 186 287 198 298 q 168 263 174 276 q 159 236 161 251 q 157 203 157 222 q 169 152 157 178 q 204 106 181 127 q 258 71 226 85 q 330 58 291 58 q 420 77 376 58 q 498 140 465 96 q 553 256 532 184 q 574 434 574 329 q 548 592 574 525 q 482 706 522 660 q 392 774 441 751 q 295 797 343 797 q 255 792 277 797 q 205 778 233 788 q 144 749 178 767 q 71 702 111 731 q 63 708 67 704 q 57 717 60 712 q 51 726 53 722 q 47 733 48 731 q 130 806 91 778 q 205 849 169 834 q 274 869 241 864 q 342 875 308 875 q 464 847 404 875 q 572 766 524 819 q 648 635 619 712 q 677 460 677 558 "},"ī":{"x_min":25.078125,"x_max":368.234375,"ha":370,"o":"m 47 0 l 47 29 q 115 49 92 38 q 139 70 139 61 l 139 454 q 139 510 139 488 q 130 543 139 531 q 101 560 121 555 q 47 569 82 566 l 47 596 q 90 606 67 600 q 136 619 113 612 q 179 634 158 626 q 217 651 200 642 l 240 651 l 240 70 q 262 50 240 62 q 333 29 284 38 l 333 0 l 47 0 m 368 868 q 363 851 366 861 q 356 831 360 841 q 348 812 352 822 q 342 797 344 803 l 39 797 l 25 813 q 29 830 26 821 q 37 850 33 840 q 45 869 41 859 q 52 885 49 878 l 353 885 l 368 868 "},"Ď":{"x_min":27.015625,"x_max":746,"ha":806,"o":"m 300 816 q 235 816 266 816 l 235 104 q 241 80 235 89 q 277 62 250 68 q 356 57 304 57 q 450 79 402 57 q 540 148 499 102 q 607 265 581 195 q 633 431 633 335 q 611 592 633 521 q 546 713 589 663 q 442 789 504 763 q 300 816 380 816 m 746 456 q 729 305 746 372 q 683 188 712 239 q 617 101 654 137 q 538 43 579 66 q 453 10 496 20 q 371 0 410 0 l 33 0 l 33 29 q 103 49 78 38 q 129 70 129 61 l 129 805 q 78 798 102 801 q 33 791 54 794 l 27 833 q 94 850 56 842 q 175 864 132 858 q 261 871 217 871 q 343 871 304 871 q 510 842 436 871 q 637 761 585 814 q 717 631 689 708 q 746 456 746 554 m 400 943 l 329 943 l 154 1151 q 162 1162 158 1157 q 168 1170 165 1167 q 175 1176 171 1174 q 183 1183 178 1179 l 366 1039 l 546 1183 q 562 1170 557 1176 q 575 1151 567 1164 l 400 943 "},"&":{"x_min":53,"x_max":894.84375,"ha":908,"o":"m 295 766 q 306 684 295 727 q 337 596 317 641 q 411 648 383 622 q 456 699 440 674 q 479 748 473 724 q 485 794 485 772 q 479 839 485 818 q 461 876 473 860 q 432 901 449 892 q 391 911 414 911 q 349 898 367 911 q 319 865 331 885 q 301 819 307 845 q 295 766 295 793 m 351 57 q 454 75 407 57 q 539 124 502 93 q 471 200 506 159 q 402 286 436 241 q 337 379 368 331 q 282 476 307 427 q 225 419 248 446 q 187 363 202 391 q 167 308 173 336 q 161 252 161 281 q 176 168 161 205 q 219 107 192 132 q 280 69 246 82 q 351 57 314 57 m 894 507 q 861 472 878 486 q 829 446 845 458 q 801 457 817 452 q 770 466 786 462 q 740 471 755 469 q 714 474 725 474 q 726 451 722 462 q 733 429 731 441 q 736 402 736 417 q 736 368 736 387 q 715 266 736 320 q 657 162 695 212 q 741 86 703 117 q 796 57 767 64 q 864 59 825 50 l 870 30 q 772 -7 812 4 q 718 -20 733 -20 q 667 6 703 -20 q 582 80 630 34 q 467 8 531 36 q 331 -20 403 -20 q 217 -3 269 -20 q 130 45 166 13 q 73 126 93 78 q 53 238 53 175 q 66 316 53 276 q 104 394 79 355 q 167 470 130 432 q 252 542 205 507 q 222 636 233 590 q 211 728 211 683 q 228 829 211 783 q 276 911 246 876 q 345 964 306 945 q 426 984 384 984 q 497 970 468 984 q 544 933 526 956 q 569 879 561 910 q 577 817 577 849 q 533 683 577 745 q 411 571 490 621 q 386 555 398 563 q 365 540 375 547 q 417 451 388 496 q 478 365 446 407 q 544 282 510 322 q 612 206 578 242 q 645 275 634 240 q 656 340 656 309 q 646 393 656 368 q 622 437 637 419 q 588 467 607 456 q 549 478 569 478 l 535 497 q 556 516 542 506 q 584 532 571 526 l 879 532 l 894 507 "},"ṻ":{"x_min":27.265625,"x_max":710.359375,"ha":721,"o":"m 710 55 q 662 25 685 39 q 620 1 639 11 q 585 -14 600 -8 q 563 -20 571 -20 q 524 11 539 -20 q 510 112 510 42 q 432 44 467 70 q 369 4 398 18 q 316 -15 340 -10 q 271 -20 292 -20 q 211 -11 239 -20 q 160 20 182 -2 q 125 84 138 44 q 113 189 113 125 l 113 482 q 111 532 113 514 q 100 559 109 550 q 75 572 92 569 q 27 579 57 575 l 27 606 q 72 613 51 609 q 112 622 93 617 q 152 635 132 628 q 194 651 172 642 l 213 624 l 213 226 q 219 147 213 179 q 239 96 226 115 q 271 69 252 77 q 314 61 290 61 q 357 67 335 61 q 403 87 380 73 q 452 123 427 101 q 508 177 478 145 l 508 482 q 505 531 508 513 q 492 560 502 550 q 464 574 482 570 q 414 578 446 578 l 414 606 q 507 625 463 612 q 588 651 551 638 l 608 624 l 608 172 q 610 103 608 130 q 623 70 613 77 q 650 68 631 65 q 703 86 669 71 l 710 55 m 593 868 q 588 851 592 861 q 581 831 585 841 q 574 812 577 822 q 567 797 570 803 l 159 797 l 144 813 q 148 830 145 821 q 156 850 152 840 q 164 869 160 859 q 171 885 168 878 l 579 885 l 593 868 m 562 1099 q 556 1063 562 1080 q 539 1034 550 1046 q 515 1014 529 1021 q 484 1007 501 1007 q 441 1023 454 1007 q 429 1071 429 1040 q 434 1107 429 1090 q 451 1137 440 1124 q 475 1156 462 1149 q 505 1164 489 1164 q 562 1099 562 1164 m 296 1099 q 290 1063 296 1080 q 273 1034 284 1046 q 249 1014 263 1021 q 218 1007 235 1007 q 175 1023 188 1007 q 163 1071 163 1040 q 168 1107 163 1090 q 185 1137 174 1124 q 209 1156 196 1149 q 239 1164 223 1164 q 296 1099 296 1164 "},"G":{"x_min":47,"x_max":761,"ha":794,"o":"m 693 805 q 691 792 697 802 q 674 770 685 782 q 651 746 664 758 q 629 726 638 734 l 607 730 q 562 765 585 751 q 513 786 538 779 q 459 797 487 794 q 397 800 430 800 q 356 792 381 800 q 303 767 331 784 q 249 722 276 750 q 199 652 221 693 q 163 557 177 611 q 150 432 150 502 q 174 267 150 337 q 239 152 199 198 q 328 83 278 106 q 429 61 378 61 q 518 70 477 61 q 592 99 559 80 l 592 329 q 585 343 592 336 q 563 357 579 350 q 521 371 548 364 q 455 384 495 378 l 455 414 l 761 414 l 761 384 q 707 360 723 375 q 692 329 692 344 l 692 104 q 603 38 642 63 q 532 1 565 14 q 470 -15 499 -11 q 411 -20 441 -20 q 279 5 344 -20 q 162 82 213 30 q 78 212 110 134 q 47 394 47 289 q 81 596 47 507 q 177 747 116 685 q 318 842 237 809 q 490 875 399 875 q 538 870 512 875 q 592 856 564 865 q 645 834 619 847 q 693 805 671 822 "},"`":{"x_min":19.9375,"x_max":291.09375,"ha":434,"o":"m 291 731 q 275 719 285 725 q 253 709 265 713 l 19 965 l 34 993 q 54 997 41 994 q 81 1002 67 999 q 109 1007 95 1004 q 131 1009 123 1009 l 291 731 "},"ỗ":{"x_min":53,"x_max":631.015625,"ha":684,"o":"m 528 309 q 510 411 528 362 q 466 496 493 459 q 404 555 438 533 q 336 577 369 577 q 251 557 285 577 q 195 503 216 537 q 165 422 174 469 q 156 321 156 375 q 174 219 156 267 q 221 133 193 170 q 283 75 249 97 q 347 54 317 54 q 429 72 395 54 q 484 123 462 90 q 517 203 506 157 q 528 309 528 250 m 631 329 q 619 240 631 283 q 588 158 608 197 q 540 86 568 119 q 479 30 512 53 q 407 -6 445 6 q 329 -20 369 -20 q 215 4 266 -20 q 128 71 164 28 q 72 173 92 114 q 53 301 53 232 q 63 389 53 346 q 94 472 74 433 q 141 544 114 511 q 202 600 169 576 q 275 638 236 624 q 355 651 314 651 q 468 627 417 651 q 555 559 519 602 q 611 457 591 516 q 631 329 631 398 m 565 741 q 552 722 557 728 q 536 710 547 716 l 354 892 l 174 710 q 165 716 169 713 q 159 722 161 718 q 152 730 156 725 q 144 741 149 735 l 320 998 l 391 998 l 565 741 m 581 1218 q 553 1163 569 1190 q 516 1114 536 1136 q 472 1079 496 1093 q 422 1066 448 1066 q 378 1077 399 1066 q 337 1104 357 1089 q 297 1130 317 1118 q 258 1142 278 1142 q 210 1120 232 1142 q 163 1060 188 1098 l 128 1074 q 157 1129 140 1101 q 193 1178 173 1156 q 238 1213 214 1199 q 287 1227 261 1227 q 335 1215 312 1227 q 377 1189 357 1203 q 415 1162 397 1174 q 449 1151 433 1151 q 499 1172 474 1151 q 545 1233 523 1194 l 581 1218 "},"Ễ":{"x_min":33,"x_max":633.859375,"ha":675,"o":"m 633 165 q 620 63 628 107 q 606 0 611 19 l 33 0 l 33 29 q 104 49 78 38 q 130 70 130 61 l 130 782 q 105 803 130 790 q 33 824 81 815 l 33 854 l 568 854 l 590 837 q 587 798 590 819 q 580 756 584 777 q 571 716 576 735 q 563 684 567 697 l 533 684 q 528 736 533 715 q 517 770 524 757 q 501 787 511 782 q 479 793 491 793 l 236 793 l 236 498 l 505 498 l 522 479 q 509 458 517 469 q 493 437 501 447 q 476 417 485 426 q 461 403 468 409 q 439 420 451 413 q 413 432 428 427 q 377 438 398 436 q 329 441 357 441 l 236 441 l 236 104 q 240 86 236 94 q 259 72 245 78 q 301 64 274 67 q 371 61 327 61 l 457 61 q 509 64 487 61 q 547 79 530 67 q 577 114 564 91 q 605 177 591 137 l 633 165 m 543 957 q 531 938 535 944 q 515 926 526 932 l 333 1067 l 153 926 q 144 931 147 929 q 137 938 140 934 q 131 946 134 941 q 123 957 128 950 l 298 1166 l 369 1166 l 543 957 m 560 1374 q 531 1319 548 1346 q 494 1270 515 1291 q 450 1234 474 1248 q 400 1221 426 1221 q 356 1232 377 1221 q 315 1259 335 1244 q 276 1286 295 1274 q 237 1298 256 1298 q 188 1275 210 1298 q 142 1215 167 1253 l 107 1229 q 135 1284 119 1257 q 172 1333 151 1312 q 216 1369 192 1355 q 265 1383 240 1383 q 313 1371 291 1383 q 356 1344 336 1359 q 394 1317 376 1329 q 428 1306 412 1306 q 477 1327 453 1306 q 524 1389 501 1349 l 560 1374 "},"ằ":{"x_min":53,"x_max":615.6875,"ha":625,"o":"m 233 68 q 318 88 273 68 q 414 154 363 109 l 414 329 q 321 311 358 320 q 262 293 285 302 q 225 273 239 284 q 200 252 211 263 q 172 210 183 234 q 162 155 162 187 q 169 111 162 128 q 189 84 177 94 q 212 71 200 74 q 233 68 225 68 m 615 55 q 522 -2 559 15 q 466 -21 485 -21 q 429 10 444 -21 q 415 97 415 41 q 354 44 384 66 q 295 7 324 21 q 241 -14 267 -7 q 194 -21 215 -21 q 145 -12 170 -21 q 99 12 120 -4 q 66 58 79 30 q 53 125 53 86 q 70 211 53 177 q 112 271 88 246 q 149 302 128 288 q 202 330 169 317 q 287 356 236 344 q 414 380 337 368 l 414 475 q 408 518 414 498 q 390 552 403 538 q 356 575 378 567 q 302 583 334 583 q 260 576 281 583 q 224 557 239 569 q 200 527 209 544 q 193 490 191 511 q 180 476 194 484 q 146 463 166 469 q 107 453 126 456 q 80 452 88 450 l 71 478 q 118 543 86 512 q 189 598 149 575 q 274 636 229 622 q 361 651 319 651 q 474 611 434 651 q 514 503 514 572 l 514 120 q 521 80 514 92 q 540 68 528 68 q 564 71 549 68 q 605 86 579 74 l 615 55 m 535 922 q 490 829 515 867 q 437 768 465 792 q 380 735 410 745 q 320 725 350 725 q 257 735 287 725 q 198 768 226 745 q 147 829 171 792 q 102 922 122 867 q 118 940 110 934 q 138 952 126 947 q 176 887 154 914 q 221 845 197 861 q 270 822 245 829 q 317 815 295 815 q 366 822 341 815 q 416 845 392 829 q 462 887 440 861 q 500 952 484 914 q 519 940 511 947 q 535 922 527 934 m 394 947 q 377 935 386 939 q 357 926 368 930 l 123 1182 l 138 1210 q 157 1214 144 1212 q 184 1219 170 1217 q 213 1224 199 1222 q 235 1226 227 1225 l 394 947 "},"ŏ":{"x_min":53,"x_max":631.015625,"ha":684,"o":"m 528 309 q 510 411 528 362 q 466 496 493 459 q 404 555 438 533 q 336 577 369 577 q 251 557 285 577 q 195 503 216 537 q 165 422 174 469 q 156 321 156 375 q 174 219 156 267 q 221 133 193 170 q 283 75 249 97 q 347 54 317 54 q 429 72 395 54 q 484 123 462 90 q 517 203 506 157 q 528 309 528 250 m 631 329 q 619 240 631 283 q 588 158 608 197 q 540 86 568 119 q 479 30 512 53 q 407 -6 445 6 q 329 -20 369 -20 q 215 4 266 -20 q 128 71 164 28 q 72 173 92 114 q 53 301 53 232 q 63 389 53 346 q 94 472 74 433 q 141 544 114 511 q 202 600 169 576 q 275 638 236 624 q 355 651 314 651 q 468 627 417 651 q 555 559 519 602 q 611 457 591 516 q 631 329 631 398 m 571 923 q 526 830 551 868 q 473 769 501 793 q 416 736 446 746 q 356 726 386 726 q 293 736 324 726 q 235 769 262 746 q 183 830 207 793 q 139 923 159 868 q 155 941 147 935 q 174 953 163 948 q 212 888 191 915 q 258 846 234 862 q 307 823 282 830 q 353 816 332 816 q 402 823 377 816 q 452 846 428 830 q 498 888 476 862 q 535 953 520 915 q 555 941 547 948 q 571 923 563 935 "},"Ả":{"x_min":0,"x_max":796,"ha":810,"o":"m 504 363 l 386 711 l 272 363 l 504 363 m 252 302 l 179 75 q 197 45 172 54 q 276 29 221 35 l 276 0 l 0 0 l 0 29 q 71 46 45 37 q 104 75 98 55 l 351 838 q 390 869 367 855 q 430 893 412 883 l 709 75 q 718 58 712 66 q 734 45 724 51 q 759 36 744 40 q 796 29 774 32 l 796 0 l 516 0 l 516 31 q 587 41 567 31 q 600 75 607 52 l 524 302 l 252 302 m 510 1121 q 497 1087 510 1102 q 469 1059 485 1072 q 436 1034 452 1046 q 413 1010 421 1022 q 412 984 406 997 q 447 953 419 970 q 427 945 437 946 q 406 942 416 944 q 361 970 375 957 q 344 993 347 982 q 347 1013 341 1004 q 365 1032 353 1023 q 390 1050 376 1041 q 417 1068 404 1059 q 437 1088 429 1078 q 446 1111 446 1099 q 433 1150 446 1137 q 400 1163 420 1163 q 382 1159 390 1163 q 367 1149 373 1155 q 358 1135 361 1143 q 355 1120 355 1128 q 356 1113 355 1117 q 360 1106 358 1110 q 346 1102 355 1104 q 328 1097 338 1099 q 310 1094 319 1095 q 294 1091 300 1092 l 287 1099 l 287 1108 q 299 1140 287 1124 q 331 1168 312 1155 q 375 1188 351 1180 q 422 1196 399 1196 q 487 1175 464 1196 q 510 1121 510 1155 "},"ý":{"x_min":-31,"x_max":658,"ha":672,"o":"m 658 601 q 625 592 638 596 q 604 583 612 588 q 592 571 596 578 q 584 555 588 565 l 362 -55 q 300 -184 334 -130 q 229 -272 266 -237 q 155 -322 192 -306 q 84 -339 117 -339 q 38 -335 59 -339 q 1 -327 16 -332 q -22 -315 -13 -322 q -31 -303 -31 -309 q -22 -286 -31 -299 q -2 -260 -14 -274 q 22 -231 9 -245 q 47 -211 36 -218 q 110 -232 79 -232 q 167 -223 142 -232 q 195 -204 179 -219 q 227 -168 211 -189 q 259 -119 243 -146 q 286 -62 274 -91 l 306 -15 l 87 555 q 64 584 81 574 q 14 601 47 593 l 14 630 l 271 630 l 271 601 q 228 594 245 598 q 203 586 212 591 q 193 573 194 581 q 195 555 191 566 l 359 123 l 512 555 q 513 572 515 565 q 502 584 511 579 q 476 593 493 589 q 436 601 460 597 l 436 631 l 658 631 l 658 601 m 324 710 q 303 717 312 712 q 286 729 294 723 l 441 1010 q 462 1007 449 1009 q 490 1003 475 1006 q 517 999 504 1001 q 538 994 531 996 l 553 968 l 324 710 "},"º":{"x_min":33,"x_max":351,"ha":384,"o":"m 289 655 q 280 709 289 684 q 257 754 271 735 q 222 785 242 774 q 181 797 203 797 q 145 786 161 797 q 118 758 129 776 q 101 715 107 740 q 95 662 95 690 q 104 608 95 633 q 128 563 113 582 q 163 532 143 544 q 203 521 182 521 q 236 531 221 521 q 264 559 252 541 q 282 602 275 577 q 289 655 289 627 m 41 397 l 41 447 l 343 447 l 343 397 l 41 397 m 351 666 q 336 598 351 631 q 297 539 321 565 q 242 497 273 513 q 181 482 212 482 q 120 494 147 482 q 73 530 93 507 q 43 584 54 553 q 33 652 33 615 q 46 721 33 687 q 82 780 59 754 q 136 821 106 805 q 202 837 167 837 q 262 824 234 837 q 309 788 289 811 q 340 734 329 765 q 351 666 351 702 "},"∞":{"x_min":53,"x_max":847,"ha":900,"o":"m 228 289 q 267 291 250 289 q 303 303 285 294 q 342 329 321 312 q 394 374 364 346 q 364 412 380 392 q 327 447 347 431 q 281 472 306 462 q 225 483 255 483 q 174 473 194 483 q 144 449 155 464 q 130 419 134 435 q 127 391 127 403 q 133 359 127 377 q 152 326 139 342 q 184 299 164 310 q 228 289 203 289 m 671 494 q 631 489 650 494 q 593 475 612 485 q 552 449 574 465 q 503 407 531 432 q 533 369 516 389 q 572 335 551 350 q 619 309 593 319 q 674 300 644 300 q 725 309 705 300 q 755 333 744 318 q 769 363 765 347 q 773 391 773 379 q 766 423 773 405 q 747 456 760 440 q 715 483 735 472 q 671 494 696 494 m 273 573 q 336 562 307 573 q 390 533 365 551 q 436 492 415 515 q 473 448 456 470 q 543 507 511 483 q 602 546 575 531 q 656 566 630 560 q 708 573 681 573 q 758 561 733 573 q 803 528 783 549 q 835 480 823 508 q 847 419 847 452 q 829 343 847 380 q 780 276 811 305 q 710 228 749 246 q 626 210 670 210 q 563 220 592 210 q 508 249 533 231 q 461 289 482 267 q 422 333 440 311 q 348 270 380 295 q 291 233 317 246 q 242 214 265 219 q 192 210 218 210 q 141 221 166 210 q 96 254 116 233 q 64 302 76 274 q 53 363 53 330 q 70 439 53 402 q 119 506 88 477 q 189 554 150 536 q 273 573 229 573 "},"ź":{"x_min":50.453125,"x_max":549.984375,"ha":602,"o":"m 548 168 q 548 121 548 146 q 548 74 548 97 q 548 31 548 51 q 543 0 548 12 l 67 0 l 50 30 l 419 569 l 189 569 q 167 564 178 569 q 146 549 156 560 q 127 518 136 538 q 111 467 118 498 l 85 475 l 85 641 q 117 634 105 637 q 142 631 129 631 q 170 631 155 631 l 535 631 l 549 601 l 179 61 l 460 61 q 490 87 476 61 q 520 174 504 113 l 548 168 m 290 709 q 269 717 278 711 q 252 728 259 722 l 408 1009 q 429 1007 416 1008 q 456 1003 442 1005 q 484 998 470 1001 q 504 993 497 995 l 520 967 l 290 709 "},"Ư":{"x_min":33,"x_max":930,"ha":930,"o":"m 930 944 q 921 904 930 927 q 892 856 913 882 q 837 803 872 830 q 751 749 803 775 l 751 355 q 729 197 751 266 q 668 79 708 127 q 571 5 628 30 q 442 -20 514 -20 q 316 0 374 -20 q 218 58 259 18 q 153 158 176 98 q 130 301 130 218 l 130 783 q 105 804 130 791 q 33 825 81 816 l 33 855 l 332 855 l 332 825 q 261 804 286 816 q 236 783 236 793 l 236 335 q 250 218 236 270 q 295 131 265 167 q 368 76 325 95 q 468 58 411 58 q 552 81 516 58 q 614 142 589 104 q 652 229 639 180 q 665 327 665 277 l 665 783 q 640 804 665 791 q 568 825 616 816 l 568 855 l 804 855 q 816 889 816 873 q 806 926 816 909 q 777 960 796 944 l 895 1014 q 920 981 910 999 q 930 944 930 964 "},"͟":{"x_min":-433.984375,"x_max":433.984375,"ha":0,"o":"m 433 -420 q 429 -437 432 -427 q 422 -457 426 -447 q 414 -476 418 -466 q 408 -492 410 -485 l -419 -492 l -433 -475 q -429 -458 -432 -467 q -422 -438 -426 -448 q -414 -419 -418 -429 q -406 -404 -410 -410 l 419 -404 l 433 -420 "},"ń":{"x_min":37,"x_max":732,"ha":752,"o":"m 446 0 l 446 29 q 516 51 493 42 q 539 70 539 61 l 539 429 q 534 496 539 470 q 519 537 529 522 q 493 557 509 552 q 453 563 477 563 q 408 552 433 563 q 353 520 382 542 q 293 461 325 497 q 230 372 261 425 l 230 70 q 254 49 230 60 q 323 29 279 38 l 323 0 l 37 0 l 37 29 q 105 50 80 40 q 130 70 130 59 l 130 482 q 128 524 130 508 q 117 548 126 539 q 89 561 108 557 q 37 569 70 565 l 37 596 q 120 618 82 604 q 196 651 159 632 l 223 627 l 223 458 q 291 539 256 504 q 362 599 327 575 q 432 637 398 624 q 492 651 466 651 q 547 642 520 651 q 594 615 573 633 q 626 568 614 596 q 639 502 639 540 l 639 70 q 659 52 639 61 q 732 29 679 42 l 732 0 l 446 0 m 355 709 q 334 717 343 712 q 317 728 325 722 l 473 1009 q 494 1007 481 1009 q 521 1003 507 1005 q 549 998 535 1001 q 569 994 562 996 l 585 967 l 355 709 "},"Ḵ":{"x_min":33,"x_max":779.53125,"ha":786,"o":"m 33 0 l 33 29 q 104 50 78 39 q 130 70 130 61 l 130 783 q 105 803 130 791 q 33 825 81 815 l 33 854 l 332 854 l 332 825 q 261 804 286 815 q 236 783 236 792 l 236 438 l 507 765 q 526 794 522 783 q 523 811 530 805 q 500 820 517 817 q 458 824 483 824 l 458 855 l 737 855 l 737 825 q 699 819 715 822 q 669 812 682 817 q 644 801 655 808 q 624 783 634 794 l 333 455 l 653 86 q 679 65 665 73 q 708 55 693 58 q 740 52 724 52 q 774 54 757 52 l 779 25 q 700 1 740 12 q 629 -9 661 -9 q 595 -3 610 -9 q 566 19 580 2 l 236 433 l 236 70 q 259 50 236 62 q 332 29 283 39 l 332 0 l 33 0 m 630 -155 q 626 -172 629 -162 q 618 -192 622 -182 q 611 -211 614 -201 q 604 -227 607 -220 l 196 -227 l 182 -210 q 186 -193 183 -202 q 194 -173 190 -183 q 202 -154 198 -164 q 209 -139 206 -145 l 616 -139 l 630 -155 "},"":{"x_min":13,"x_max":857,"ha":884,"o":"m 13 28 q 83 46 58 37 q 115 73 109 54 l 370 814 q 388 839 375 829 q 416 857 401 850 q 446 868 432 864 q 470 874 461 872 l 762 73 q 792 45 769 56 q 857 28 815 34 l 857 0 l 568 0 l 568 31 q 640 40 621 31 q 653 70 660 50 l 418 716 l 194 73 q 211 44 187 54 q 289 28 234 35 l 289 0 l 13 0 l 13 28 "},"ḹ":{"x_min":-28.453125,"x_max":420.75,"ha":369,"o":"m 40 0 l 40 29 q 88 39 68 34 q 118 49 107 44 q 135 60 130 54 q 140 70 140 65 l 140 879 q 136 926 140 909 q 121 952 132 943 q 92 963 110 960 q 46 970 74 966 l 46 997 q 134 1018 94 1006 q 216 1051 174 1029 l 240 1028 l 240 70 q 262 49 240 60 q 339 29 284 39 l 339 0 l 40 0 m 256 -189 q 250 -225 256 -208 q 233 -254 244 -242 q 209 -274 223 -267 q 178 -282 195 -282 q 135 -265 148 -282 q 123 -217 123 -248 q 128 -181 123 -198 q 145 -151 134 -164 q 169 -132 156 -139 q 199 -125 183 -125 q 256 -189 256 -125 m 420 1275 q 416 1258 419 1268 q 408 1238 412 1248 q 401 1219 404 1229 q 394 1204 397 1210 l -13 1204 l -28 1220 q -23 1237 -27 1228 q -16 1257 -20 1247 q -8 1276 -12 1266 q -1 1292 -4 1285 l 406 1292 l 420 1275 "},"¤":{"x_min":104.65625,"x_max":534,"ha":639,"o":"m 241 488 q 216 450 224 471 q 208 407 208 429 q 215 364 208 385 q 240 327 223 344 q 278 302 257 310 q 320 294 299 294 q 362 302 341 294 q 399 327 382 310 q 423 365 415 344 q 432 408 432 386 q 423 450 432 429 q 398 488 415 471 q 361 513 382 505 q 320 522 341 522 q 278 513 299 522 q 241 488 257 505 m 490 190 l 420 260 q 372 237 398 245 q 320 230 346 230 q 267 237 293 230 q 219 261 241 245 l 147 190 l 125 190 q 114 210 120 199 q 104 232 109 221 l 176 304 q 152 353 160 327 q 145 406 145 379 q 152 460 145 433 q 176 509 160 486 l 106 582 l 106 605 q 126 616 115 610 q 148 626 137 621 l 219 553 q 267 578 241 570 q 320 587 293 587 q 372 578 346 587 q 420 553 397 570 l 490 626 l 513 626 l 533 581 l 462 509 q 486 460 478 486 q 495 406 495 433 q 487 353 495 379 q 463 304 479 327 l 534 233 l 534 210 l 490 190 "},"Ǣ":{"x_min":0,"x_max":1020.84375,"ha":1060,"o":"m 515 778 q 508 788 515 785 q 493 791 502 792 q 476 784 484 790 q 462 766 467 778 l 357 498 l 515 498 l 515 778 m 1020 165 q 1006 63 1014 106 q 992 0 997 19 l 419 0 l 419 29 q 489 49 464 38 q 515 70 515 60 l 515 441 l 335 441 l 189 75 q 201 45 180 55 q 276 29 221 35 l 276 0 l 0 0 l 0 29 q 70 46 45 37 q 104 75 96 55 l 379 767 q 376 787 383 779 q 353 801 369 795 q 310 813 336 807 q 253 824 285 818 l 253 854 l 955 854 l 975 837 q 972 798 975 819 q 966 756 970 777 q 958 716 962 735 q 948 684 953 697 l 918 684 q 914 736 918 715 q 903 770 910 757 q 887 787 896 782 q 864 793 877 793 l 621 793 l 621 498 l 890 498 l 908 479 q 894 458 902 469 q 879 437 887 447 q 862 417 870 426 q 846 403 854 409 q 825 420 836 413 q 799 432 814 427 q 763 438 783 436 q 714 441 742 441 l 621 441 l 621 104 q 625 86 621 94 q 645 72 630 78 q 687 64 660 67 q 758 61 714 61 l 844 61 q 896 64 874 61 q 934 79 917 67 q 963 114 950 91 q 990 177 976 137 l 1020 165 m 845 1058 q 840 1041 844 1051 q 833 1021 837 1031 q 825 1002 829 1012 q 819 987 822 993 l 410 987 l 395 1003 q 400 1020 397 1011 q 407 1040 403 1030 q 415 1059 411 1049 q 423 1075 419 1068 l 830 1075 l 845 1058 "},"Ɨ":{"x_min":32.390625,"x_max":362.609375,"ha":406,"o":"m 346 417 l 250 417 l 250 70 q 274 50 250 62 q 346 29 298 38 l 346 0 l 47 0 l 47 29 q 118 49 92 38 q 144 70 144 60 l 144 417 l 47 417 l 32 433 q 39 455 35 443 q 47 478 43 467 l 144 478 l 144 783 q 119 803 144 791 q 47 825 95 815 l 47 854 l 346 854 l 346 825 q 275 804 300 815 q 250 783 250 792 l 250 478 l 346 478 l 362 462 l 346 417 "},"Ĝ":{"x_min":47,"x_max":761,"ha":794,"o":"m 693 805 q 691 792 697 802 q 674 770 685 782 q 651 746 664 758 q 629 726 638 734 l 607 730 q 562 765 585 751 q 513 786 538 779 q 459 797 487 794 q 397 800 430 800 q 356 792 381 800 q 303 767 331 784 q 249 722 276 750 q 199 652 221 693 q 163 557 177 611 q 150 432 150 502 q 174 267 150 337 q 239 152 199 198 q 328 83 278 106 q 429 61 378 61 q 518 70 477 61 q 592 99 559 80 l 592 329 q 585 343 592 336 q 563 357 579 350 q 521 371 548 364 q 455 384 495 378 l 455 414 l 761 414 l 761 384 q 707 360 723 375 q 692 329 692 344 l 692 104 q 603 38 642 63 q 532 1 565 14 q 470 -15 499 -11 q 411 -20 441 -20 q 279 5 344 -20 q 162 82 213 30 q 78 212 110 134 q 47 394 47 289 q 81 596 47 507 q 177 747 116 685 q 318 842 237 809 q 490 875 399 875 q 538 870 512 875 q 592 856 564 865 q 645 834 619 847 q 693 805 671 822 m 636 957 q 623 938 628 944 q 607 927 618 932 l 425 1068 l 245 927 q 236 932 239 929 q 229 938 232 935 q 223 946 226 942 q 215 957 219 951 l 390 1167 l 461 1167 l 636 957 "},"p":{"x_min":37,"x_max":669,"ha":722,"o":"m 579 288 q 565 398 579 347 q 529 486 551 449 q 476 544 506 523 q 414 566 446 566 q 383 558 402 566 q 339 533 364 551 q 287 486 315 515 q 230 413 259 456 l 230 144 q 285 106 259 121 q 333 83 311 91 q 375 71 355 74 q 413 68 395 68 q 479 82 449 68 q 531 124 509 96 q 566 193 553 152 q 579 288 579 234 m 669 333 q 659 253 669 294 q 631 172 649 211 q 590 97 614 133 q 538 36 566 62 q 478 -4 509 10 q 414 -20 447 -20 q 326 2 375 -20 q 230 66 277 24 l 230 -253 q 254 -275 230 -264 q 342 -295 279 -286 l 342 -325 l 37 -325 l 37 -295 q 105 -275 80 -285 q 130 -253 130 -265 l 130 482 q 127 524 130 507 q 115 550 124 540 q 87 564 105 560 q 37 569 68 569 l 37 596 q 80 607 59 601 q 120 619 100 613 q 158 633 139 625 q 196 651 177 641 l 222 627 l 222 492 q 292 563 259 533 q 356 612 326 593 q 413 641 387 631 q 459 651 440 651 q 543 629 504 651 q 609 566 581 607 q 653 466 637 525 q 669 333 669 407 "},"S":{"x_min":80,"x_max":589,"ha":649,"o":"m 589 255 q 581 193 589 225 q 556 130 573 161 q 516 72 540 99 q 458 24 491 45 q 384 -7 426 4 q 293 -20 342 -20 q 245 -15 271 -20 q 191 -2 219 -10 q 137 18 164 6 q 87 46 110 30 q 81 69 82 48 q 80 116 80 89 q 80 172 80 144 q 87 219 80 201 l 114 216 q 152 147 129 176 q 203 98 175 117 q 263 70 231 79 q 330 61 296 61 q 390 73 360 61 q 444 107 420 86 q 483 158 468 129 q 499 219 499 187 q 481 290 499 261 q 434 343 463 320 q 367 385 405 366 q 291 421 330 403 q 215 460 252 440 q 149 507 178 480 q 102 570 120 535 q 85 655 85 606 q 90 701 85 676 q 110 750 96 725 q 144 797 123 774 q 195 837 165 820 q 263 864 224 854 q 350 875 301 875 q 410 870 380 875 q 466 857 440 865 q 514 837 493 849 q 547 812 535 826 q 547 796 552 808 q 534 770 543 784 q 514 743 525 756 q 495 722 503 729 l 471 726 q 432 763 453 748 q 391 789 412 779 q 349 802 370 798 q 310 807 329 807 q 247 795 273 807 q 203 766 220 783 q 178 727 186 749 q 171 687 171 706 q 188 631 171 655 q 236 585 206 606 q 303 546 265 564 q 379 508 340 528 q 456 465 419 488 q 523 412 494 442 q 571 344 553 382 q 589 255 589 305 "},"ễ":{"x_min":53,"x_max":575,"ha":628,"o":"m 329 580 q 266 566 294 580 q 215 528 237 552 q 177 469 192 503 q 156 394 162 435 l 440 394 q 461 399 456 394 q 466 418 466 404 q 461 464 466 436 q 441 517 456 491 q 399 561 426 543 q 329 580 372 580 m 575 378 q 543 353 563 364 q 501 333 523 341 l 153 333 q 166 232 153 280 q 205 147 180 184 q 267 89 231 111 q 349 68 303 68 q 389 70 369 68 q 431 82 408 73 q 481 110 454 92 q 546 160 509 129 q 561 146 555 155 q 571 132 567 137 q 492 52 526 83 q 429 6 459 22 q 371 -14 400 -9 q 308 -20 342 -20 q 211 2 257 -20 q 130 65 165 24 q 73 164 94 106 q 53 294 53 222 q 62 384 53 339 q 91 467 72 428 q 138 539 110 506 q 200 597 165 573 q 232 617 214 607 q 271 634 251 627 q 310 646 290 642 q 348 651 330 651 q 425 638 391 651 q 484 606 458 626 q 526 557 509 585 q 554 500 543 530 q 570 438 565 469 q 575 378 575 406 m 548 740 q 535 721 540 727 q 519 710 531 715 l 338 891 l 158 710 q 149 715 152 712 q 142 721 145 718 q 136 729 139 724 q 128 740 133 734 l 303 997 l 374 997 l 548 740 m 565 1218 q 536 1163 553 1190 q 499 1114 519 1136 q 455 1079 479 1093 q 405 1066 431 1066 q 361 1077 382 1066 q 320 1104 340 1089 q 281 1130 300 1118 q 242 1142 261 1142 q 194 1120 216 1142 q 147 1060 172 1098 l 112 1074 q 140 1129 124 1101 q 177 1178 156 1156 q 221 1213 197 1199 q 270 1227 245 1227 q 318 1215 296 1227 q 361 1189 341 1203 q 399 1162 381 1174 q 432 1151 416 1151 q 482 1172 458 1151 q 529 1233 506 1194 l 565 1218 "},"/":{"x_min":32.5625,"x_max":604.125,"ha":639,"o":"m 140 -192 q 122 -202 133 -197 q 100 -211 112 -207 q 76 -220 88 -216 q 57 -227 65 -224 l 32 -210 l 498 1051 q 538 1071 516 1063 q 579 1085 560 1079 l 604 1070 l 140 -192 "},"ⱡ":{"x_min":46.71875,"x_max":388.265625,"ha":435,"o":"m 373 434 l 268 434 l 268 70 q 290 49 268 60 q 367 29 312 38 l 367 0 l 68 0 l 68 29 q 116 38 96 33 q 146 49 135 44 q 163 59 158 54 q 168 70 168 65 l 168 434 l 61 434 l 46 448 q 53 471 50 459 q 61 495 56 484 l 168 495 l 168 570 l 61 570 l 46 584 q 53 607 50 595 q 61 631 56 620 l 168 631 l 168 879 q 164 926 168 909 q 149 952 160 943 q 120 963 138 960 q 74 970 102 966 l 74 997 q 162 1018 122 1006 q 244 1051 202 1029 l 268 1028 l 268 631 l 373 631 l 388 614 l 373 570 l 268 570 l 268 495 l 373 495 l 388 478 l 373 434 "},"Ọ":{"x_min":47,"x_max":757,"ha":817,"o":"m 653 426 q 645 519 653 473 q 622 606 637 565 q 584 682 606 647 q 534 742 562 716 q 473 782 506 767 q 402 797 439 797 q 295 771 342 797 q 216 698 249 746 q 167 584 184 651 q 150 434 150 517 q 170 290 150 358 q 224 171 190 223 q 304 90 259 120 q 402 61 350 61 q 503 84 457 61 q 583 153 549 107 q 635 268 616 200 q 653 426 653 337 m 757 439 q 727 263 757 346 q 645 117 697 180 q 526 17 594 54 q 382 -20 458 -20 q 240 15 302 -20 q 135 112 177 51 q 69 251 92 172 q 47 415 47 329 q 76 590 47 507 q 156 737 105 674 q 274 837 206 800 q 421 875 342 875 q 566 838 503 875 q 671 740 628 801 q 735 600 713 679 q 757 439 757 521 m 476 -189 q 470 -225 476 -208 q 453 -254 464 -242 q 429 -274 443 -267 q 398 -282 415 -282 q 355 -265 368 -282 q 343 -217 343 -248 q 348 -181 343 -198 q 365 -151 354 -164 q 389 -132 376 -139 q 419 -125 403 -125 q 476 -189 476 -125 "},"̨":{"x_min":-468,"x_max":-215.84375,"ha":0,"o":"m -215 -202 q -248 -238 -229 -221 q -287 -270 -267 -256 q -327 -292 -307 -284 q -364 -301 -347 -301 q -402 -296 -383 -301 q -435 -282 -420 -292 q -459 -252 -450 -271 q -468 -202 -468 -233 q -415 -83 -468 -141 q -263 29 -363 -25 l -233 16 q -310 -42 -280 -13 q -355 -95 -339 -70 q -376 -141 -371 -120 q -382 -179 -382 -162 q -366 -216 -382 -204 q -324 -228 -350 -228 q -283 -215 -308 -228 q -231 -177 -259 -203 l -215 -202 "},"̋":{"x_min":-478.515625,"x_max":-74.4375,"ha":0,"o":"m -440 709 q -458 716 -451 712 q -478 728 -465 720 l -361 1009 q -342 1006 -353 1008 q -320 1002 -331 1004 q -299 997 -309 1000 q -282 992 -289 995 l -267 964 l -440 709 m -247 709 q -266 716 -259 712 q -285 728 -273 720 l -168 1009 q -149 1006 -160 1008 q -127 1002 -138 1004 q -106 997 -116 1000 q -89 992 -96 995 l -74 964 l -247 709 "},"y":{"x_min":-31,"x_max":658,"ha":672,"o":"m 658 601 q 625 592 638 596 q 604 583 612 588 q 592 571 596 578 q 584 555 588 565 l 362 -55 q 300 -184 334 -130 q 229 -272 266 -237 q 155 -322 192 -306 q 84 -339 117 -339 q 38 -335 59 -339 q 1 -327 16 -332 q -22 -315 -13 -322 q -31 -303 -31 -309 q -22 -286 -31 -299 q -2 -260 -14 -274 q 22 -231 9 -245 q 47 -211 36 -218 q 110 -232 79 -232 q 167 -223 142 -232 q 195 -204 179 -219 q 227 -168 211 -189 q 259 -119 243 -146 q 286 -62 274 -91 l 306 -15 l 87 555 q 64 584 81 574 q 14 601 47 593 l 14 630 l 271 630 l 271 601 q 228 594 245 598 q 203 586 212 591 q 193 573 194 581 q 195 555 191 566 l 359 123 l 512 555 q 513 572 515 565 q 502 584 511 579 q 476 593 493 589 q 436 601 460 597 l 436 631 l 658 631 l 658 601 "},"Π":{"x_min":33,"x_max":812,"ha":858,"o":"m 33 0 l 33 29 q 104 50 78 38 q 130 70 130 61 l 130 783 q 105 803 130 791 q 33 825 80 816 l 33 855 l 812 855 l 812 825 q 740 804 766 816 q 715 783 715 793 l 715 70 q 739 50 715 62 q 812 29 763 38 l 812 0 l 512 0 l 512 29 q 583 50 557 38 q 609 70 609 61 l 609 750 q 600 766 609 758 q 573 781 591 774 q 530 792 556 788 q 472 797 505 797 l 361 797 q 306 792 330 797 q 267 781 283 788 q 243 767 251 775 q 236 750 236 759 l 236 70 q 260 50 236 62 q 333 29 284 38 l 333 0 l 33 0 "},"ˊ":{"x_min":0,"x_max":267.171875,"ha":267,"o":"m 37 709 q 16 717 25 712 q 0 728 7 722 l 155 1009 q 176 1007 163 1009 q 203 1003 189 1005 q 231 998 217 1001 q 251 994 244 996 l 267 967 l 37 709 "},"Ḧ":{"x_min":33,"x_max":844,"ha":890,"o":"m 33 0 l 33 29 q 104 49 78 38 q 130 70 130 60 l 130 783 q 105 803 130 791 q 33 825 81 815 l 33 854 l 332 854 l 332 825 q 261 804 286 815 q 236 783 236 792 l 236 478 l 641 478 l 641 783 q 617 803 641 791 q 545 825 592 815 l 545 854 l 844 854 l 844 825 q 772 804 798 815 q 747 783 747 792 l 747 70 q 771 50 747 62 q 844 29 795 38 l 844 0 l 545 0 l 545 29 q 615 49 590 38 q 641 70 641 60 l 641 417 l 236 417 l 236 70 q 259 50 236 62 q 332 29 283 38 l 332 0 l 33 0 m 638 1044 q 632 1008 638 1025 q 615 979 626 991 q 591 959 605 966 q 560 952 577 952 q 517 968 530 952 q 505 1016 505 985 q 510 1052 505 1035 q 527 1082 516 1069 q 551 1101 538 1094 q 581 1109 565 1109 q 638 1044 638 1109 m 372 1044 q 366 1008 372 1025 q 349 979 360 991 q 325 959 339 966 q 294 952 311 952 q 251 968 264 952 q 239 1016 239 985 q 244 1052 239 1035 q 261 1082 250 1069 q 285 1101 272 1094 q 315 1109 299 1109 q 372 1044 372 1109 "},"–":{"x_min":40.546875,"x_max":598.140625,"ha":639,"o":"m 598 370 q 589 338 594 355 q 578 309 584 320 l 57 309 l 40 325 q 49 356 43 340 q 61 387 55 373 l 582 387 l 598 370 "},"ë":{"x_min":53,"x_max":575,"ha":628,"o":"m 329 580 q 266 566 294 580 q 215 528 237 552 q 177 469 192 503 q 156 394 162 435 l 440 394 q 461 399 456 394 q 466 418 466 404 q 461 464 466 436 q 441 517 456 491 q 399 561 426 543 q 329 580 372 580 m 575 378 q 543 353 563 364 q 502 333 523 341 l 153 333 q 166 232 153 280 q 205 147 180 184 q 267 89 231 111 q 349 68 303 68 q 389 70 369 68 q 431 82 408 73 q 481 110 454 92 q 546 160 509 129 q 561 146 555 155 q 571 132 567 137 q 492 52 526 83 q 429 6 459 22 q 371 -14 400 -9 q 308 -20 342 -20 q 211 2 257 -20 q 130 65 165 24 q 73 164 94 106 q 53 294 53 222 q 62 384 53 339 q 91 467 72 428 q 138 539 110 506 q 199 597 165 573 q 232 617 214 607 q 270 634 251 627 q 310 646 290 642 q 347 651 330 651 q 424 638 391 651 q 484 606 458 626 q 526 557 509 585 q 554 500 543 530 q 570 438 565 469 q 575 378 575 406 m 538 855 q 532 819 538 836 q 515 790 526 802 q 491 770 505 777 q 460 763 477 763 q 417 779 430 763 q 405 827 405 796 q 410 863 405 846 q 427 893 416 880 q 451 912 438 905 q 481 920 465 920 q 538 855 538 920 m 272 855 q 266 819 272 836 q 249 790 260 802 q 225 770 239 777 q 194 763 211 763 q 151 779 164 763 q 139 827 139 796 q 144 863 139 846 q 161 893 150 880 q 185 912 172 905 q 215 920 199 920 q 272 855 272 920 "},"ƒ":{"x_min":-166,"x_max":527,"ha":394,"o":"m 527 986 q 517 969 527 980 q 494 947 507 959 q 466 925 481 936 q 442 911 452 915 q 409 935 426 925 q 377 953 392 946 q 350 964 363 960 q 329 968 337 968 q 292 955 312 968 q 255 912 272 943 q 227 827 238 881 q 217 689 217 773 l 217 631 l 388 631 l 406 611 q 392 591 400 601 q 374 570 383 580 q 356 553 365 560 q 340 543 347 545 q 296 559 325 551 q 217 567 268 567 l 217 66 q 206 -68 217 -13 q 177 -163 195 -124 q 135 -228 159 -202 q 84 -276 111 -255 q 46 -302 66 -290 q 7 -322 26 -314 q -28 -334 -11 -330 q -58 -339 -45 -339 q -97 -333 -78 -339 q -132 -320 -116 -328 q -156 -304 -147 -312 q -166 -292 -166 -297 q -156 -276 -166 -287 q -134 -253 -147 -265 q -106 -232 -120 -242 q -82 -217 -92 -222 q -57 -233 -68 -227 q -35 -242 -46 -239 q -14 -246 -24 -245 q 9 -248 -3 -248 q 47 -236 28 -248 q 81 -193 66 -224 q 106 -107 96 -161 q 116 30 116 -53 l 116 567 l 27 567 l 13 586 l 65 631 l 116 631 l 116 652 q 126 786 116 732 q 156 878 137 841 q 198 941 174 916 q 249 988 222 967 q 288 1015 267 1003 q 329 1034 309 1026 q 369 1046 350 1042 q 400 1051 387 1051 q 443 1042 420 1051 q 483 1024 465 1034 q 514 1002 502 1013 q 527 986 527 992 "},"ȟ":{"x_min":37,"x_max":732,"ha":752,"o":"m 446 0 l 446 29 q 516 51 493 42 q 539 70 539 61 l 539 429 q 534 496 539 470 q 518 537 529 522 q 491 557 507 552 q 453 563 475 563 q 403 550 430 563 q 347 514 376 538 q 288 455 318 491 q 230 372 258 419 l 230 70 q 254 49 230 60 q 323 29 279 38 l 323 0 l 37 0 l 37 29 q 105 50 80 40 q 130 70 130 59 l 130 880 q 127 924 130 908 q 115 949 125 940 q 87 962 106 958 q 37 969 68 965 l 37 996 q 87 1007 64 1002 q 130 1019 110 1013 q 168 1033 150 1026 q 205 1051 186 1041 l 230 1028 l 230 464 q 293 541 258 507 q 363 600 328 576 q 432 638 398 625 q 492 651 466 651 q 547 642 520 651 q 594 615 573 633 q 626 568 614 596 q 639 502 639 540 l 639 70 q 659 52 639 61 q 732 29 679 42 l 732 0 l 446 0 m 420 1113 l 348 1113 l 173 1321 q 181 1332 178 1327 q 187 1340 184 1337 q 194 1346 190 1344 q 203 1353 198 1349 l 386 1209 l 565 1353 q 581 1340 577 1346 q 594 1321 586 1334 l 420 1113 "},"Ẏ":{"x_min":-0.265625,"x_max":781,"ha":808,"o":"m 239 0 l 239 29 q 323 55 299 42 q 348 78 348 68 l 348 364 q 292 478 323 419 q 228 594 260 538 q 165 699 195 651 q 111 780 134 748 q 97 794 105 788 q 78 806 90 801 q 48 814 66 811 q 2 818 30 818 l 0 846 q 78 856 38 852 q 145 861 117 861 q 197 834 175 861 q 250 757 221 802 q 307 663 278 713 q 363 562 335 614 q 413 461 390 510 l 592 780 q 585 808 602 798 q 518 825 569 818 l 518 854 l 781 854 l 781 825 q 711 807 735 816 q 677 780 686 798 l 454 366 l 454 78 q 459 68 454 73 q 478 55 465 62 q 512 42 491 48 q 565 29 533 35 l 565 0 l 239 0 m 468 1044 q 462 1008 468 1025 q 445 979 456 991 q 421 959 435 966 q 390 952 407 952 q 347 968 360 952 q 335 1016 335 985 q 340 1052 335 1035 q 357 1082 346 1069 q 381 1101 368 1094 q 411 1109 395 1109 q 468 1044 468 1109 "},"J":{"x_min":-126,"x_max":369,"ha":416,"o":"m 369 824 q 298 803 323 815 q 273 782 273 792 l 273 138 q 262 3 273 57 q 232 -87 251 -50 q 190 -149 214 -124 q 140 -195 166 -174 q 101 -222 122 -210 q 57 -241 79 -233 q 15 -253 35 -249 q -16 -258 -3 -258 q -56 -251 -36 -258 q -91 -236 -76 -245 q -116 -219 -106 -228 q -126 -203 -126 -210 q -117 -188 -126 -198 q -96 -168 -108 -178 q -71 -148 -84 -157 q -48 -136 -58 -139 q -16 -156 -30 -148 q 9 -168 -2 -164 q 32 -173 21 -172 q 56 -175 43 -175 q 93 -163 73 -175 q 129 -122 113 -151 q 156 -41 145 -92 q 167 89 167 10 l 167 782 q 161 791 167 786 q 141 801 156 796 q 102 812 127 807 q 37 824 77 818 l 37 854 l 369 854 l 369 824 "},"ŷ":{"x_min":-31,"x_max":658,"ha":672,"o":"m 658 601 q 625 592 638 596 q 604 583 612 588 q 592 571 596 578 q 584 555 588 565 l 362 -55 q 300 -184 334 -130 q 229 -272 266 -237 q 155 -322 192 -306 q 84 -339 117 -339 q 38 -335 59 -339 q 1 -327 16 -332 q -22 -315 -13 -322 q -31 -303 -31 -309 q -22 -286 -31 -299 q -2 -260 -14 -274 q 22 -231 9 -245 q 47 -211 36 -218 q 110 -232 79 -232 q 167 -223 142 -232 q 195 -204 179 -219 q 227 -168 211 -189 q 259 -119 243 -146 q 286 -62 274 -91 l 306 -15 l 87 555 q 64 584 81 574 q 14 601 47 593 l 14 630 l 271 630 l 271 601 q 228 594 245 598 q 203 586 212 591 q 193 573 194 581 q 195 555 191 566 l 359 123 l 512 555 q 513 572 515 565 q 502 584 511 579 q 476 593 493 589 q 436 601 460 597 l 436 631 l 658 631 l 658 601 m 562 740 q 550 721 554 728 q 534 710 545 715 l 352 892 l 172 710 q 163 715 167 713 q 156 721 159 718 q 150 730 153 725 q 142 740 147 734 l 318 998 l 388 998 l 562 740 "},"ŕ":{"x_min":37,"x_max":517.765625,"ha":540,"o":"m 512 626 q 517 602 517 621 q 512 556 517 582 q 499 503 507 530 q 483 458 491 476 l 455 458 q 443 504 451 485 q 426 534 436 523 q 405 550 417 545 q 381 556 394 556 q 347 543 366 556 q 307 504 327 530 q 266 435 286 477 q 230 336 245 393 l 230 70 q 254 49 230 60 q 342 29 279 38 l 342 0 l 37 0 l 37 29 q 105 49 80 39 q 130 70 130 58 l 130 465 q 128 502 130 487 q 125 527 127 518 q 120 542 123 537 q 114 551 117 547 q 104 560 110 556 q 89 565 98 563 q 68 568 80 568 q 37 568 55 568 l 37 597 q 121 620 80 608 q 196 651 163 632 l 224 627 l 224 472 q 267 543 246 510 q 312 599 288 575 q 362 637 336 623 q 417 651 388 651 q 463 645 438 651 q 512 626 487 640 m 271 709 q 249 717 259 712 q 233 728 240 722 l 388 1009 q 409 1007 396 1009 q 436 1003 422 1005 q 464 998 451 1001 q 485 994 477 996 l 500 967 l 271 709 "},"ṝ":{"x_min":37,"x_max":531.0625,"ha":540,"o":"m 512 626 q 517 602 517 621 q 512 556 517 582 q 499 504 507 531 q 483 458 491 476 l 455 458 q 443 504 451 485 q 426 534 436 523 q 405 550 417 545 q 381 556 394 556 q 347 543 366 556 q 307 504 327 530 q 266 435 286 477 q 230 336 245 394 l 230 70 q 254 49 230 60 q 342 29 279 38 l 342 0 l 37 0 l 37 29 q 105 49 80 39 q 130 70 130 59 l 130 465 q 128 502 130 487 q 125 527 127 518 q 120 542 123 537 q 114 551 117 547 q 104 560 109 556 q 89 565 98 563 q 68 568 80 568 q 37 568 55 568 l 37 597 q 121 620 79 608 q 196 651 163 632 l 224 627 l 224 473 q 266 543 246 510 q 311 599 287 575 q 362 637 335 623 q 417 651 388 651 q 463 645 438 651 q 512 626 487 640 m 246 -189 q 240 -225 246 -208 q 223 -254 234 -242 q 199 -274 213 -267 q 168 -282 185 -282 q 125 -265 138 -282 q 113 -217 113 -248 q 118 -181 113 -198 q 135 -151 124 -164 q 159 -132 146 -139 q 189 -125 173 -125 q 246 -189 246 -125 m 531 868 q 526 851 529 861 q 519 831 523 841 q 511 812 515 822 q 505 797 507 803 l 95 797 l 81 813 q 85 830 82 821 q 93 850 89 840 q 101 869 97 859 q 108 885 105 878 l 516 885 l 531 868 "},"˘":{"x_min":26.578125,"x_max":458.578125,"ha":485,"o":"m 458 923 q 413 830 438 868 q 361 769 388 793 q 303 736 333 746 q 243 726 273 726 q 180 736 211 726 q 122 769 150 746 q 70 830 95 793 q 26 923 46 868 q 42 941 34 935 q 61 953 50 948 q 100 888 78 915 q 145 846 121 862 q 194 823 169 830 q 241 816 219 816 q 290 823 264 816 q 339 846 315 830 q 385 888 364 862 q 423 953 407 915 q 442 941 434 948 q 458 923 450 935 "},"ẋ":{"x_min":13,"x_max":675,"ha":684,"o":"m 408 0 l 408 30 q 438 32 424 30 q 461 41 453 35 q 470 58 470 47 q 456 88 470 70 l 325 271 l 199 89 q 189 59 187 70 q 203 42 192 48 q 232 33 215 36 q 265 29 249 30 l 265 0 l 13 0 l 13 29 q 57 39 39 33 q 89 54 76 46 q 111 73 102 63 q 127 93 120 82 l 289 322 l 132 540 q 115 563 124 553 q 94 582 107 574 q 64 594 82 589 q 20 600 46 600 l 20 631 l 299 631 l 299 601 q 263 596 278 600 q 240 586 248 592 q 234 569 233 579 q 247 542 235 558 l 354 391 l 456 542 q 470 569 468 558 q 464 586 471 580 q 442 596 457 593 q 408 601 428 600 l 408 631 l 661 631 l 661 600 q 577 583 607 600 q 530 540 547 566 l 391 340 l 568 93 q 585 73 576 82 q 607 54 595 63 q 636 38 619 45 q 675 29 653 32 l 675 0 l 408 0 m 410 854 q 404 818 410 835 q 387 789 398 801 q 363 769 377 776 q 332 762 349 762 q 289 778 302 762 q 277 826 277 795 q 282 862 277 845 q 299 892 288 879 q 323 911 310 904 q 353 919 337 919 q 410 854 410 919 "},"D":{"x_min":27.015625,"x_max":746,"ha":806,"o":"m 300 816 q 235 816 266 816 l 235 104 q 241 80 235 89 q 277 62 250 68 q 356 57 304 57 q 450 79 402 57 q 540 148 499 102 q 607 265 581 195 q 633 431 633 335 q 611 592 633 521 q 546 713 589 663 q 442 789 504 763 q 300 816 380 816 m 746 456 q 729 305 746 372 q 683 188 712 239 q 617 101 654 137 q 538 43 579 66 q 453 10 496 20 q 371 0 410 0 l 33 0 l 33 29 q 103 49 78 38 q 129 70 129 61 l 129 805 q 78 798 102 801 q 33 791 54 794 l 27 833 q 94 850 56 842 q 175 864 132 858 q 261 871 217 871 q 343 871 304 871 q 510 842 436 871 q 637 761 585 814 q 717 631 689 708 q 746 456 746 554 "},"ĺ":{"x_min":40,"x_max":413.4375,"ha":369,"o":"m 40 0 l 40 29 q 88 38 68 33 q 118 49 107 44 q 135 59 130 54 q 140 70 140 65 l 140 878 q 136 926 140 909 q 121 951 132 943 q 92 963 110 960 q 46 969 74 966 l 46 996 q 134 1017 94 1006 q 216 1051 174 1029 l 240 1028 l 240 70 q 262 49 240 60 q 339 29 284 38 l 339 0 l 40 0 m 102 1143 q 85 1155 90 1148 q 72 1174 80 1161 l 329 1389 q 346 1378 335 1385 q 370 1365 358 1372 q 392 1351 382 1358 q 407 1339 402 1344 l 413 1308 l 102 1143 "},"ł":{"x_min":36.375,"x_max":359.296875,"ha":383,"o":"m 47 0 l 47 29 q 95 38 75 33 q 125 49 114 44 q 142 59 137 54 q 147 70 147 65 l 147 459 l 52 391 l 36 402 q 39 417 37 411 q 42 428 40 422 q 46 442 43 434 q 55 465 49 450 l 147 530 l 147 878 q 143 926 147 909 q 128 951 139 943 q 99 963 117 960 q 53 969 81 966 l 53 996 q 141 1017 101 1006 q 223 1051 181 1029 l 247 1028 l 247 600 l 344 670 l 359 659 q 355 641 357 648 q 352 628 354 634 q 347 616 350 623 q 340 598 344 609 l 247 530 l 247 70 q 269 49 247 60 q 346 29 291 38 l 346 0 l 47 0 "},"":{"x_min":112,"x_max":218,"ha":340,"o":"m 218 477 q 196 471 209 474 q 169 467 183 469 q 140 464 155 465 q 112 463 125 463 l 112 1031 q 130 1041 117 1035 q 157 1054 143 1048 q 183 1065 171 1060 q 202 1071 196 1069 l 218 1053 l 218 477 "},"$":{"x_min":60.375,"x_max":573,"ha":639,"o":"m 149 649 q 159 604 149 623 q 188 569 170 585 q 232 541 207 553 q 287 517 258 528 l 287 755 q 222 745 248 755 q 179 720 195 735 q 156 686 163 705 q 149 649 149 667 m 483 219 q 472 275 483 251 q 443 318 461 300 q 399 351 424 337 q 347 378 374 365 l 347 76 q 398 91 373 79 q 441 122 422 103 q 471 165 460 140 q 483 219 483 190 m 347 -97 q 336 -105 341 -102 q 328 -110 332 -108 q 318 -114 323 -112 q 305 -118 313 -116 l 287 -103 l 287 -7 q 227 -2 255 -7 q 174 10 200 1 q 122 32 148 19 q 67 64 96 45 q 62 87 64 68 q 60 132 60 106 q 60 184 60 157 q 67 230 60 211 l 96 227 q 177 121 127 157 q 287 77 226 85 l 287 401 q 206 434 245 417 q 135 475 166 451 q 84 533 103 499 q 65 617 65 567 q 75 678 65 645 q 112 740 86 711 q 181 790 138 769 q 287 819 223 812 l 287 918 q 300 927 296 924 q 307 931 304 929 q 315 934 311 933 q 329 937 319 935 l 347 923 l 347 822 q 406 817 377 822 q 460 805 435 813 q 505 785 485 796 q 539 761 525 774 q 537 744 542 757 q 523 717 533 731 q 503 688 514 702 q 483 666 491 674 l 457 671 q 402 721 430 702 q 347 748 374 740 l 347 493 q 428 458 388 477 q 501 411 469 439 q 553 346 533 384 q 573 255 573 308 q 558 172 573 214 q 515 94 544 130 q 444 32 487 58 q 347 -2 402 5 l 347 -97 "},"w":{"x_min":13,"x_max":947,"ha":961,"o":"m 947 601 q 914 592 926 597 q 895 583 902 588 q 885 573 888 579 q 880 559 882 567 l 733 40 q 718 14 729 25 q 692 -2 706 4 q 664 -13 678 -9 q 642 -20 651 -17 l 484 439 l 348 40 q 332 14 343 24 q 307 -3 321 3 q 281 -14 294 -10 q 259 -20 268 -17 l 85 559 q 13 601 79 586 l 13 631 l 270 631 l 270 601 q 218 594 237 598 q 192 583 200 589 q 184 572 184 578 q 186 559 184 565 l 311 129 l 475 631 l 521 631 l 693 129 l 808 559 q 794 584 812 575 q 731 601 776 594 l 731 631 l 947 631 l 947 601 "},"":{"x_min":29.015625,"x_max":627.09375,"ha":648,"o":"m 627 165 q 613 63 621 106 q 599 0 605 19 l 33 0 l 33 29 q 104 49 78 38 q 130 70 130 61 l 130 364 l 43 364 l 29 380 q 36 402 32 391 q 43 425 39 414 l 130 425 l 130 783 q 105 803 130 791 q 33 825 81 815 l 33 854 l 332 854 l 332 825 q 261 804 286 815 q 236 783 236 792 l 236 425 l 395 425 l 411 409 l 395 364 l 236 364 l 236 111 q 241 89 236 98 q 261 74 247 80 q 299 64 275 67 q 359 61 322 61 l 454 61 q 505 64 484 61 q 542 79 526 67 q 571 114 558 91 q 598 177 584 137 l 627 165 "},"Ç":{"x_min":47,"x_max":676.765625,"ha":730,"o":"m 498 -155 q 486 -203 498 -180 q 450 -245 474 -226 q 386 -278 425 -264 q 293 -301 347 -292 l 278 -267 q 337 -252 313 -261 q 376 -232 361 -243 q 399 -209 392 -221 q 406 -187 406 -198 q 388 -154 406 -164 q 330 -141 371 -145 q 337 -122 331 -139 q 350 -78 341 -108 q 369 -19 358 -55 q 258 8 313 -19 q 151 90 199 36 q 75 221 104 143 q 47 397 47 298 q 79 593 47 505 q 166 744 111 682 q 294 840 221 806 q 449 874 367 874 q 575 854 521 874 q 664 806 629 835 q 662 793 668 803 q 645 770 656 783 q 623 744 635 757 q 604 723 612 731 l 581 727 q 500 779 547 759 q 393 800 454 800 q 344 791 371 800 q 290 764 317 783 q 237 716 262 746 q 192 645 212 687 q 161 548 173 603 q 150 422 150 492 q 175 264 150 332 q 241 151 201 196 q 331 83 281 106 q 427 61 380 61 q 521 86 463 61 q 652 173 579 111 q 659 167 655 172 q 666 158 662 163 q 672 149 669 153 q 676 143 674 145 q 595 65 634 96 q 520 14 556 33 q 448 -12 483 -4 q 422 -16 435 -14 l 404 -70 q 439 -81 422 -74 q 469 -97 456 -87 q 490 -122 482 -107 q 498 -155 498 -136 "},"Ŝ":{"x_min":80,"x_max":589,"ha":649,"o":"m 589 255 q 581 193 589 225 q 556 130 573 161 q 516 72 540 99 q 458 24 491 45 q 384 -7 426 4 q 293 -20 342 -20 q 245 -15 271 -20 q 191 -2 219 -10 q 137 18 164 6 q 87 46 110 30 q 81 69 82 48 q 80 116 80 89 q 80 172 80 144 q 87 219 80 201 l 114 216 q 152 147 129 176 q 203 98 175 117 q 263 70 231 79 q 330 61 296 61 q 390 73 360 61 q 444 107 420 86 q 483 158 468 129 q 499 219 499 187 q 481 290 499 261 q 434 343 463 320 q 367 385 405 366 q 291 421 330 403 q 215 460 252 440 q 149 507 178 480 q 102 570 120 535 q 85 655 85 606 q 90 701 85 676 q 110 750 96 725 q 144 797 123 774 q 195 837 165 820 q 263 864 224 854 q 350 875 301 875 q 410 870 380 875 q 466 857 440 865 q 514 837 493 849 q 547 812 535 826 q 547 796 552 808 q 534 770 543 784 q 514 743 525 756 q 495 722 503 729 l 471 726 q 432 763 453 748 q 391 789 412 779 q 349 802 370 798 q 310 807 329 807 q 247 795 273 807 q 203 766 220 783 q 178 727 186 749 q 171 687 171 706 q 188 631 171 655 q 236 585 206 606 q 303 546 265 564 q 379 508 340 528 q 456 465 419 488 q 523 412 494 442 q 571 344 553 382 q 589 255 589 305 m 543 957 q 530 938 535 944 q 514 927 525 932 l 332 1068 l 151 927 q 142 932 146 929 q 136 938 139 935 q 129 946 133 942 q 122 957 126 951 l 297 1167 l 368 1167 l 543 957 "},"C":{"x_min":47,"x_max":677.046875,"ha":730,"o":"m 677 143 q 595 65 634 97 q 520 15 556 34 q 449 -11 484 -3 q 379 -20 414 -20 q 258 8 318 -20 q 152 90 199 36 q 75 221 104 144 q 47 397 47 299 q 79 594 47 506 q 166 744 111 682 q 294 841 221 807 q 449 875 368 875 q 575 855 521 875 q 664 807 629 835 q 662 793 668 803 q 646 770 656 783 q 624 744 635 757 q 604 723 612 731 l 581 727 q 500 780 547 759 q 393 800 454 800 q 344 791 371 800 q 290 765 317 783 q 237 717 263 746 q 192 645 212 687 q 161 548 173 603 q 150 422 150 493 q 175 264 150 332 q 241 151 201 196 q 331 83 281 106 q 427 61 380 61 q 521 86 463 61 q 652 173 579 111 q 659 167 655 172 q 666 158 663 163 q 672 149 669 153 q 677 143 675 145 "},"Ḯ":{"x_min":-3,"x_max":420.59375,"ha":406,"o":"m 47 0 l 47 29 q 117 49 92 38 q 143 70 143 61 l 143 782 q 118 803 143 790 q 47 824 94 815 l 47 854 l 346 854 l 346 824 q 274 803 300 815 q 249 782 249 792 l 249 70 q 273 50 249 62 q 346 29 298 38 l 346 0 l 47 0 m 396 1044 q 390 1008 396 1025 q 373 979 384 991 q 349 959 363 966 q 318 952 335 952 q 275 968 288 952 q 263 1016 263 985 q 268 1052 263 1035 q 285 1082 274 1069 q 309 1101 296 1094 q 339 1109 323 1109 q 396 1044 396 1109 m 130 1044 q 124 1008 130 1025 q 107 979 118 991 q 83 959 97 966 q 52 952 69 952 q 9 968 22 952 q -3 1016 -3 985 q 2 1052 -3 1035 q 19 1082 8 1069 q 43 1101 30 1094 q 73 1109 57 1109 q 130 1044 130 1109 m 108 1143 q 92 1154 97 1148 q 78 1174 87 1161 l 336 1389 q 354 1378 342 1385 q 377 1364 365 1372 q 399 1351 389 1357 q 414 1338 409 1344 l 420 1308 l 108 1143 "},"̉":{"x_min":-455,"x_max":-233,"ha":0,"o":"m -233 904 q -245 870 -233 885 q -273 842 -257 855 q -306 817 -290 829 q -328 793 -321 805 q -329 766 -336 780 q -295 736 -323 753 q -315 728 -305 729 q -336 725 -326 726 q -380 753 -366 740 q -397 776 -394 765 q -394 796 -400 787 q -376 815 -388 806 q -351 833 -365 824 q -325 851 -337 842 q -305 871 -313 861 q -297 894 -297 882 q -309 933 -297 920 q -341 946 -322 946 q -360 942 -351 946 q -374 932 -368 938 q -383 918 -380 926 q -387 903 -387 911 q -385 896 -387 900 q -381 889 -383 893 q -395 885 -386 887 q -413 880 -403 882 q -431 877 -422 878 q -447 874 -441 875 l -455 882 l -455 891 q -442 923 -455 907 q -410 951 -429 938 q -366 971 -390 963 q -319 979 -343 979 q -255 958 -278 979 q -233 904 -233 938 "},"ɫ":{"x_min":-0.09375,"x_max":453.09375,"ha":453,"o":"m 453 604 q 424 549 441 576 q 387 500 408 522 q 343 465 367 479 q 294 452 320 452 q 277 454 284 452 l 277 70 q 299 49 277 60 q 376 29 321 39 l 376 0 l 77 0 l 77 29 q 125 39 105 34 q 155 49 144 44 q 172 60 167 54 q 177 70 177 65 l 177 511 q 153 523 165 518 q 130 528 141 528 q 81 506 103 528 q 35 446 59 484 l 0 460 q 28 515 11 487 q 65 564 44 542 q 109 599 85 585 q 159 613 133 613 q 177 610 167 613 l 177 878 q 173 926 177 909 q 158 951 169 943 q 129 963 147 960 q 83 969 111 966 l 83 996 q 171 1017 131 1006 q 253 1051 211 1029 l 277 1028 l 277 555 q 299 542 288 547 q 321 537 310 537 q 370 558 346 537 q 417 619 394 580 l 453 604 "},"Ẻ":{"x_min":33,"x_max":633.859375,"ha":675,"o":"m 633 165 q 620 63 628 107 q 606 0 611 19 l 33 0 l 33 29 q 104 49 78 38 q 130 70 130 61 l 130 782 q 105 803 130 790 q 33 824 81 815 l 33 854 l 568 854 l 590 837 q 587 798 590 819 q 580 756 584 777 q 571 716 576 735 q 563 684 567 697 l 533 684 q 528 736 533 715 q 517 770 524 757 q 501 787 511 782 q 479 793 491 793 l 236 793 l 236 498 l 505 498 l 522 479 q 509 458 517 469 q 493 437 501 447 q 476 417 485 426 q 461 403 468 409 q 439 420 451 413 q 412 432 427 427 q 377 438 397 436 q 329 441 357 441 l 236 441 l 236 104 q 240 86 236 94 q 259 72 245 78 q 301 64 274 67 q 371 61 327 61 l 457 61 q 509 64 487 61 q 547 79 530 67 q 577 114 564 91 q 605 177 591 137 l 633 165 m 445 1121 q 432 1087 445 1102 q 404 1059 420 1072 q 371 1034 387 1046 q 349 1009 356 1022 q 348 983 341 997 q 382 953 354 970 q 362 944 372 946 q 341 942 351 943 q 297 969 311 957 q 280 993 283 982 q 283 1013 277 1004 q 301 1032 289 1023 q 326 1050 312 1041 q 352 1068 340 1059 q 372 1088 364 1078 q 381 1111 381 1099 q 368 1150 381 1137 q 336 1163 355 1163 q 318 1159 326 1163 q 303 1149 309 1155 q 294 1135 297 1143 q 291 1120 291 1128 q 292 1113 291 1117 q 296 1106 294 1110 q 282 1102 291 1104 q 264 1097 274 1099 q 246 1094 255 1095 q 230 1091 236 1092 l 223 1099 l 223 1108 q 235 1140 223 1124 q 267 1168 248 1155 q 311 1188 287 1180 q 358 1196 335 1196 q 422 1175 399 1196 q 445 1121 445 1155 "},"È":{"x_min":33,"x_max":633.859375,"ha":675,"o":"m 633 165 q 620 63 628 107 q 606 0 611 19 l 33 0 l 33 29 q 104 49 78 38 q 130 70 130 61 l 130 782 q 105 803 130 790 q 33 824 81 815 l 33 854 l 568 854 l 590 837 q 587 798 590 819 q 580 756 584 777 q 571 716 576 735 q 563 684 567 697 l 533 684 q 528 736 533 715 q 517 770 524 757 q 501 787 511 782 q 479 793 491 793 l 236 793 l 236 498 l 505 498 l 522 479 q 509 458 517 469 q 493 437 501 447 q 476 417 485 426 q 461 403 468 409 q 439 420 451 413 q 413 432 428 427 q 377 438 398 436 q 329 441 357 441 l 236 441 l 236 104 q 240 86 236 94 q 259 72 245 78 q 301 64 274 67 q 371 61 327 61 l 457 61 q 509 64 487 61 q 547 79 530 67 q 577 114 564 91 q 605 177 591 137 l 633 165 m 451 957 q 437 937 441 944 q 421 926 432 931 l 109 1091 l 115 1121 q 130 1134 119 1127 q 152 1147 140 1140 q 175 1161 164 1155 q 194 1172 186 1167 l 451 957 "},"ﬁ":{"x_min":30.03125,"x_max":756,"ha":793,"o":"m 543 985 q 533 969 543 980 q 510 946 523 958 q 482 925 497 935 q 458 910 468 914 q 426 935 442 924 q 395 952 410 945 q 367 962 380 959 q 345 966 354 966 q 309 954 328 966 q 272 911 289 942 q 244 826 255 879 q 233 688 233 772 l 233 630 l 404 630 l 423 610 q 408 590 417 601 q 390 569 399 579 q 373 552 381 560 q 358 542 364 544 q 314 558 343 550 q 233 566 286 566 l 233 69 q 239 61 233 65 q 263 52 246 56 q 306 42 280 48 q 372 29 332 36 l 372 0 l 40 0 l 40 29 q 109 49 85 37 q 133 69 133 61 l 133 566 l 43 566 l 30 584 l 81 630 l 133 630 l 133 651 q 143 786 133 731 q 172 878 154 840 q 214 941 190 915 q 265 988 238 966 q 304 1014 283 1003 q 346 1034 326 1026 q 386 1046 367 1042 q 418 1051 405 1051 q 460 1042 438 1051 q 500 1024 482 1034 q 531 1002 519 1013 q 543 985 543 991 m 470 0 l 470 29 q 538 49 515 38 q 562 70 562 61 l 562 454 q 562 510 562 488 q 553 543 562 531 q 524 560 544 555 q 470 569 505 566 l 470 596 q 513 606 490 600 q 559 619 536 611 q 602 634 581 626 q 640 651 623 642 l 663 651 l 663 70 q 685 50 663 62 q 756 29 707 38 l 756 0 l 470 0 m 683 854 q 677 818 683 835 q 660 789 671 801 q 636 769 650 776 q 605 762 622 762 q 562 778 575 762 q 550 826 550 795 q 555 862 550 845 q 572 892 561 879 q 596 911 583 904 q 626 919 610 919 q 683 854 683 919 "},"":{"x_min":0,"x_max":271.15625,"ha":271,"o":"m 271 731 q 253 718 262 722 q 233 709 245 713 l 0 965 l 14 993 q 34 997 21 995 q 61 1002 47 1000 q 89 1007 75 1005 q 111 1009 103 1009 l 271 731 "},"X":{"x_min":21,"x_max":817,"ha":838,"o":"m 517 0 l 517 28 q 564 36 546 31 q 590 46 582 40 q 597 62 598 53 q 587 85 596 72 l 401 362 l 234 85 q 237 43 215 56 q 320 31 258 31 l 320 0 l 21 0 l 21 30 q 94 42 63 30 q 141 84 124 55 l 352 436 l 130 768 q 111 792 120 783 q 90 808 102 802 q 63 818 78 814 q 27 825 48 821 l 27 854 l 327 854 l 327 825 q 253 808 270 819 q 256 768 236 797 l 420 522 l 570 768 q 578 794 579 784 q 565 810 576 804 q 533 820 554 817 q 484 824 513 824 l 484 855 l 785 855 l 785 825 q 742 818 761 822 q 708 808 723 815 q 682 792 693 802 q 663 768 671 782 l 469 448 l 712 85 q 732 61 722 71 q 755 45 742 52 q 782 35 767 39 q 817 28 798 31 l 817 0 l 517 0 "},"ô":{"x_min":53,"x_max":631.015625,"ha":684,"o":"m 528 309 q 510 411 528 362 q 466 496 493 459 q 404 555 438 533 q 336 577 369 577 q 251 557 285 577 q 195 503 216 537 q 165 422 174 469 q 156 321 156 375 q 174 219 156 267 q 221 133 193 170 q 283 75 249 97 q 347 54 317 54 q 429 72 395 54 q 484 123 462 90 q 517 203 506 157 q 528 309 528 250 m 631 329 q 619 240 631 283 q 588 158 608 197 q 540 86 568 119 q 479 30 512 53 q 407 -6 445 6 q 329 -20 369 -20 q 215 4 266 -20 q 128 71 164 28 q 72 173 92 114 q 53 301 53 232 q 63 389 53 346 q 94 472 74 433 q 141 544 114 511 q 202 600 169 576 q 275 638 236 624 q 355 651 314 651 q 468 627 417 651 q 555 559 519 602 q 611 457 591 516 q 631 329 631 398 m 565 741 q 552 722 557 728 q 536 710 547 716 l 354 892 l 174 710 q 165 716 169 713 q 159 722 161 718 q 152 730 156 725 q 144 741 149 735 l 320 998 l 391 998 l 565 741 "},"ṹ":{"x_min":27.265625,"x_max":710.359375,"ha":721,"o":"m 710 55 q 662 25 685 39 q 620 0 639 11 q 585 -15 600 -9 q 563 -21 571 -21 q 524 10 539 -21 q 510 112 510 42 q 432 44 466 70 q 369 3 398 17 q 316 -15 340 -10 q 270 -21 292 -21 q 211 -12 239 -21 q 160 20 182 -3 q 125 84 138 43 q 113 189 113 125 l 113 482 q 111 532 113 514 q 100 559 109 550 q 75 572 92 568 q 27 578 57 575 l 27 606 q 72 612 51 608 q 112 622 93 616 q 152 634 132 627 q 194 650 172 642 l 213 624 l 213 226 q 219 147 213 178 q 239 96 226 115 q 271 69 252 77 q 314 61 290 61 q 357 67 335 61 q 403 87 380 73 q 452 123 427 101 q 508 177 478 145 l 508 482 q 505 531 508 513 q 492 559 502 549 q 463 574 482 570 q 414 578 445 578 l 414 606 q 506 625 462 612 q 588 650 550 637 l 608 624 l 608 172 q 610 103 608 130 q 623 70 613 77 q 650 68 631 65 q 703 86 669 71 l 710 55 m 588 912 q 560 857 576 884 q 523 808 543 830 q 478 773 502 787 q 429 760 455 760 q 384 771 405 760 q 344 798 363 783 q 304 824 324 812 q 265 836 285 836 q 217 814 239 836 q 171 754 195 792 l 135 768 q 163 823 147 795 q 200 872 180 850 q 244 907 221 893 q 294 921 268 921 q 342 909 319 921 q 384 883 364 897 q 422 856 404 868 q 456 845 440 845 q 505 866 481 845 q 552 927 530 888 l 588 912 m 333 953 q 312 961 321 955 q 295 972 303 966 l 450 1253 q 471 1250 458 1252 q 499 1247 484 1249 q 526 1242 513 1245 q 547 1237 540 1239 l 562 1211 l 333 953 "},"":{"x_min":47,"x_max":492,"ha":545,"o":"m 100 0 l 100 29 q 213 70 213 49 l 213 180 q 226 247 213 219 q 259 296 239 275 q 302 335 279 318 q 345 370 326 352 q 378 407 365 387 q 392 454 392 427 q 380 510 392 485 q 350 552 369 535 q 307 578 331 569 q 255 587 282 587 q 213 578 231 587 q 181 554 194 569 q 162 519 169 539 q 156 479 156 500 q 158 459 156 469 q 163 439 160 449 q 119 422 142 428 q 66 414 96 417 l 48 434 q 47 445 47 439 l 47 456 q 69 534 47 499 q 129 596 92 570 q 212 636 165 622 q 307 651 259 651 q 382 638 348 651 q 441 602 416 625 q 478 550 465 580 q 492 485 492 519 q 478 422 492 448 q 445 377 465 397 q 402 340 426 357 q 359 305 378 323 q 326 263 339 286 q 313 207 313 240 l 313 70 q 341 49 313 60 q 426 29 370 39 l 426 0 l 100 0 "},"Ė":{"x_min":33,"x_max":633.859375,"ha":675,"o":"m 633 165 q 620 63 628 107 q 606 0 611 19 l 33 0 l 33 29 q 104 49 78 38 q 130 70 130 61 l 130 782 q 105 803 130 790 q 33 824 81 815 l 33 854 l 568 854 l 590 837 q 587 798 590 819 q 580 756 584 777 q 571 716 576 735 q 563 684 567 697 l 533 684 q 528 736 533 715 q 517 770 524 757 q 501 787 511 782 q 479 793 491 793 l 236 793 l 236 498 l 505 498 l 522 479 q 509 458 517 469 q 493 437 501 447 q 476 417 485 426 q 461 403 468 409 q 439 420 451 413 q 413 432 427 427 q 377 438 398 436 q 329 441 357 441 l 236 441 l 236 104 q 240 86 236 94 q 259 72 245 78 q 301 64 274 67 q 371 61 327 61 l 457 61 q 509 64 487 61 q 547 79 530 67 q 577 114 564 91 q 605 177 591 137 l 633 165 m 400 1044 q 394 1008 400 1025 q 377 979 388 991 q 353 959 367 966 q 322 952 339 952 q 279 968 292 952 q 267 1016 267 985 q 272 1052 267 1035 q 289 1082 278 1069 q 313 1101 300 1094 q 343 1109 327 1109 q 400 1044 400 1109 "},"ấ":{"x_min":53,"x_max":615.6875,"ha":625,"o":"m 233 68 q 318 88 273 68 q 414 154 363 109 l 414 329 q 321 311 358 320 q 262 293 285 302 q 225 273 239 284 q 200 252 211 263 q 172 210 183 234 q 162 155 162 187 q 169 111 162 128 q 189 84 177 94 q 212 71 200 74 q 233 68 225 68 m 615 55 q 522 -2 559 15 q 466 -21 485 -21 q 429 10 444 -21 q 415 97 415 41 q 354 44 384 66 q 295 7 324 21 q 241 -14 267 -7 q 194 -21 215 -21 q 145 -12 170 -21 q 99 12 120 -4 q 66 58 79 30 q 53 125 53 86 q 70 211 53 177 q 112 271 88 246 q 149 302 128 288 q 202 330 169 317 q 287 356 236 344 q 414 380 337 368 l 414 475 q 408 518 414 498 q 390 552 403 538 q 356 575 378 567 q 302 583 334 583 q 260 576 281 583 q 224 557 239 569 q 200 527 209 544 q 193 490 191 511 q 180 476 194 484 q 146 463 166 469 q 107 453 126 456 q 80 452 88 450 l 71 478 q 118 543 86 512 q 189 598 149 575 q 274 636 229 622 q 361 651 319 651 q 474 611 434 651 q 514 503 514 572 l 514 120 q 521 80 514 92 q 540 68 528 68 q 564 71 549 68 q 605 86 579 74 l 615 55 m 529 740 q 516 721 521 727 q 500 710 512 715 l 318 891 l 138 710 q 129 715 132 712 q 122 721 125 718 q 116 729 119 724 q 108 740 112 734 l 283 997 l 354 997 l 529 740 m 290 1015 q 269 1022 278 1017 q 252 1034 259 1028 l 408 1314 q 429 1312 416 1314 q 456 1308 442 1310 q 484 1304 470 1306 q 504 1299 497 1301 l 519 1272 l 290 1015 "},"ŋ":{"x_min":37,"x_max":639,"ha":745,"o":"m 639 59 q 626 -74 639 -19 q 594 -166 614 -128 q 548 -229 573 -203 q 495 -276 522 -254 q 455 -303 477 -291 q 410 -322 432 -314 q 367 -334 387 -330 q 334 -339 347 -339 q 285 -332 311 -339 q 236 -315 259 -325 q 198 -293 213 -305 q 183 -272 183 -282 q 192 -255 183 -265 q 216 -233 202 -244 q 244 -211 229 -221 q 268 -196 259 -201 q 307 -226 287 -215 q 347 -245 328 -238 q 382 -255 366 -252 q 408 -258 398 -258 q 449 -245 426 -258 q 492 -201 472 -232 q 525 -114 512 -169 q 539 23 539 -60 l 539 429 q 534 496 539 470 q 519 536 529 522 q 493 556 509 551 q 453 562 477 562 q 407 552 433 562 q 353 519 382 542 q 292 461 324 497 q 229 372 260 425 l 229 70 q 254 49 229 60 q 323 29 279 38 l 323 0 l 37 0 l 37 29 q 105 49 80 40 q 130 70 130 58 l 130 482 q 128 524 130 508 q 117 548 126 539 q 89 561 108 557 q 37 569 70 565 l 37 597 q 120 618 82 604 q 196 651 159 632 l 223 627 l 223 458 q 290 539 255 503 q 362 599 326 574 q 432 637 398 624 q 491 651 465 651 q 547 642 520 651 q 594 615 573 633 q 626 568 614 596 q 639 502 639 540 l 639 59 "},"Ỵ":{"x_min":-0.265625,"x_max":781,"ha":808,"o":"m 239 0 l 239 29 q 323 55 299 42 q 348 78 348 68 l 348 364 q 292 478 323 419 q 228 594 260 538 q 165 699 195 651 q 111 780 134 748 q 97 794 105 788 q 78 806 90 801 q 48 814 66 811 q 2 818 30 818 l 0 846 q 78 856 38 852 q 145 861 117 861 q 197 834 175 861 q 250 757 221 802 q 307 663 278 713 q 363 562 335 614 q 413 461 390 510 l 592 780 q 585 808 602 798 q 518 825 569 818 l 518 854 l 781 854 l 781 825 q 711 807 735 816 q 677 780 686 798 l 454 366 l 454 78 q 459 68 454 73 q 478 55 465 62 q 512 42 491 48 q 565 29 533 35 l 565 0 l 239 0 m 468 -189 q 462 -225 468 -208 q 445 -254 456 -242 q 421 -274 435 -267 q 390 -282 407 -282 q 347 -265 360 -282 q 335 -217 335 -248 q 340 -181 335 -198 q 357 -151 346 -164 q 381 -132 368 -139 q 411 -125 395 -125 q 468 -189 468 -125 "},"":{"x_min":29.015625,"x_max":627.09375,"ha":648,"o":"m 627 165 q 613 63 621 106 q 599 0 605 19 l 33 0 l 33 29 q 104 49 78 38 q 130 70 130 60 l 130 296 l 43 296 l 29 312 q 36 334 32 323 q 43 357 39 346 l 130 357 l 130 432 l 43 432 l 29 448 q 36 470 32 459 q 43 493 39 482 l 130 493 l 130 783 q 105 803 130 791 q 33 825 81 815 l 33 854 l 332 854 l 332 825 q 261 804 286 815 q 236 783 236 792 l 236 493 l 395 493 l 411 477 l 395 432 l 236 432 l 236 357 l 395 357 l 411 341 l 395 296 l 236 296 l 236 111 q 241 89 236 98 q 261 74 247 80 q 299 64 275 67 q 359 61 322 61 l 454 61 q 505 64 484 61 q 542 79 526 67 q 571 114 558 91 q 598 177 584 137 l 627 165 "},"ṇ":{"x_min":37,"x_max":732,"ha":752,"o":"m 446 0 l 446 29 q 516 51 493 42 q 539 70 539 61 l 539 429 q 534 496 539 470 q 519 537 529 522 q 493 557 509 552 q 453 563 477 563 q 408 552 433 563 q 353 520 382 542 q 293 461 325 497 q 230 372 261 425 l 230 70 q 254 49 230 60 q 323 29 279 38 l 323 0 l 37 0 l 37 29 q 105 50 80 40 q 130 70 130 59 l 130 482 q 128 524 130 508 q 117 548 126 539 q 89 561 108 557 q 37 569 70 565 l 37 596 q 120 618 82 604 q 196 651 159 632 l 223 627 l 223 458 q 291 539 256 504 q 362 599 326 575 q 432 637 398 624 q 491 651 465 651 q 547 642 520 651 q 594 615 573 633 q 626 568 614 596 q 639 502 639 540 l 639 70 q 659 52 639 61 q 732 29 679 42 l 732 0 l 446 0 m 450 -189 q 444 -225 450 -208 q 427 -254 438 -242 q 403 -274 417 -267 q 372 -282 389 -282 q 329 -265 342 -282 q 317 -217 317 -248 q 322 -181 317 -198 q 339 -151 328 -164 q 363 -132 350 -139 q 393 -125 377 -125 q 450 -189 450 -125 "},"Ǟ":{"x_min":0,"x_max":796,"ha":810,"o":"m 504 363 l 387 711 l 272 363 l 504 363 m 252 302 l 179 75 q 197 45 172 54 q 276 29 222 35 l 276 0 l 0 0 l 0 29 q 71 46 45 37 q 105 75 98 55 l 352 838 q 390 869 367 855 q 430 893 413 883 l 709 75 q 718 58 712 66 q 734 45 724 51 q 759 36 744 40 q 796 29 774 32 l 796 0 l 516 0 l 516 31 q 587 41 568 31 q 600 75 607 52 l 524 302 l 252 302 m 598 1044 q 592 1008 598 1025 q 575 979 586 991 q 551 959 565 966 q 520 952 537 952 q 477 968 490 952 q 465 1016 465 985 q 470 1052 465 1035 q 487 1082 476 1069 q 511 1101 498 1094 q 541 1109 525 1109 q 598 1044 598 1109 m 332 1044 q 326 1008 332 1025 q 309 979 320 991 q 285 959 299 966 q 254 952 271 952 q 211 968 224 952 q 199 1016 199 985 q 204 1052 199 1035 q 221 1082 210 1069 q 245 1101 232 1094 q 275 1109 259 1109 q 332 1044 332 1109 m 629 1275 q 625 1258 628 1268 q 617 1238 621 1248 q 610 1219 613 1229 q 603 1204 606 1210 l 195 1204 l 180 1220 q 185 1237 181 1228 q 192 1257 188 1247 q 200 1276 196 1266 q 207 1292 204 1285 l 615 1292 l 629 1275 "},"ü":{"x_min":27.265625,"x_max":710.359375,"ha":721,"o":"m 710 55 q 662 25 685 39 q 620 1 639 11 q 585 -14 600 -8 q 563 -20 571 -20 q 524 11 539 -20 q 510 112 510 42 q 432 44 467 70 q 369 3 398 18 q 316 -15 340 -10 q 271 -20 292 -20 q 211 -11 239 -20 q 160 20 182 -2 q 125 84 138 43 q 113 189 113 125 l 113 481 q 111 532 113 514 q 100 559 109 550 q 75 571 92 568 q 27 578 57 575 l 27 605 q 72 612 51 608 q 112 622 93 616 q 152 634 132 627 q 194 650 172 641 l 213 624 l 213 226 q 219 147 213 178 q 239 96 226 115 q 271 69 252 77 q 314 61 290 61 q 357 67 335 61 q 403 87 380 73 q 452 123 427 101 q 508 177 478 145 l 508 482 q 505 531 508 512 q 492 559 502 549 q 464 573 482 569 q 414 578 446 578 l 414 605 q 507 624 463 611 q 588 650 551 637 l 608 624 l 608 172 q 610 103 608 130 q 623 70 613 77 q 650 68 631 65 q 703 86 669 71 l 710 55 m 562 854 q 556 818 562 835 q 539 789 550 801 q 515 769 529 776 q 484 762 501 762 q 441 778 454 762 q 429 826 429 795 q 434 862 429 845 q 451 892 440 879 q 475 911 462 904 q 505 919 489 919 q 562 854 562 919 m 296 854 q 290 818 296 835 q 273 789 284 801 q 249 769 263 776 q 218 762 235 762 q 175 778 188 762 q 163 826 163 795 q 168 862 163 845 q 185 892 174 879 q 209 911 196 904 q 239 919 223 919 q 296 854 296 919 "},"Ÿ":{"x_min":-0.046875,"x_max":781,"ha":808,"o":"m 239 0 l 239 29 q 323 55 299 42 q 348 78 348 68 l 348 364 q 292 478 323 419 q 228 594 261 538 q 165 699 195 651 q 111 780 134 748 q 97 794 105 788 q 78 806 90 801 q 48 814 66 811 q 2 818 30 818 l 0 846 q 78 856 39 852 q 145 861 117 861 q 197 834 176 861 q 250 757 221 802 q 307 663 278 713 q 363 562 336 614 q 413 461 390 510 l 592 780 q 585 808 602 798 q 518 825 569 818 l 518 854 l 781 854 l 781 825 q 711 807 735 816 q 677 780 687 798 l 454 366 l 454 78 q 459 68 454 73 q 478 55 465 62 q 512 42 491 48 q 565 29 533 35 l 565 0 l 239 0 m 601 1044 q 595 1008 601 1025 q 578 979 589 991 q 554 959 568 966 q 523 952 540 952 q 480 968 493 952 q 468 1016 468 985 q 473 1052 468 1035 q 490 1082 479 1069 q 514 1101 501 1094 q 544 1109 528 1109 q 601 1044 601 1109 m 335 1044 q 329 1008 335 1025 q 312 979 323 991 q 288 959 302 966 q 257 952 274 952 q 214 968 227 952 q 202 1016 202 985 q 207 1052 202 1035 q 224 1082 213 1069 q 248 1101 235 1094 q 278 1109 262 1109 q 335 1044 335 1109 "},"€":{"x_min":16.234375,"x_max":615.359375,"ha":639,"o":"m 415 317 l 197 317 q 225 197 205 246 q 271 118 244 148 q 331 74 298 88 q 399 61 364 61 q 439 66 419 61 q 481 85 459 72 q 530 120 503 99 q 590 173 556 142 q 597 167 594 172 q 604 158 601 163 q 610 149 608 154 q 615 143 613 145 q 542 65 575 97 q 479 15 510 34 q 417 -11 448 -3 q 349 -20 386 -20 q 254 0 299 -20 q 175 61 210 20 q 117 166 140 102 q 95 317 95 230 l 30 317 l 16 333 q 23 355 19 344 q 30 378 26 367 l 90 378 l 90 380 q 94 466 90 425 l 50 466 l 36 482 q 43 504 39 493 q 50 527 46 516 l 102 527 q 144 661 116 603 q 214 759 173 719 q 307 818 255 798 q 421 838 360 838 q 480 832 454 838 q 527 817 506 827 q 567 796 549 808 q 602 770 585 784 q 600 756 606 766 q 584 733 594 746 q 562 707 574 720 q 542 686 550 694 l 519 690 q 488 719 503 706 q 455 742 473 732 q 416 757 438 752 q 365 763 395 763 q 317 753 342 763 q 269 716 292 743 q 227 644 245 690 q 199 527 208 598 l 435 527 l 452 511 l 435 466 l 194 466 q 194 436 194 451 q 194 405 194 421 l 194 378 l 415 378 l 432 362 l 415 317 "},"ß":{"x_min":36.953125,"x_max":709,"ha":769,"o":"m 709 191 q 696 113 709 151 q 656 45 683 75 q 587 -2 629 15 q 485 -21 544 -21 q 439 -15 466 -21 q 385 -3 412 -10 q 338 13 359 4 q 312 31 317 23 q 309 46 310 34 q 309 74 309 58 q 309 109 309 91 q 310 144 309 127 q 315 174 312 161 q 321 191 317 186 l 346 182 q 368 120 351 146 q 408 78 384 94 q 458 54 431 61 q 510 47 485 47 q 554 54 533 47 q 590 74 575 61 q 614 106 605 87 q 623 146 623 124 q 610 208 623 181 q 575 254 597 234 q 527 290 554 274 q 472 321 500 306 q 416 352 443 336 q 368 388 389 368 q 333 433 346 408 q 321 493 321 459 q 337 568 321 539 q 378 615 353 597 q 431 647 402 634 q 484 674 460 660 q 525 708 509 688 q 542 760 542 727 q 532 831 542 795 q 503 897 523 867 q 452 946 483 927 q 376 966 420 966 q 317 954 344 966 q 270 911 290 942 q 240 826 251 879 q 230 688 230 772 l 230 0 l 36 0 l 36 28 q 106 48 82 36 q 130 68 130 60 l 130 651 q 140 787 130 732 q 169 879 151 842 q 211 942 187 917 q 261 988 235 966 q 341 1034 297 1018 q 434 1051 386 1051 q 531 1026 491 1051 q 596 966 571 1002 q 632 886 621 929 q 643 806 643 844 q 626 715 643 751 q 583 658 609 680 q 528 621 558 635 q 473 594 498 607 q 431 565 448 581 q 414 521 414 548 q 426 482 414 499 q 460 451 439 466 q 507 424 481 437 q 561 396 534 411 q 615 363 589 381 q 662 321 642 345 q 696 265 683 297 q 709 191 709 233 "},"ǩ":{"x_min":37,"x_max":681.265625,"ha":681,"o":"m 37 1 l 37 29 q 105 49 80 41 q 130 70 130 58 l 130 879 q 126 927 130 910 q 112 952 122 944 q 83 963 102 961 q 37 969 65 966 l 37 997 q 127 1019 82 1006 q 205 1051 171 1031 l 230 1028 l 230 359 l 434 542 q 461 573 456 561 q 459 591 465 585 q 438 599 453 597 q 406 602 423 602 l 406 631 l 658 631 l 658 602 q 604 590 628 598 q 551 559 579 583 l 324 374 l 574 75 q 594 56 584 64 q 616 45 604 49 q 643 41 628 41 q 677 41 658 41 l 681 13 q 643 4 661 8 q 607 -1 624 1 q 578 -4 591 -3 q 558 -6 565 -6 q 514 2 531 -6 q 482 29 497 10 l 230 354 l 230 70 q 232 61 230 65 q 241 52 234 57 q 263 43 249 48 q 303 29 278 37 l 303 1 l 37 1 m 394 1113 l 323 1113 l 148 1321 q 155 1332 152 1327 q 162 1340 159 1337 q 169 1346 165 1344 q 178 1353 172 1349 l 360 1209 l 540 1353 q 556 1340 551 1346 q 568 1321 560 1334 l 394 1113 "},"Ể":{"x_min":33,"x_max":633.859375,"ha":675,"o":"m 633 165 q 620 63 628 107 q 606 0 611 19 l 33 0 l 33 29 q 104 49 78 38 q 130 70 130 61 l 130 782 q 105 803 130 790 q 33 824 81 815 l 33 854 l 568 854 l 590 837 q 587 798 590 819 q 580 756 584 777 q 571 716 576 735 q 563 684 567 697 l 533 684 q 528 736 533 715 q 517 770 524 757 q 501 787 511 782 q 479 793 491 793 l 236 793 l 236 498 l 505 498 l 522 479 q 509 458 517 469 q 493 437 501 447 q 476 417 485 426 q 461 403 468 409 q 439 420 451 413 q 412 432 427 427 q 377 438 397 436 q 329 441 357 441 l 236 441 l 236 104 q 240 86 236 94 q 259 72 245 78 q 301 64 274 67 q 371 61 327 61 l 457 61 q 509 64 487 61 q 547 79 530 67 q 577 114 564 91 q 605 177 591 137 l 633 165 m 543 957 q 530 938 535 944 q 515 926 526 932 l 333 1067 l 153 926 q 144 931 147 929 q 137 938 140 934 q 131 946 134 941 q 123 957 128 950 l 298 1166 l 369 1166 l 543 957 m 445 1392 q 432 1358 445 1373 q 404 1330 420 1343 q 371 1305 387 1317 q 349 1280 356 1293 q 348 1254 341 1268 q 382 1224 354 1241 q 362 1216 372 1217 q 341 1213 351 1214 q 297 1240 311 1228 q 280 1264 283 1253 q 283 1284 277 1275 q 301 1303 289 1294 q 326 1321 312 1312 q 352 1339 340 1330 q 372 1359 364 1349 q 381 1382 381 1370 q 368 1421 381 1408 q 336 1434 355 1434 q 318 1430 326 1434 q 303 1420 309 1426 q 294 1406 297 1414 q 291 1391 291 1399 q 292 1384 291 1388 q 296 1377 294 1381 q 282 1373 291 1375 q 264 1368 274 1370 q 246 1365 255 1366 q 230 1362 236 1363 l 223 1370 l 223 1379 q 235 1411 223 1395 q 267 1439 248 1426 q 311 1459 287 1451 q 358 1467 335 1467 q 422 1446 399 1467 q 445 1392 445 1426 "},"ǵ":{"x_min":20,"x_max":657.625,"ha":664,"o":"m 459 406 q 447 474 459 442 q 412 531 435 507 q 355 569 389 555 q 276 583 321 583 q 240 574 260 583 q 201 548 219 565 q 171 505 183 531 q 160 446 160 479 q 170 378 160 410 q 204 322 181 346 q 260 284 226 298 q 342 271 294 271 q 382 279 361 271 q 420 305 403 287 q 448 347 437 322 q 459 406 459 372 m 344 -2 q 297 3 319 0 q 257 10 276 6 q 182 -36 210 -15 q 141 -74 155 -57 q 123 -104 127 -90 q 120 -128 120 -118 q 138 -182 120 -157 q 188 -226 157 -208 q 260 -256 219 -245 q 347 -268 301 -268 q 428 -255 391 -268 q 490 -222 464 -243 q 530 -171 516 -200 q 545 -106 545 -141 q 536 -71 545 -87 q 505 -42 527 -55 q 443 -19 482 -29 q 344 -2 405 -9 m 552 434 q 529 339 552 382 q 468 265 506 296 q 384 217 431 234 q 288 200 337 200 l 285 200 q 241 154 253 172 q 230 132 230 136 q 236 116 230 124 q 262 101 243 109 q 315 87 281 94 q 400 74 348 80 q 520 50 472 66 q 595 12 567 33 q 634 -33 623 -8 q 645 -81 645 -57 q 631 -152 645 -118 q 593 -214 617 -185 q 536 -265 569 -242 q 466 -305 504 -288 q 389 -330 429 -321 q 310 -339 349 -339 q 246 -334 279 -339 q 180 -320 212 -330 q 118 -296 147 -311 q 67 -261 89 -282 q 32 -214 45 -240 q 20 -155 20 -188 q 26 -118 20 -137 q 51 -76 32 -99 q 105 -28 71 -54 q 197 28 140 -2 q 137 63 154 44 q 121 103 121 83 q 124 118 121 109 q 138 140 127 127 q 167 170 148 153 q 216 209 186 187 q 155 236 183 218 q 108 280 128 254 q 77 337 88 305 q 67 408 67 370 q 88 502 67 457 q 146 579 110 546 q 228 631 182 612 q 322 651 274 651 q 397 639 362 651 q 460 606 432 627 q 523 615 495 610 q 573 627 551 621 q 613 639 595 633 q 644 651 630 645 l 657 630 q 642 595 649 611 q 619 562 635 579 q 570 554 594 557 q 515 552 545 552 q 542 496 532 525 q 552 434 552 467 m 303 709 q 282 717 291 712 q 265 728 273 722 l 421 1009 q 442 1007 429 1009 q 469 1003 455 1005 q 497 998 484 1001 q 517 994 510 996 l 533 967 l 303 709 "}}}
